<?xml version="1.0" standalone="no"?><!DOCTYPE svg PUBLIC "-//W3C//DTD SVG 1.1//EN" "http://www.w3.org/Graphics/SVG/1.1/DTD/svg11.dtd" ><svg version="1.1" xmlns="http://www.w3.org/2000/svg"><defs><font horiz-adv-x="0" id="font"><font-face ascent="800" bbox="-224 -248 1674 1044" cap-height="780" descent="-200" font-family="SEAS NVE Sans" font-stretch="normal" font-style="normal" font-weight="600" units-per-em="1000" x-height="530" /><missing-glyph d="M857 115V665L562 390ZM171 665V115L466 390ZM514 435 813 714H215ZM215 66H813L514 345ZM96 780H932V0H96Z" horiz-adv-x="1029" /><glyph d="M352 518 274 295H521L442 518L397 650ZM310 790H485L790 0H628L562 177H232L167 0H5Z" glyph-name="A" horiz-adv-x="795" unicode="A" /><glyph d="M336 295H554L516 525L505 606ZM573 177H272L177 0H5L454 780H1084V650H648L679 464H1031V334H701L735 130H1106V0H603Z" glyph-name="AE" horiz-adv-x="1170" unicode="&#198;" /><glyph d="M595 1030 476 822H332L433 1030ZM397 613 289 313H506ZM553 186H242L170 0H9L331 794H464L786 0H625Z" glyph-name="Aacute" horiz-adv-x="795" unicode="&#193;" /><glyph d="M611 1030Q612 979 601 939Q590 899 564.5 872Q539 845 498 830.5Q457 816 397 816Q337 816 296 830.5Q255 845 230 872Q205 899 194 939Q183 979 184 1030H299Q298 979 321.5 958Q345 937 397 937Q450 937 473.5 958Q497 979 496 1030ZM397 613 289 313H506ZM553 186H242L170 0H9L331 794H464L786 0H625Z" glyph-name="Abreve" horiz-adv-x="795" unicode="&#258;" /><glyph d="M332 1030H463L629 822H481L397 916L314 822H166ZM397 613 289 313H506ZM553 186H242L170 0H9L331 794H464L786 0H625Z" glyph-name="Acircumflex" horiz-adv-x="795" unicode="&#194;" /><glyph d="M422 922Q422 960 448 986Q474 1012 512 1012Q550 1012 576 986Q602 960 602 922Q602 884 576 858Q550 832 512 832Q474 832 448 858Q422 884 422 922ZM192 922Q192 960 218 986Q244 1012 282 1012Q320 1012 346 986Q372 960 372 922Q372 884 346 858Q320 832 282 832Q244 832 218 858Q192 884 192 922ZM397 613 289 313H506ZM553 186H242L170 0H9L331 794H464L786 0H625Z" glyph-name="Adieresis" horiz-adv-x="795" unicode="&#196;" /><glyph d="M362 1030 463 822H319L200 1030ZM397 613 289 313H506ZM553 186H242L170 0H9L331 794H464L786 0H625Z" glyph-name="Agrave" horiz-adv-x="795" unicode="&#192;" /><glyph d="M397 613 289 313H506ZM232 990H562V865H232ZM553 186H242L170 0H9L331 794H464L786 0H625Z" glyph-name="Amacron" horiz-adv-x="795" unicode="&#256;" /><glyph d="M397 613 289 313H506ZM786 0Q760 -3 738 -11Q716 -19 699.5 -30Q683 -41 673.5 -55Q664 -69 664 -82Q664 -95 672.5 -105.5Q681 -116 704 -116Q715 -116 726.5 -113Q738 -110 747 -106.5Q756 -103 761.5 -100Q767 -97 767 -97L798 -189Q781 -199 752 -206.5Q723 -214 687 -214Q622 -214 585.5 -182.5Q549 -151 549 -93Q550 -58 567.5 -29Q585 0 615 23L553 186H242L170 0H9L331 794H464Z" glyph-name="Aogonek" horiz-adv-x="795" unicode="&#260;" /><glyph d="M397 878Q420 878 433.5 891Q447 904 447 926Q447 948 433.5 961Q420 974 397 974Q374 974 360.5 961Q347 948 347 926Q347 904 360.5 891Q374 878 397 878ZM397 1044Q457 1044 490 1010.5Q523 977 523 926Q523 875 490 841.5Q457 808 397 808Q337 808 304 841.5Q271 875 271 926Q271 977 304 1010.5Q337 1044 397 1044ZM397 613 289 313H506ZM553 186H242L170 0H9L331 794H464L786 0H625Z" glyph-name="Aring" horiz-adv-x="795" unicode="&#197;" /><glyph d="M661 1002Q653 914 610.5 868.5Q568 823 483 825Q444 826 419 837.5Q394 849 375.5 863Q357 877 341.5 889Q326 901 307 901Q289 902 278.5 896Q268 890 262 880.5Q256 871 253.5 859Q251 847 250 837L133 850Q140 938 183 983.5Q226 1029 311 1027Q350 1026 375 1014.5Q400 1003 418.5 989Q437 975 452 963Q467 951 486 951Q504 950 515 956Q526 962 532 971.5Q538 981 540.5 992.5Q543 1004 544 1015ZM397 613 289 313H506ZM553 186H242L170 0H9L331 794H464L786 0H625Z" glyph-name="Atilde" horiz-adv-x="795" unicode="&#195;" /><glyph d="M231 650V464H429Q453 464 472.5 468Q492 472 505.5 482.5Q519 493 526.5 511.5Q534 530 534 559Q534 587 526.5 605Q519 623 505.5 633Q492 643 472.5 646.5Q453 650 429 650ZM437 130Q455 130 477 132.5Q499 135 517.5 145Q536 155 548.5 175Q561 195 561 230Q561 265 550 286Q539 307 521.5 317.5Q504 328 483 331Q462 334 441 334H231V130ZM81 0V780H439Q479 780 522.5 771.5Q566 763 603 739.5Q640 716 664 673.5Q688 631 688 564Q688 503 664.5 464.5Q641 426 612 409Q657 392 686 345.5Q715 299 715 228Q715 157 692.5 112.5Q670 68 632.5 43Q595 18 546.5 9Q498 0 445 0Z" glyph-name="B" horiz-adv-x="767" unicode="B" /><glyph d="M59 390Q59 481 81 555.5Q103 630 148.5 683Q194 736 264.5 765Q335 794 431 794Q501 794 554 779.5Q607 765 645.5 739.5Q684 714 708.5 677.5Q733 641 746 598L614 531Q604 560 589.5 584.5Q575 609 554.5 626.5Q534 644 506 654Q478 664 440 664Q371 664 327 641.5Q283 619 257.5 581.5Q232 544 222 494Q212 444 212 390Q212 336 222 286Q232 236 257.5 198.5Q283 161 327 138.5Q371 116 440 116Q478 116 506 126Q534 136 554.5 153.5Q575 171 589.5 195.5Q604 220 614 249L746 182Q733 138 708.5 102Q684 66 645.5 40.5Q607 15 554 0.5Q501 -14 431 -14Q335 -14 264.5 15Q194 44 148.5 97Q103 150 81 224.5Q59 299 59 390Z" glyph-name="C" horiz-adv-x="796" unicode="C" /><glyph d="M59 390Q59 481 81 555.5Q103 630 148.5 683Q194 736 264.5 765Q335 794 431 794Q501 794 554 779.5Q607 765 645.5 739.5Q684 714 708.5 677.5Q733 641 746 598L614 531Q604 560 589.5 584.5Q575 609 554.5 626.5Q534 644 506 654Q478 664 440 664Q371 664 327 641.5Q283 619 257.5 581.5Q232 544 222 494Q212 444 212 390Q212 336 222 286Q232 236 257.5 198.5Q283 161 327 138.5Q371 116 440 116Q478 116 506 126Q534 136 554.5 153.5Q575 171 589.5 195.5Q604 220 614 249L746 182Q733 138 708.5 102Q684 66 645.5 40.5Q607 15 554 0.5Q501 -14 431 -14Q335 -14 264.5 15Q194 44 148.5 97Q103 150 81 224.5Q59 299 59 390ZM613 1030 494 822H350L451 1030Z" glyph-name="Cacute" horiz-adv-x="804" unicode="&#262;" /><glyph d="M59 390Q59 481 81 555.5Q103 630 148.5 683Q194 736 264.5 765Q335 794 431 794Q501 794 554 779.5Q607 765 645.5 739.5Q684 714 708.5 677.5Q733 641 746 598L614 531Q604 560 589.5 584.5Q575 609 554.5 626.5Q534 644 506 654Q478 664 440 664Q371 664 327 641.5Q283 619 257.5 581.5Q232 544 222 494Q212 444 212 390Q212 336 222 286Q232 236 257.5 198.5Q283 161 327 138.5Q371 116 440 116Q478 116 506 126Q534 136 554.5 153.5Q575 171 589.5 195.5Q604 220 614 249L746 182Q733 138 708.5 102Q684 66 645.5 40.5Q607 15 554 0.5Q501 -14 431 -14Q335 -14 264.5 15Q194 44 148.5 97Q103 150 81 224.5Q59 299 59 390ZM490 822H359L193 1030H341L424 936L508 1030H656Z" glyph-name="Ccaron" horiz-adv-x="804" unicode="&#268;" /><glyph d="M59 390Q59 481 81 555.5Q103 630 148.5 683Q194 736 264.5 765Q335 794 431 794Q501 794 554 779.5Q607 765 645.5 739.5Q684 714 708.5 677.5Q733 641 746 598L614 531Q604 560 589.5 584.5Q575 609 554.5 626.5Q534 644 506 654Q478 664 440 664Q371 664 327 641.5Q283 619 257.5 581.5Q232 544 222 494Q212 444 212 390Q212 336 222 286Q232 236 257.5 198.5Q283 161 327 138.5Q371 116 440 116Q478 116 506 126Q534 136 554.5 153.5Q575 171 589.5 195.5Q604 220 614 249L746 182Q722 102 658.5 49.5Q595 -3 479 -12L472 -35Q490 -39 507 -46Q524 -53 538 -63.5Q552 -74 560.5 -88.5Q569 -103 569 -122Q569 -146 557.5 -163Q546 -180 526 -191.5Q506 -203 478.5 -208.5Q451 -214 420 -214Q375 -214 344.5 -206.5Q314 -199 302 -194L324 -130Q332 -134 341 -137Q357 -143 380 -145Q399 -147 418 -142Q437 -137 437 -119Q437 -101 411.5 -90.5Q386 -80 348 -76L372 -11Q291 -2 232 30Q173 62 134.5 114Q96 166 77.5 236Q59 306 59 390Z" glyph-name="Ccedilla" horiz-adv-x="804" unicode="&#199;" /><glyph d="M59 390Q59 481 81 555.5Q103 630 148.5 683Q194 736 264.5 765Q335 794 431 794Q501 794 554 779.5Q607 765 645.5 739.5Q684 714 708.5 677.5Q733 641 746 598L614 531Q604 560 589.5 584.5Q575 609 554.5 626.5Q534 644 506 654Q478 664 440 664Q371 664 327 641.5Q283 619 257.5 581.5Q232 544 222 494Q212 444 212 390Q212 336 222 286Q232 236 257.5 198.5Q283 161 327 138.5Q371 116 440 116Q478 116 506 126Q534 136 554.5 153.5Q575 171 589.5 195.5Q604 220 614 249L746 182Q733 138 708.5 102Q684 66 645.5 40.5Q607 15 554 0.5Q501 -14 431 -14Q335 -14 264.5 15Q194 44 148.5 97Q103 150 81 224.5Q59 299 59 390ZM359 1030H490L656 822H508L424 916L341 822H193Z" glyph-name="Ccircumflex" horiz-adv-x="804" unicode="&#264;" /><glyph d="M333 922Q333 960 359 986Q385 1012 423 1012Q461 1012 487 986Q513 960 513 922Q513 884 487 858Q461 832 423 832Q385 832 359 858Q333 884 333 922ZM59 390Q59 481 81 555.5Q103 630 148.5 683Q194 736 264.5 765Q335 794 431 794Q501 794 554 779.5Q607 765 645.5 739.5Q684 714 708.5 677.5Q733 641 746 598L614 531Q604 560 589.5 584.5Q575 609 554.5 626.5Q534 644 506 654Q478 664 440 664Q371 664 327 641.5Q283 619 257.5 581.5Q232 544 222 494Q212 444 212 390Q212 336 222 286Q232 236 257.5 198.5Q283 161 327 138.5Q371 116 440 116Q478 116 506 126Q534 136 554.5 153.5Q575 171 589.5 195.5Q604 220 614 249L746 182Q733 138 708.5 102Q684 66 645.5 40.5Q607 15 554 0.5Q501 -14 431 -14Q335 -14 264.5 15Q194 44 148.5 97Q103 150 81 224.5Q59 299 59 390Z" glyph-name="Cdotaccent" horiz-adv-x="804" unicode="&#266;" /><glyph d="M377 130Q442 130 487 148.5Q532 167 559.5 200.5Q587 234 599.5 282Q612 330 612 390Q612 450 599.5 498Q587 546 559.5 579.5Q532 613 487 631.5Q442 650 377 650H231V130ZM81 0V780H377Q568 780 666.5 686Q765 592 765 390Q765 188 666.5 94Q568 0 377 0Z" glyph-name="D" horiz-adv-x="826" unicode="D" /><glyph d="M433 822H302L136 1030H284L367 936L451 1030H599ZM377 130Q442 130 487 148.5Q532 167 559.5 200.5Q587 234 599.5 282Q612 330 612 390Q612 450 599.5 498Q587 546 559.5 579.5Q532 613 487 631.5Q442 650 377 650H231V130ZM81 0V780H377Q568 780 666.5 686Q765 592 765 390Q765 188 666.5 94Q568 0 377 0Z" glyph-name="Dcaron" horiz-adv-x="826" unicode="&#270;" /><glyph d="M408 130Q473 130 518 148.5Q563 167 590.5 200.5Q618 234 630.5 282Q643 330 643 390Q643 450 630.5 498Q618 546 590.5 579.5Q563 613 518 631.5Q473 650 408 650H262V452H461V348H262V130ZM112 0V348H-2V452H112V780H408Q599 780 697.5 686Q796 592 796 390Q796 188 697.5 94Q599 0 408 0Z" glyph-name="Dcroat" horiz-adv-x="857" unicode="&#272;" /><glyph d="M404 437 247 131 369 132H553L674 131L517 437L461 555ZM54 67 415 777H507L868 67V0H54Z" glyph-name="Delta" horiz-adv-x="921" unicode="&#8710;" /><glyph d="M674 780V650H231V464H624V334H231V130H694V0H81V780Z" glyph-name="E" horiz-adv-x="759" unicode="E" /><glyph d="M566 1030 447 822H303L404 1030ZM674 780V650H231V464H624V334H231V130H694V0H81V780Z" glyph-name="Eacute" horiz-adv-x="759" unicode="&#201;" /><glyph d="M590 1030Q591 979 580 939Q569 899 544 872Q519 845 478 830.5Q437 816 377 816Q317 816 276 830.5Q235 845 210 872Q185 899 174 939Q163 979 164 1030H279Q277 979 300.5 958Q324 937 377 937Q430 937 453.5 958Q477 979 476 1030ZM674 780V650H231V464H624V334H231V130H694V0H81V780Z" glyph-name="Ebreve" horiz-adv-x="759" unicode="&#276;" /><glyph d="M442 822H312L146 1030H294L377 936L461 1030H609ZM674 780V650H231V464H624V334H231V130H694V0H81V780Z" glyph-name="Ecaron" horiz-adv-x="759" unicode="&#282;" /><glyph d="M312 1030H442L609 822H461L377 916L294 822H146ZM674 780V650H231V464H624V334H231V130H694V0H81V780Z" glyph-name="Ecircumflex" horiz-adv-x="759" unicode="&#202;" /><glyph d="M402 922Q402 960 428 986Q454 1012 492 1012Q530 1012 556 986Q582 960 582 922Q582 884 556 858Q530 832 492 832Q454 832 428 858Q402 884 402 922ZM172 922Q172 960 198 986Q224 1012 262 1012Q300 1012 326 986Q352 960 352 922Q352 884 326 858Q300 832 262 832Q224 832 198 858Q172 884 172 922ZM674 780V650H231V464H624V334H231V130H694V0H81V780Z" glyph-name="Edieresis" horiz-adv-x="759" unicode="&#203;" /><glyph d="M285 922Q285 960 311 986Q337 1012 375 1012Q413 1012 439 986Q465 960 465 922Q465 884 439 858Q413 832 375 832Q337 832 311 858Q285 884 285 922ZM674 780V650H231V464H624V334H231V130H694V0H81V780Z" glyph-name="Edotaccent" horiz-adv-x="759" unicode="&#278;" /><glyph d="M354 1030 454 822H311L192 1030ZM674 780V650H231V464H624V334H231V130H694V0H81V780Z" glyph-name="Egrave" horiz-adv-x="759" unicode="&#200;" /><glyph d="M212 990H542V865H212ZM674 780V650H231V464H624V334H231V130H694V0H81V780Z" glyph-name="Emacron" horiz-adv-x="759" unicode="&#274;" /><glyph d="M588 16 312 402 229 522 231 335V0H81V780H220L508 378L590 258L588 445V780H738V-2Q738 -43 729.5 -81Q721 -119 696.5 -148.5Q672 -178 628.5 -196Q585 -214 515 -214Q483 -214 456.5 -209Q430 -204 415 -198L429 -66Q439 -71 462 -78.5Q485 -86 511 -84Q531 -83 545.5 -79Q560 -75 569.5 -65Q579 -55 583.5 -37.5Q588 -20 588 8Z" glyph-name="Eng" horiz-adv-x="820" unicode="&#330;" /><glyph d="M674 780V650H231V464H624V334H231V130H694V0Q668 -3 646 -11Q624 -19 607.5 -30Q591 -41 581.5 -55Q572 -69 572 -82Q572 -95 580.5 -105.5Q589 -116 612 -116Q623 -116 634.5 -113Q646 -110 655 -106.5Q664 -103 669.5 -100Q675 -97 675 -97L706 -189Q689 -199 660 -206.5Q631 -214 595 -214Q530 -214 493 -182.5Q456 -151 456 -93Q457 -40 496 0H81V780Z" glyph-name="Eogonek" horiz-adv-x="759" unicode="&#280;" /><glyph d="M408 130Q473 130 518 148.5Q563 167 590.5 200.5Q618 234 630.5 282Q643 330 643 390Q643 450 630.5 498Q618 546 590.5 579.5Q563 613 518 631.5Q473 650 408 650H262V452H461V348H262V130ZM112 0V348H-2V452H112V780H408Q599 780 697.5 686Q796 592 796 390Q796 188 697.5 94Q599 0 408 0Z" glyph-name="Eth" horiz-adv-x="857" unicode="&#208;" /><glyph d="M291 259Q307 190 353 152Q399 114 472 114Q513 114 542 124Q571 134 591 151Q611 168 624.5 190.5Q638 213 647 239L780 174Q766 133 741 99Q716 65 678.5 39.5Q641 14 590.5 0Q540 -14 475 -14Q330 -14 245.5 58Q161 130 136 259H27V356H125Q124 359 124 363V382V401Q124 405 125 408H27V505H136Q161 634 245.5 706Q330 778 475 778Q540 778 590.5 764Q641 750 678.5 724.5Q716 699 741 664.5Q766 630 780 590L647 525Q638 551 624.5 573.5Q611 596 591 613Q571 630 542 640Q513 650 472 650Q399 650 353 612Q307 574 291 505H585L551 408H279Q278 405 278 401Q277 396 277 382Q277 376 277 371Q277 366 278 363Q278 359 279 356H534L499 259Z" glyph-name="Euro" horiz-adv-x="835" unicode="&#8364;" /><glyph d="M231 0H81V780H652V650H231V464H601V334H231Z" glyph-name="F" horiz-adv-x="690" unicode="F" /><glyph d="M632 536Q614 603 564.5 633.5Q515 664 440 664Q377 664 333.5 641.5Q290 619 263 581.5Q236 544 224 494Q212 444 212 390Q212 336 224 286Q236 236 263.5 198.5Q291 161 335.5 138.5Q380 116 444 116Q506 116 546.5 126Q587 136 613 152V309H442V434H762V72Q693 27 615 6.5Q537 -14 444 -14Q348 -14 275.5 15Q203 44 155 96.5Q107 149 83 223.5Q59 298 59 390Q59 481 82.5 555.5Q106 630 154 683Q202 736 273.5 765Q345 794 441 794Q572 794 654.5 742Q737 690 763 600Z" glyph-name="G" horiz-adv-x="846" unicode="G" /><glyph d="M632 536Q614 603 564.5 633.5Q515 664 440 664Q377 664 333.5 641.5Q290 619 263 581.5Q236 544 224 494Q212 444 212 390Q212 336 224 286Q236 236 263.5 198.5Q291 161 335.5 138.5Q380 116 444 116Q506 116 546.5 126Q587 136 613 152V309H442V434H762V72Q693 27 615 6.5Q537 -14 444 -14Q348 -14 275.5 15Q203 44 155 96.5Q107 149 83 223.5Q59 298 59 390Q59 481 82.5 555.5Q106 630 154 683Q202 736 273.5 765Q345 794 441 794Q572 794 654.5 742Q737 690 763 600ZM641 1030Q642 979 631 939Q620 899 594.5 872Q569 845 528 830.5Q487 816 427 816Q367 816 326 830.5Q285 845 260 872Q235 899 224 939Q213 979 214 1030H329Q328 979 351.5 958Q375 937 427 937Q480 937 503.5 958Q527 979 526 1030Z" glyph-name="Gbreve" horiz-adv-x="846" unicode="&#286;" /><glyph d="M632 536Q614 603 564.5 633.5Q515 664 440 664Q377 664 333.5 641.5Q290 619 263 581.5Q236 544 224 494Q212 444 212 390Q212 336 224 286Q236 236 263.5 198.5Q291 161 335.5 138.5Q380 116 444 116Q506 116 546.5 126Q587 136 613 152V309H442V434H762V72Q693 27 615 6.5Q537 -14 444 -14Q348 -14 275.5 15Q203 44 155 96.5Q107 149 83 223.5Q59 298 59 390Q59 481 82.5 555.5Q106 630 154 683Q202 736 273.5 765Q345 794 441 794Q572 794 654.5 742Q737 690 763 600ZM362 1030H493L659 822H511L427 916L344 822H196Z" glyph-name="Gcircumflex" horiz-adv-x="846" unicode="&#284;" /><glyph d="M632 536Q614 603 564.5 633.5Q515 664 440 664Q377 664 333.5 641.5Q290 619 263 581.5Q236 544 224 494Q212 444 212 390Q212 336 224 286Q236 236 263.5 198.5Q291 161 335.5 138.5Q380 116 444 116Q506 116 546.5 126Q587 136 613 152V309H442V434H762V72Q693 27 615 6.5Q537 -14 444 -14Q348 -14 275.5 15Q203 44 155 96.5Q107 149 83 223.5Q59 298 59 390Q59 481 82.5 555.5Q106 630 154 683Q202 736 273.5 765Q345 794 441 794Q572 794 654.5 742Q737 690 763 600ZM333 -200 348 -62H511L467 -200Z" glyph-name="Gcommaaccent" horiz-adv-x="846" unicode="&#290;" /><glyph d="M632 536Q614 603 564.5 633.5Q515 664 440 664Q377 664 333.5 641.5Q290 619 263 581.5Q236 544 224 494Q212 444 212 390Q212 336 224 286Q236 236 263.5 198.5Q291 161 335.5 138.5Q380 116 444 116Q506 116 546.5 126Q587 136 613 152V309H442V434H762V72Q693 27 615 6.5Q537 -14 444 -14Q348 -14 275.5 15Q203 44 155 96.5Q107 149 83 223.5Q59 298 59 390Q59 481 82.5 555.5Q106 630 154 683Q202 736 273.5 765Q345 794 441 794Q572 794 654.5 742Q737 690 763 600ZM337 922Q337 960 363 986Q389 1012 427 1012Q465 1012 491 986Q517 960 517 922Q517 884 491 858Q465 832 427 832Q389 832 363 858Q337 884 337 922Z" glyph-name="Gdotaccent" horiz-adv-x="846" unicode="&#288;" /><glyph d="M733 780V0H583V334H231V0H81V780H231V464H583V780Z" glyph-name="H" horiz-adv-x="814" unicode="H" /><glyph d="M583 464V556H231V464ZM733 780V0H583V334H231V0H81V780H231V660H583V780Z" glyph-name="Hbar" horiz-adv-x="814" unicode="&#294;" /><glyph d="M342 1030H472L639 822H491L407 916L324 822H176ZM733 780V0H583V334H231V0H81V780H231V464H583V780Z" glyph-name="Hcircumflex" horiz-adv-x="814" unicode="&#292;" /><glyph d="M246 0H96V780H246Z" glyph-name="I" horiz-adv-x="343" unicode="I" /><glyph d="M246 0H96V780H246ZM435 118Q475 119 495.5 137Q516 155 516 209V780H667V200Q667 159 657.5 120.5Q648 82 623 52Q598 22 553.5 4Q509 -14 439 -14Q406 -14 380 -10Q354 -6 339 0L351 134Q361 128 385 122Q409 116 435 118Z" glyph-name="IJ" horiz-adv-x="744" unicode="&#306;" /><glyph d="M365 1030 246 822H103L204 1030ZM246 0H96V780H246Z" glyph-name="Iacute" horiz-adv-x="343" unicode="&#205;" /><glyph d="M385 1030Q386 979 375 939Q364 899 338.5 872Q313 845 272 830.5Q231 816 171 816Q111 816 70 830.5Q29 845 4 872Q-21 899 -32 939Q-43 979 -42 1030H73Q72 979 95.5 958Q119 937 171 937Q224 937 247.5 958Q271 979 270 1030ZM246 0H96V780H246Z" glyph-name="Ibreve" horiz-adv-x="343" unicode="&#300;" /><glyph d="M106 1030H237L403 822H255L171 916L88 822H-60ZM246 0H96V780H246Z" glyph-name="Icircumflex" horiz-adv-x="343" unicode="&#206;" /><glyph d="M196 922Q196 960 222 986Q248 1012 286 1012Q324 1012 350 986Q376 960 376 922Q376 884 350 858Q324 832 286 832Q248 832 222 858Q196 884 196 922ZM-34 922Q-34 960 -8 986Q18 1012 56 1012Q94 1012 120 986Q146 960 146 922Q146 884 120 858Q94 832 56 832Q18 832 -8 858Q-34 884 -34 922ZM246 0H96V780H246Z" glyph-name="Idieresis" horiz-adv-x="343" unicode="&#207;" /><glyph d="M81 922Q81 960 107 986Q133 1012 171 1012Q209 1012 235 986Q261 960 261 922Q261 884 235 858Q209 832 171 832Q133 832 107 858Q81 884 81 922ZM246 0H96V780H246Z" glyph-name="Idotaccent" horiz-adv-x="343" unicode="&#304;" /><glyph d="M139 1030 240 822H96L-22 1030ZM246 0H96V780H246Z" glyph-name="Igrave" horiz-adv-x="343" unicode="&#204;" /><glyph d="M6 990H336V865H6ZM246 0H96V780H246Z" glyph-name="Imacron" horiz-adv-x="343" unicode="&#298;" /><glyph d="M246 0Q198 -8 170 -33Q142 -58 142 -84Q142 -96 150.5 -106Q159 -116 181 -116Q197 -116 211.5 -112Q226 -108 237 -103Q248 -98 255.5 -93.5Q263 -89 265 -87L295 -181Q272 -197 238 -205.5Q204 -214 164 -214Q104 -214 65.5 -185.5Q27 -157 27 -95Q27 -22 96 28V780H246Z" glyph-name="Iogonek" horiz-adv-x="343" unicode="&#302;" /><glyph d="M435 1002Q427 914 384.5 868.5Q342 823 257 825Q218 826 193 837.5Q168 849 149.5 863Q131 877 115.5 889Q100 901 81 901Q63 902 52.5 896Q42 890 36 880.5Q30 871 27.5 859Q25 847 24 837L-93 850Q-86 938 -43 983.5Q0 1029 85 1027Q124 1026 149 1014.5Q174 1003 192.5 989Q211 975 226 963Q241 951 260 951Q278 950 288.5 956Q299 962 305.5 971.5Q312 981 314.5 992.5Q317 1004 318 1015ZM246 0H96V780H246Z" glyph-name="Itilde" horiz-adv-x="343" unicode="&#296;" /><glyph d="M149 212Q161 165 185 140Q209 115 265 115Q319 115 344 140.5Q369 166 369 214V780H519V221Q519 169 505 126Q491 83 461 52Q431 21 383 3.5Q335 -14 267 -14Q202 -14 158 -0.5Q114 13 85.5 35.5Q57 58 41.5 87Q26 116 18 148Z" glyph-name="J" horiz-adv-x="595" unicode="J" /><glyph d="M149 212Q161 165 185 140Q209 115 265 115Q319 115 344 140.5Q369 166 369 214V780H519V221Q519 169 505 126Q491 83 461 52Q431 21 383 3.5Q335 -14 267 -14Q202 -14 158 -0.5Q114 13 85.5 35.5Q57 58 41.5 87Q26 116 18 148ZM378 1030H509L675 822H527L444 916L360 822H212Z" glyph-name="Jcircumflex" horiz-adv-x="595" unicode="&#308;" /><glyph d="M231 334V0H81V780H231V464H324L572 780H767L456 398L781 0H586L324 334Z" glyph-name="K" horiz-adv-x="795" unicode="K" /><glyph d="M231 334V0H81V780H231V464H324L572 780H767L456 398L781 0H586L324 334ZM305 -200 320 -62H483L439 -200Z" glyph-name="Kcommaaccent" horiz-adv-x="795" unicode="&#310;" /><glyph d="M231 130H628V0H81V780H231Z" glyph-name="L" horiz-adv-x="649" unicode="L" /><glyph d="M350 1030 231 822H88L189 1030ZM231 130H628V0H81V780H231Z" glyph-name="Lacute" horiz-adv-x="649" unicode="&#313;" /><glyph d="M389 592 439 800H594L520 592ZM231 130H628V0H81V780H231Z" glyph-name="Lcaron" horiz-adv-x="649" unicode="&#317;" /><glyph d="M259 -200 274 -62H437L393 -200ZM231 130H628V0H81V780H231Z" glyph-name="Lcommaaccent" horiz-adv-x="649" unicode="&#315;" /><glyph d="M400 399Q400 437 426 463Q452 489 490 489Q528 489 554 463Q580 437 580 399Q580 361 554 335Q528 309 490 309Q452 309 426 335Q400 361 400 399ZM231 130H628V0H81V780H231Z" glyph-name="Ldot" horiz-adv-x="649" unicode="&#319;" /><glyph d="M242 310V130H639V0H92V240L12 203V315L92 352V780H242V422L494 540V428Z" glyph-name="Lslash" horiz-adv-x="660" unicode="&#321;" /><glyph d="M427 0 273 390 227 513 228 298V0H81V780H256L429 355L485 208L542 355L715 780H889V0H742V298L744 513L697 390L543 0Z" glyph-name="M" horiz-adv-x="971" unicode="M" /><glyph d="M312 402 229 522 231 335V0H81V780H220L508 378L590 258L588 445V780H738V0H600Z" glyph-name="N" horiz-adv-x="820" unicode="N" /><glyph d="M598 1030 479 822H335L436 1030ZM312 402 229 522 231 335V0H81V780H220L508 378L590 258L588 445V780H738V0H600Z" glyph-name="Nacute" horiz-adv-x="820" unicode="&#323;" /><glyph d="M475 822H344L178 1030H326L409 936L493 1030H641ZM312 402 229 522 231 335V0H81V780H220L508 378L590 258L588 445V780H738V0H600Z" glyph-name="Ncaron" horiz-adv-x="820" unicode="&#327;" /><glyph d="M315 -200 330 -62H493L449 -200ZM312 402 229 522 231 335V0H81V780H220L508 378L590 258L588 445V780H738V0H600Z" glyph-name="Ncommaaccent" horiz-adv-x="820" unicode="&#325;" /><glyph d="M673 1002Q665 914 622 868.5Q579 823 495 825Q456 826 431 837.5Q406 849 387.5 863Q369 877 353.5 889Q338 901 319 901Q301 902 290.5 896Q280 890 274 880.5Q268 871 265 859Q262 847 261 837L145 850Q152 938 195 983.5Q238 1029 322 1027Q361 1026 386 1014.5Q411 1003 429.5 989Q448 975 463.5 963Q479 951 498 951Q516 950 526.5 956Q537 962 543.5 971.5Q550 981 552.5 992.5Q555 1004 556 1015ZM312 402 229 522 231 335V0H81V780H220L508 378L590 258L588 445V780H738V0H600Z" glyph-name="Ntilde" horiz-adv-x="820" unicode="&#209;" /><glyph d="M434 664Q367 664 323.5 642Q280 620 255 582.5Q230 545 220.5 495Q211 445 211 390Q211 334 220.5 284.5Q230 235 255 197.5Q280 160 323.5 138Q367 116 434 116Q501 116 544 138Q587 160 612 197.5Q637 235 646.5 284.5Q656 334 656 390Q656 445 646.5 495Q637 545 612 582.5Q587 620 544 642Q501 664 434 664ZM434 -14Q335 -14 264 14.5Q193 43 147.5 95.5Q102 148 80.5 223Q59 298 59 390Q59 482 80.5 557Q102 632 147.5 684.5Q193 737 264 765.5Q335 794 434 794Q533 794 604 765.5Q675 737 720.5 684.5Q766 632 787.5 557Q809 482 809 390Q809 298 787.5 223Q766 148 720.5 95.5Q675 43 604 14.5Q533 -14 434 -14Z" glyph-name="O" horiz-adv-x="868" unicode="O" /><glyph d="M449 650Q384 650 339 631.5Q294 613 266 579.5Q238 546 226 498Q214 450 214 390Q214 330 226 282Q238 234 266 200.5Q294 167 339 148.5Q384 130 449 130H552V650ZM1112 780V650H702V464H1062V334H702V130H1132V0H449Q258 0 159.5 94Q61 188 61 390Q61 592 159.5 686Q258 780 449 780Z" glyph-name="OE" horiz-adv-x="1197" unicode="&#338;" /><glyph d="M622 1030 504 822H360L461 1030ZM434 664Q367 664 323.5 642Q280 620 255 582.5Q230 545 220.5 495Q211 445 211 390Q211 334 220.5 284.5Q230 235 255 197.5Q280 160 323.5 138Q367 116 434 116Q501 116 544 138Q587 160 612 197.5Q637 235 646.5 284.5Q656 334 656 390Q656 445 646.5 495Q637 545 612 582.5Q587 620 544 642Q501 664 434 664ZM434 -14Q335 -14 264 14.5Q193 43 147.5 95.5Q102 148 80.5 223Q59 298 59 390Q59 482 80.5 557Q102 632 147.5 684.5Q193 737 264 765.5Q335 794 434 794Q533 794 604 765.5Q675 737 720.5 684.5Q766 632 787.5 557Q809 482 809 390Q809 298 787.5 223Q766 148 720.5 95.5Q675 43 604 14.5Q533 -14 434 -14Z" glyph-name="Oacute" horiz-adv-x="868" unicode="&#211;" /><glyph d="M647 1030Q648 979 637 939Q626 899 601 872Q576 845 535 830.5Q494 816 434 816Q374 816 333 830.5Q292 845 267 872Q242 899 231 939Q220 979 221 1030H335Q334 979 357.5 958Q381 937 434 937Q487 937 510.5 958Q534 979 532 1030ZM434 664Q367 664 323.5 642Q280 620 255 582.5Q230 545 220.5 495Q211 445 211 390Q211 334 220.5 284.5Q230 235 255 197.5Q280 160 323.5 138Q367 116 434 116Q501 116 544 138Q587 160 612 197.5Q637 235 646.5 284.5Q656 334 656 390Q656 445 646.5 495Q637 545 612 582.5Q587 620 544 642Q501 664 434 664ZM434 -14Q335 -14 264 14.5Q193 43 147.5 95.5Q102 148 80.5 223Q59 298 59 390Q59 482 80.5 557Q102 632 147.5 684.5Q193 737 264 765.5Q335 794 434 794Q533 794 604 765.5Q675 737 720.5 684.5Q766 632 787.5 557Q809 482 809 390Q809 298 787.5 223Q766 148 720.5 95.5Q675 43 604 14.5Q533 -14 434 -14Z" glyph-name="Obreve" horiz-adv-x="868" unicode="&#334;" /><glyph d="M369 1030H499L665 822H517L434 916L350 822H202ZM434 664Q367 664 323.5 642Q280 620 255 582.5Q230 545 220.5 495Q211 445 211 390Q211 334 220.5 284.5Q230 235 255 197.5Q280 160 323.5 138Q367 116 434 116Q501 116 544 138Q587 160 612 197.5Q637 235 646.5 284.5Q656 334 656 390Q656 445 646.5 495Q637 545 612 582.5Q587 620 544 642Q501 664 434 664ZM434 -14Q335 -14 264 14.5Q193 43 147.5 95.5Q102 148 80.5 223Q59 298 59 390Q59 482 80.5 557Q102 632 147.5 684.5Q193 737 264 765.5Q335 794 434 794Q533 794 604 765.5Q675 737 720.5 684.5Q766 632 787.5 557Q809 482 809 390Q809 298 787.5 223Q766 148 720.5 95.5Q675 43 604 14.5Q533 -14 434 -14Z" glyph-name="Ocircumflex" horiz-adv-x="868" unicode="&#212;" /><glyph d="M459 922Q459 960 485 986Q511 1012 549 1012Q587 1012 613 986Q639 960 639 922Q639 884 613 858Q587 832 549 832Q511 832 485 858Q459 884 459 922ZM229 922Q229 960 255 986Q281 1012 319 1012Q357 1012 383 986Q409 960 409 922Q409 884 383 858Q357 832 319 832Q281 832 255 858Q229 884 229 922ZM434 664Q367 664 323.5 642Q280 620 255 582.5Q230 545 220.5 495Q211 445 211 390Q211 334 220.5 284.5Q230 235 255 197.5Q280 160 323.5 138Q367 116 434 116Q501 116 544 138Q587 160 612 197.5Q637 235 646.5 284.5Q656 334 656 390Q656 445 646.5 495Q637 545 612 582.5Q587 620 544 642Q501 664 434 664ZM434 -14Q335 -14 264 14.5Q193 43 147.5 95.5Q102 148 80.5 223Q59 298 59 390Q59 482 80.5 557Q102 632 147.5 684.5Q193 737 264 765.5Q335 794 434 794Q533 794 604 765.5Q675 737 720.5 684.5Q766 632 787.5 557Q809 482 809 390Q809 298 787.5 223Q766 148 720.5 95.5Q675 43 604 14.5Q533 -14 434 -14Z" glyph-name="Odieresis" horiz-adv-x="868" unicode="&#214;" /><glyph d="M410 1030 511 822H367L249 1030ZM434 664Q367 664 323.5 642Q280 620 255 582.5Q230 545 220.5 495Q211 445 211 390Q211 334 220.5 284.5Q230 235 255 197.5Q280 160 323.5 138Q367 116 434 116Q501 116 544 138Q587 160 612 197.5Q637 235 646.5 284.5Q656 334 656 390Q656 445 646.5 495Q637 545 612 582.5Q587 620 544 642Q501 664 434 664ZM434 -14Q335 -14 264 14.5Q193 43 147.5 95.5Q102 148 80.5 223Q59 298 59 390Q59 482 80.5 557Q102 632 147.5 684.5Q193 737 264 765.5Q335 794 434 794Q533 794 604 765.5Q675 737 720.5 684.5Q766 632 787.5 557Q809 482 809 390Q809 298 787.5 223Q766 148 720.5 95.5Q675 43 604 14.5Q533 -14 434 -14Z" glyph-name="Ograve" horiz-adv-x="868" unicode="&#210;" /><glyph d="M724 1030 605 822H462L562 1030ZM525 1030 406 822H261L362 1030ZM434 664Q367 664 323.5 642Q280 620 255 582.5Q230 545 220.5 495Q211 445 211 390Q211 334 220.5 284.5Q230 235 255 197.5Q280 160 323.5 138Q367 116 434 116Q501 116 544 138Q587 160 612 197.5Q637 235 646.5 284.5Q656 334 656 390Q656 445 646.5 495Q637 545 612 582.5Q587 620 544 642Q501 664 434 664ZM434 -14Q335 -14 264 14.5Q193 43 147.5 95.5Q102 148 80.5 223Q59 298 59 390Q59 482 80.5 557Q102 632 147.5 684.5Q193 737 264 765.5Q335 794 434 794Q533 794 604 765.5Q675 737 720.5 684.5Q766 632 787.5 557Q809 482 809 390Q809 298 787.5 223Q766 148 720.5 95.5Q675 43 604 14.5Q533 -14 434 -14Z" glyph-name="Ohungarumlaut" horiz-adv-x="868" unicode="&#336;" /><glyph d="M269 990H599V865H269ZM434 664Q367 664 323.5 642Q280 620 255 582.5Q230 545 220.5 495Q211 445 211 390Q211 334 220.5 284.5Q230 235 255 197.5Q280 160 323.5 138Q367 116 434 116Q501 116 544 138Q587 160 612 197.5Q637 235 646.5 284.5Q656 334 656 390Q656 445 646.5 495Q637 545 612 582.5Q587 620 544 642Q501 664 434 664ZM434 -14Q335 -14 264 14.5Q193 43 147.5 95.5Q102 148 80.5 223Q59 298 59 390Q59 482 80.5 557Q102 632 147.5 684.5Q193 737 264 765.5Q335 794 434 794Q533 794 604 765.5Q675 737 720.5 684.5Q766 632 787.5 557Q809 482 809 390Q809 298 787.5 223Q766 148 720.5 95.5Q675 43 604 14.5Q533 -14 434 -14Z" glyph-name="Omacron" horiz-adv-x="868" unicode="&#332;" /><glyph d="M434 116Q501 116 544.5 138Q588 160 613 197.5Q638 235 647.5 284.5Q657 334 657 390Q657 434 651.5 474Q646 514 632 547L333 134Q354 126 379 121Q404 116 434 116ZM434 664Q367 664 323.5 642Q280 620 255 582.5Q230 545 220.5 495Q211 445 211 390Q211 346 216.5 306Q222 266 236 233L535 646Q514 654 489 659Q464 664 434 664ZM434 -14Q335 -14 264 14.5Q193 43 147.5 95.5Q102 148 80.5 223Q59 298 59 390Q59 482 80.5 557Q102 632 147.5 684.5Q193 737 264 765.5Q335 794 434 794Q533 794 604 765.5Q675 737 720.5 684.5Q766 632 787.5 557Q809 482 809 390Q809 298 787.5 223Q766 148 720.5 95.5Q675 43 604 14.5Q533 -14 434 -14Z" glyph-name="Oslash" horiz-adv-x="868" unicode="&#216;" /><glyph d="M697 1002Q690 914 647 868.5Q604 823 520 825Q481 826 456 837.5Q431 849 412.5 863Q394 877 378.5 889Q363 901 344 901Q326 902 315.5 896Q305 890 298.5 880.5Q292 871 289.5 859Q287 847 286 837L169 850Q177 938 220 983.5Q263 1029 347 1027Q386 1026 411 1014.5Q436 1003 454.5 989Q473 975 488 963Q503 951 523 951Q541 950 551.5 956Q562 962 568 971.5Q574 981 576.5 992.5Q579 1004 581 1015ZM434 664Q367 664 323.5 642Q280 620 255 582.5Q230 545 220.5 495Q211 445 211 390Q211 334 220.5 284.5Q230 235 255 197.5Q280 160 323.5 138Q367 116 434 116Q501 116 544 138Q587 160 612 197.5Q637 235 646.5 284.5Q656 334 656 390Q656 445 646.5 495Q637 545 612 582.5Q587 620 544 642Q501 664 434 664ZM434 -14Q335 -14 264 14.5Q193 43 147.5 95.5Q102 148 80.5 223Q59 298 59 390Q59 482 80.5 557Q102 632 147.5 684.5Q193 737 264 765.5Q335 794 434 794Q533 794 604 765.5Q675 737 720.5 684.5Q766 632 787.5 557Q809 482 809 390Q809 298 787.5 223Q766 148 720.5 95.5Q675 43 604 14.5Q533 -14 434 -14Z" glyph-name="Otilde" horiz-adv-x="868" unicode="&#213;" /><glyph d="M530 537Q530 574 518.5 596.5Q507 619 489.5 631Q472 643 450.5 646.5Q429 650 410 650H231V424H410Q429 424 450.5 427.5Q472 431 489.5 443Q507 455 518.5 477.5Q530 500 530 537ZM231 0H81V780H399Q451 780 502.5 769.5Q554 759 594.5 731.5Q635 704 660 657Q685 610 685 537Q685 463 660 416Q635 369 595 341.5Q555 314 503.5 303.5Q452 293 400 293H231Z" glyph-name="P" horiz-adv-x="717" unicode="P" /><glyph d="M434 664Q367 664 323.5 642Q280 620 255 582.5Q230 545 220.5 495Q211 445 211 390Q211 334 220.5 284.5Q230 235 255 197.5Q280 160 323.5 138Q367 116 434 116Q501 116 544 138Q587 160 612 197.5Q637 235 646.5 284.5Q656 334 656 390Q656 445 646.5 495Q637 545 612 582.5Q587 620 544 642Q501 664 434 664ZM591 -214Q528 -214 484 -198Q440 -182 413 -154.5Q386 -127 374 -89.5Q362 -52 361 -9Q281 1 224 33Q167 65 130 117Q93 169 76 238Q59 307 59 390Q59 482 80.5 557Q102 632 147.5 684.5Q193 737 264 765.5Q335 794 434 794Q533 794 604 765.5Q675 737 720.5 684.5Q766 632 787.5 557Q809 482 809 390Q809 307 791.5 238Q774 169 737.5 117.5Q701 66 644 33.5Q587 1 508 -9Q510 -35 518.5 -50Q527 -65 540.5 -73.5Q554 -82 571 -84.5Q588 -87 606 -87Q622 -87 638 -85Q654 -83 669 -79.5Q684 -76 696 -72Q708 -68 715 -64L733 -191Q718 -197 682 -205.5Q646 -214 591 -214Z" glyph-name="Q" horiz-adv-x="868" unicode="Q" /><glyph d="M436 437Q456 437 477.5 440Q499 443 516.5 453.5Q534 464 545.5 485.5Q557 507 557 543Q557 580 545.5 601Q534 622 516.5 633Q499 644 477.5 647Q456 650 436 650H231V437ZM231 0H81V780H426Q480 780 531.5 770Q583 760 622.5 733.5Q662 707 686 661Q710 615 710 543Q710 491 697.5 453Q685 415 663 388.5Q641 362 610.5 346Q580 330 545 321L748 0H572L385 306H231Z" glyph-name="R" horiz-adv-x="778" unicode="R" /><glyph d="M558 1030 439 822H296L396 1030ZM436 437Q456 437 477.5 440Q499 443 516.5 453.5Q534 464 545.5 485.5Q557 507 557 543Q557 580 545.5 601Q534 622 516.5 633Q499 644 477.5 647Q456 650 436 650H231V437ZM231 0H81V780H426Q480 780 531.5 770Q583 760 622.5 733.5Q662 707 686 661Q710 615 710 543Q710 491 697.5 453Q685 415 663 388.5Q641 362 610.5 346Q580 330 545 321L748 0H572L385 306H231Z" glyph-name="Racute" horiz-adv-x="777" unicode="&#340;" /><glyph d="M435 822H304L138 1030H286L370 936L453 1030H601ZM436 437Q456 437 477.5 440Q499 443 516.5 453.5Q534 464 545.5 485.5Q557 507 557 543Q557 580 545.5 601Q534 622 516.5 633Q499 644 477.5 647Q456 650 436 650H231V437ZM231 0H81V780H426Q480 780 531.5 770Q583 760 622.5 733.5Q662 707 686 661Q710 615 710 543Q710 491 697.5 453Q685 415 663 388.5Q641 362 610.5 346Q580 330 545 321L748 0H572L385 306H231Z" glyph-name="Rcaron" horiz-adv-x="777" unicode="&#344;" /><glyph d="M296 -200 311 -62H474L430 -200ZM436 437Q456 437 477.5 440Q499 443 516.5 453.5Q534 464 545.5 485.5Q557 507 557 543Q557 580 545.5 601Q534 622 516.5 633Q499 644 477.5 647Q456 650 436 650H231V437ZM231 0H81V780H426Q480 780 531.5 770Q583 760 622.5 733.5Q662 707 686 661Q710 615 710 543Q710 491 697.5 453Q685 415 663 388.5Q641 362 610.5 346Q580 330 545 321L748 0H572L385 306H231Z" glyph-name="Rcommaaccent" horiz-adv-x="777" unicode="&#342;" /><glyph d="M580 543Q568 576 552 599Q536 622 512.5 636.5Q489 651 457.5 657.5Q426 664 384 664Q363 664 336.5 659.5Q310 655 286.5 643Q263 631 247.5 610Q232 589 232 556Q233 536 240.5 521Q248 506 266 495.5Q284 485 315 478Q346 471 394 467Q470 460 530.5 448.5Q591 437 632.5 412Q674 387 696 344Q718 301 718 232Q718 167 690 120.5Q662 74 616 44Q570 14 511 0Q452 -14 389 -14Q314 -14 258.5 -1Q203 12 163.5 36.5Q124 61 98 96Q72 131 56 176L186 239Q209 173 256 144.5Q303 116 384 116Q418 116 451 122Q484 128 510.5 142Q537 156 553 178Q569 200 569 232Q569 257 560 275.5Q551 294 530 307Q509 320 474 328Q439 336 387 341Q330 345 275 356Q220 367 177.5 390.5Q135 414 108.5 454Q82 494 82 557Q82 618 106.5 663Q131 708 173 737Q215 766 270 780Q325 794 386 794Q457 794 511 781Q565 768 604 744Q643 720 669 685.5Q695 651 712 607Z" glyph-name="S" horiz-adv-x="775" unicode="S" /><glyph d="M580 543Q568 576 552 599Q536 622 512.5 636.5Q489 651 457.5 657.5Q426 664 384 664Q363 664 336.5 659.5Q310 655 286.5 643Q263 631 247.5 610Q232 589 232 556Q233 536 240.5 521Q248 506 266 495.5Q284 485 315 478Q346 471 394 467Q470 460 530.5 448.5Q591 437 632.5 412Q674 387 696 344Q718 301 718 232Q718 167 690 120.5Q662 74 616 44Q570 14 511 0Q452 -14 389 -14Q314 -14 258.5 -1Q203 12 163.5 36.5Q124 61 98 96Q72 131 56 176L186 239Q209 173 256 144.5Q303 116 384 116Q418 116 451 122Q484 128 510.5 142Q537 156 553 178Q569 200 569 232Q569 257 560 275.5Q551 294 530 307Q509 320 474 328Q439 336 387 341Q330 345 275 356Q220 367 177.5 390.5Q135 414 108.5 454Q82 494 82 557Q82 618 106.5 663Q131 708 173 737Q215 766 270 780Q325 794 386 794Q457 794 511 781Q565 768 604 744Q643 720 669 685.5Q695 651 712 607ZM579 1030 460 822H316L417 1030Z" glyph-name="Sacute" horiz-adv-x="775" unicode="&#346;" /><glyph d="M580 543Q568 576 552 599Q536 622 512.5 636.5Q489 651 457.5 657.5Q426 664 384 664Q363 664 336.5 659.5Q310 655 286.5 643Q263 631 247.5 610Q232 589 232 556Q233 536 240.5 521Q248 506 266 495.5Q284 485 315 478Q346 471 394 467Q470 460 530.5 448.5Q591 437 632.5 412Q674 387 696 344Q718 301 718 232Q718 167 690 120.5Q662 74 616 44Q570 14 511 0Q452 -14 389 -14Q314 -14 258.5 -1Q203 12 163.5 36.5Q124 61 98 96Q72 131 56 176L186 239Q209 173 256 144.5Q303 116 384 116Q418 116 451 122Q484 128 510.5 142Q537 156 553 178Q569 200 569 232Q569 257 560 275.5Q551 294 530 307Q509 320 474 328Q439 336 387 341Q330 345 275 356Q220 367 177.5 390.5Q135 414 108.5 454Q82 494 82 557Q82 618 106.5 663Q131 708 173 737Q215 766 270 780Q325 794 386 794Q457 794 511 781Q565 768 604 744Q643 720 669 685.5Q695 651 712 607ZM455 822H325L159 1030H306L390 936L474 1030H621Z" glyph-name="Scaron" horiz-adv-x="775" unicode="&#352;" /><glyph d="M580 543Q568 576 552 599Q536 622 512.5 636.5Q489 651 457.5 657.5Q426 664 384 664Q363 664 336.5 659.5Q310 655 286.5 643Q263 631 247.5 610Q232 589 232 556Q233 536 240.5 521Q248 506 266 495.5Q284 485 315 478Q346 471 394 467Q470 460 530.5 448.5Q591 437 632.5 412Q674 387 696 344Q718 301 718 232Q718 173 695 129.5Q672 86 633.5 56Q595 26 544 9.5Q493 -7 438 -12L431 -35Q449 -39 466 -46Q483 -53 497 -63.5Q511 -74 519.5 -88.5Q528 -103 528 -122Q528 -146 516.5 -163Q505 -180 485 -191.5Q465 -203 437.5 -208.5Q410 -214 379 -214Q334 -214 303.5 -206.5Q273 -199 261 -194L283 -130Q291 -134 300 -137Q316 -143 339 -145Q358 -147 377 -142Q396 -137 396 -119Q396 -101 370.5 -90.5Q345 -80 307 -76L330 -12Q270 -7 225 8Q180 23 147 47Q114 71 92 103.5Q70 136 56 176L186 239Q209 173 256 144.5Q303 116 384 116Q418 116 451 122Q484 128 510.5 142Q537 156 553 178Q569 200 569 232Q569 257 560 275.5Q551 294 530 307Q509 320 474 328Q439 336 387 341Q330 345 275 356Q220 367 177.5 390.5Q135 414 108.5 454Q82 494 82 557Q82 618 106.5 663Q131 708 173 737Q215 766 270 780Q325 794 386 794Q457 794 511 781Q565 768 604 744Q643 720 669 685.5Q695 651 712 607Z" glyph-name="Scedilla" horiz-adv-x="775" unicode="&#350;" /><glyph d="M580 543Q568 576 552 599Q536 622 512.5 636.5Q489 651 457.5 657.5Q426 664 384 664Q363 664 336.5 659.5Q310 655 286.5 643Q263 631 247.5 610Q232 589 232 556Q233 536 240.5 521Q248 506 266 495.5Q284 485 315 478Q346 471 394 467Q470 460 530.5 448.5Q591 437 632.5 412Q674 387 696 344Q718 301 718 232Q718 167 690 120.5Q662 74 616 44Q570 14 511 0Q452 -14 389 -14Q314 -14 258.5 -1Q203 12 163.5 36.5Q124 61 98 96Q72 131 56 176L186 239Q209 173 256 144.5Q303 116 384 116Q418 116 451 122Q484 128 510.5 142Q537 156 553 178Q569 200 569 232Q569 257 560 275.5Q551 294 530 307Q509 320 474 328Q439 336 387 341Q330 345 275 356Q220 367 177.5 390.5Q135 414 108.5 454Q82 494 82 557Q82 618 106.5 663Q131 708 173 737Q215 766 270 780Q325 794 386 794Q457 794 511 781Q565 768 604 744Q643 720 669 685.5Q695 651 712 607ZM325 1030H455L621 822H474L390 916L306 822H159Z" glyph-name="Scircumflex" horiz-adv-x="775" unicode="&#348;" /><glyph d="M580 543Q568 576 552 599Q536 622 512.5 636.5Q489 651 457.5 657.5Q426 664 384 664Q363 664 336.5 659.5Q310 655 286.5 643Q263 631 247.5 610Q232 589 232 556Q233 536 240.5 521Q248 506 266 495.5Q284 485 315 478Q346 471 394 467Q470 460 530.5 448.5Q591 437 632.5 412Q674 387 696 344Q718 301 718 232Q718 167 690 120.5Q662 74 616 44Q570 14 511 0Q452 -14 389 -14Q314 -14 258.5 -1Q203 12 163.5 36.5Q124 61 98 96Q72 131 56 176L186 239Q209 173 256 144.5Q303 116 384 116Q418 116 451 122Q484 128 510.5 142Q537 156 553 178Q569 200 569 232Q569 257 560 275.5Q551 294 530 307Q509 320 474 328Q439 336 387 341Q330 345 275 356Q220 367 177.5 390.5Q135 414 108.5 454Q82 494 82 557Q82 618 106.5 663Q131 708 173 737Q215 766 270 780Q325 794 386 794Q457 794 511 781Q565 768 604 744Q643 720 669 685.5Q695 651 712 607ZM290 -200 305 -62H468L424 -200Z" glyph-name="Scommaaccent" horiz-adv-x="775" unicode="&#536;" /><glyph d="M418 0H268V650H25V780H661V650H418Z" glyph-name="T" horiz-adv-x="686" unicode="T" /><glyph d="M418 452H529V348H418V0H268V348H156V452H268V650H25V780H661V650H418Z" glyph-name="Tbar" horiz-adv-x="692" unicode="&#358;" /><glyph d="M408 822H277L111 1030H259L343 936L426 1030H574ZM418 0H268V650H25V780H661V650H418Z" glyph-name="Tcaron" horiz-adv-x="686" unicode="&#356;" /><glyph d="M246 -200 261 -62H424L380 -200ZM418 0H268V650H25V780H661V650H418Z" glyph-name="Tcommaaccent" horiz-adv-x="686" unicode="&#354;" /><glyph d="M231 503V277H410Q429 277 450.5 280.5Q472 284 489.5 296Q507 308 518.5 330.5Q530 353 530 390Q530 427 518.5 449.5Q507 472 489.5 484Q472 496 450.5 499.5Q429 503 410 503ZM685 390Q685 316 660 269Q635 222 595 194.5Q555 167 503.5 156.5Q452 146 400 146H231V0H81V780H231V634H400Q452 634 503.5 623.5Q555 613 595 585.5Q635 558 660 510.5Q685 463 685 390Z" glyph-name="Thorn" horiz-adv-x="722" unicode="&#222;" /><glyph d="M414 -14Q316 -14 250.5 9Q185 32 145.5 72Q106 112 89.5 166.5Q73 221 73 285V780H223V285Q223 249 230.5 218.5Q238 188 259 165Q280 142 317 129Q354 116 414 116Q473 116 510 129Q547 142 568 165Q589 188 596.5 218.5Q604 249 604 285V780H754V285Q754 221 737.5 166.5Q721 112 681.5 72Q642 32 576.5 9Q511 -14 414 -14Z" glyph-name="U" horiz-adv-x="827" unicode="U" /><glyph d="M602 1030 483 822H340L440 1030ZM414 -14Q316 -14 250.5 9Q185 32 145.5 72Q106 112 89.5 166.5Q73 221 73 285V780H223V285Q223 249 230.5 218.5Q238 188 259 165Q280 142 317 129Q354 116 414 116Q473 116 510 129Q547 142 568 165Q589 188 596.5 218.5Q604 249 604 285V780H754V285Q754 221 737.5 166.5Q721 112 681.5 72Q642 32 576.5 9Q511 -14 414 -14Z" glyph-name="Uacute" horiz-adv-x="827" unicode="&#218;" /><glyph d="M627 1030Q628 979 617 939Q606 899 581 872Q556 845 515 830.5Q474 816 414 816Q354 816 313 830.5Q272 845 246.5 872Q221 899 210 939Q199 979 200 1030H315Q314 979 337.5 958Q361 937 414 937Q466 937 489.5 958Q513 979 512 1030ZM414 -14Q316 -14 250.5 9Q185 32 145.5 72Q106 112 89.5 166.5Q73 221 73 285V780H223V285Q223 249 230.5 218.5Q238 188 259 165Q280 142 317 129Q354 116 414 116Q473 116 510 129Q547 142 568 165Q589 188 596.5 218.5Q604 249 604 285V780H754V285Q754 221 737.5 166.5Q721 112 681.5 72Q642 32 576.5 9Q511 -14 414 -14Z" glyph-name="Ubreve" horiz-adv-x="827" unicode="&#364;" /><glyph d="M348 1030H479L645 822H497L414 916L330 822H182ZM414 -14Q316 -14 250.5 9Q185 32 145.5 72Q106 112 89.5 166.5Q73 221 73 285V780H223V285Q223 249 230.5 218.5Q238 188 259 165Q280 142 317 129Q354 116 414 116Q473 116 510 129Q547 142 568 165Q589 188 596.5 218.5Q604 249 604 285V780H754V285Q754 221 737.5 166.5Q721 112 681.5 72Q642 32 576.5 9Q511 -14 414 -14Z" glyph-name="Ucircumflex" horiz-adv-x="827" unicode="&#219;" /><glyph d="M438 922Q438 960 464 986Q490 1012 528 1012Q566 1012 592 986Q618 960 618 922Q618 884 592 858Q566 832 528 832Q490 832 464 858Q438 884 438 922ZM208 922Q208 960 234 986Q260 1012 298 1012Q336 1012 362 986Q388 960 388 922Q388 884 362 858Q336 832 298 832Q260 832 234 858Q208 884 208 922ZM414 -14Q316 -14 250.5 9Q185 32 145.5 72Q106 112 89.5 166.5Q73 221 73 285V780H223V285Q223 249 230.5 218.5Q238 188 259 165Q280 142 317 129Q354 116 414 116Q473 116 510 129Q547 142 568 165Q589 188 596.5 218.5Q604 249 604 285V780H754V285Q754 221 737.5 166.5Q721 112 681.5 72Q642 32 576.5 9Q511 -14 414 -14Z" glyph-name="Udieresis" horiz-adv-x="827" unicode="&#220;" /><glyph d="M390 1030 491 822H347L228 1030ZM414 -14Q316 -14 250.5 9Q185 32 145.5 72Q106 112 89.5 166.5Q73 221 73 285V780H223V285Q223 249 230.5 218.5Q238 188 259 165Q280 142 317 129Q354 116 414 116Q473 116 510 129Q547 142 568 165Q589 188 596.5 218.5Q604 249 604 285V780H754V285Q754 221 737.5 166.5Q721 112 681.5 72Q642 32 576.5 9Q511 -14 414 -14Z" glyph-name="Ugrave" horiz-adv-x="827" unicode="&#217;" /><glyph d="M704 1030 585 822H441L542 1030ZM505 1030 386 822H241L342 1030ZM414 -14Q316 -14 250.5 9Q185 32 145.5 72Q106 112 89.5 166.5Q73 221 73 285V780H223V285Q223 249 230.5 218.5Q238 188 259 165Q280 142 317 129Q354 116 414 116Q473 116 510 129Q547 142 568 165Q589 188 596.5 218.5Q604 249 604 285V780H754V285Q754 221 737.5 166.5Q721 112 681.5 72Q642 32 576.5 9Q511 -14 414 -14Z" glyph-name="Uhungarumlaut" horiz-adv-x="827" unicode="&#368;" /><glyph d="M249 990H579V865H249ZM414 -14Q316 -14 250.5 9Q185 32 145.5 72Q106 112 89.5 166.5Q73 221 73 285V780H223V285Q223 249 230.5 218.5Q238 188 259 165Q280 142 317 129Q354 116 414 116Q473 116 510 129Q547 142 568 165Q589 188 596.5 218.5Q604 249 604 285V780H754V285Q754 221 737.5 166.5Q721 112 681.5 72Q642 32 576.5 9Q511 -14 414 -14Z" glyph-name="Umacron" horiz-adv-x="827" unicode="&#362;" /><glyph d="M754 285Q754 232 743 185.5Q732 139 706 101.5Q680 64 637.5 37Q595 10 532 -3Q490 -12 464 -35.5Q438 -59 438 -82Q438 -95 446.5 -105.5Q455 -116 478 -116Q489 -116 500.5 -113Q512 -110 521 -106.5Q530 -103 535.5 -100Q541 -97 541 -97L572 -189Q555 -199 526 -206.5Q497 -214 461 -214Q396 -214 359 -182.5Q322 -151 322 -93Q322 -70 330 -49.5Q338 -29 352 -11Q272 -4 218.5 21Q165 46 133 85Q101 124 87 175Q73 226 73 285V780H223V285Q223 249 230.5 218.5Q238 188 259 165Q280 142 317 129Q354 116 414 116Q473 116 510 129Q547 142 568 165Q589 188 596.5 218.5Q604 249 604 285V780H754Z" glyph-name="Uogonek" horiz-adv-x="827" unicode="&#370;" /><glyph d="M414 878Q437 878 450.5 891Q464 904 464 926Q464 948 450.5 961Q437 974 414 974Q391 974 377.5 961Q364 948 364 926Q364 904 377.5 891Q391 878 414 878ZM414 1044Q474 1044 507 1010.5Q540 977 540 926Q540 875 507 841.5Q474 808 414 808Q354 808 321 841.5Q288 875 288 926Q288 977 321 1010.5Q354 1044 414 1044ZM414 -14Q316 -14 250.5 9Q185 32 145.5 72Q106 112 89.5 166.5Q73 221 73 285V780H223V285Q223 249 230.5 218.5Q238 188 259 165Q280 142 317 129Q354 116 414 116Q473 116 510 129Q547 142 568 165Q589 188 596.5 218.5Q604 249 604 285V780H754V285Q754 221 737.5 166.5Q721 112 681.5 72Q642 32 576.5 9Q511 -14 414 -14Z" glyph-name="Uring" horiz-adv-x="827" unicode="&#366;" /><glyph d="M677 1002Q669 914 626.5 868.5Q584 823 499 825Q460 826 435 837.5Q410 849 391.5 863Q373 877 358 889Q343 901 324 901Q306 902 295 896Q284 890 278 880.5Q272 871 269.5 859Q267 847 266 837L149 850Q157 938 199.5 983.5Q242 1029 327 1027Q366 1026 391 1014.5Q416 1003 434.5 989Q453 975 468 963Q483 951 502 951Q520 950 531 956Q542 962 548 971.5Q554 981 556.5 992.5Q559 1004 560 1015ZM414 -14Q316 -14 250.5 9Q185 32 145.5 72Q106 112 89.5 166.5Q73 221 73 285V780H223V285Q223 249 230.5 218.5Q238 188 259 165Q280 142 317 129Q354 116 414 116Q473 116 510 129Q547 142 568 165Q589 188 596.5 218.5Q604 249 604 285V780H754V285Q754 221 737.5 166.5Q721 112 681.5 72Q642 32 576.5 9Q511 -14 414 -14Z" glyph-name="Utilde" horiz-adv-x="827" unicode="&#360;" /><glyph d="M397 167 464 351 620 780H786L471 -14H324L9 780H175L331 351Z" glyph-name="V" horiz-adv-x="795" unicode="V" /><glyph d="M514 551 466 403 327 -14H201L27 780H182L253 420L281 264L330 420L451 780H577L699 420L748 264L776 420L846 780H1002L827 -14H702L562 403Z" glyph-name="W" horiz-adv-x="1029" unicode="W" /><glyph d="M714 1030 595 822H451L552 1030ZM514 551 466 403 327 -14H201L27 780H182L253 420L281 264L330 420L451 780H577L699 420L748 264L776 420L846 780H1002L827 -14H702L562 403Z" glyph-name="Wacute" horiz-adv-x="1029" unicode="&#7810;" /><glyph d="M449 1030H580L746 822H598L514 916L431 822H283ZM514 551 466 403 327 -14H201L27 780H182L253 420L281 264L330 420L451 780H577L699 420L748 264L776 420L846 780H1002L827 -14H702L562 403Z" glyph-name="Wcircumflex" horiz-adv-x="1029" unicode="&#372;" /><glyph d="M539 922Q539 960 565 986Q591 1012 629 1012Q667 1012 693 986Q719 960 719 922Q719 884 693 858Q667 832 629 832Q591 832 565 858Q539 884 539 922ZM309 922Q309 960 335 986Q361 1012 399 1012Q437 1012 463 986Q489 960 489 922Q489 884 463 858Q437 832 399 832Q361 832 335 858Q309 884 309 922ZM514 551 466 403 327 -14H201L27 780H182L253 420L281 264L330 420L451 780H577L699 420L748 264L776 420L846 780H1002L827 -14H702L562 403Z" glyph-name="Wdieresis" horiz-adv-x="1029" unicode="&#7812;" /><glyph d="M477 1030 577 822H434L315 1030ZM514 551 466 403 327 -14H201L27 780H182L253 420L281 264L330 420L451 780H577L699 420L748 264L776 420L846 780H1002L827 -14H702L562 403Z" glyph-name="Wgrave" horiz-adv-x="1029" unicode="&#7808;" /><glyph d="M408 284 335 180 207 0H27L264 323L321 400L260 482L43 780H221L339 614L408 515L478 614L596 780H774L556 482L495 400L553 323L790 0H610L481 180Z" glyph-name="X" horiz-adv-x="816" unicode="X" /><glyph d="M461 0H311V323L-13 780H160L318 548L386 447L453 548L612 780H784L461 323Z" glyph-name="Y" horiz-adv-x="771" unicode="Y" /><glyph d="M574 1030 455 822H312L412 1030ZM461 0H311V323L-13 780H160L318 548L386 447L453 548L612 780H784L461 323Z" glyph-name="Yacute" horiz-adv-x="771" unicode="&#221;" /><glyph d="M320 1030H451L617 822H469L386 916L302 822H154ZM461 0H311V323L-13 780H160L318 548L386 447L453 548L612 780H784L461 323Z" glyph-name="Ycircumflex" horiz-adv-x="771" unicode="&#374;" /><glyph d="M411 922Q411 960 437 986Q463 1012 501 1012Q539 1012 565 986Q591 960 591 922Q591 884 565 858Q539 832 501 832Q463 832 437 858Q411 884 411 922ZM181 922Q181 960 207 986Q233 1012 271 1012Q309 1012 335 986Q361 960 361 922Q361 884 335 858Q309 832 271 832Q233 832 207 858Q181 884 181 922ZM461 0H311V323L-13 780H160L318 548L386 447L453 548L612 780H784L461 323Z" glyph-name="Ydieresis" horiz-adv-x="771" unicode="&#376;" /><glyph d="M42 100 436 581 496 651 331 650H62V780H701V680L306 199L246 129L411 130H701V0H42Z" glyph-name="Z" horiz-adv-x="744" unicode="Z" /><glyph d="M557 1030 438 822H295L395 1030ZM42 100 436 581 496 651 331 650H62V780H701V680L306 199L246 129L411 130H701V0H42Z" glyph-name="Zacute" horiz-adv-x="744" unicode="&#377;" /><glyph d="M434 822H303L137 1030H285L369 936L452 1030H600ZM42 100 436 581 496 651 331 650H62V780H701V680L306 199L246 129L411 130H701V0H42Z" glyph-name="Zcaron" horiz-adv-x="744" unicode="&#381;" /><glyph d="M278 922Q278 960 304 986Q330 1012 368 1012Q406 1012 432 986Q458 960 458 922Q458 884 432 858Q406 832 368 832Q330 832 304 858Q278 884 278 922ZM42 100 436 581 496 651 331 650H62V780H701V680L306 199L246 129L411 130H701V0H42Z" glyph-name="Zdotaccent" horiz-adv-x="744" unicode="&#379;" /><glyph d="M201 157Q201 131 220 117Q239 103 274 102Q305 101 331.5 109.5Q358 118 378.5 132Q399 146 412 163.5Q425 181 431 198V241L280 218Q236 211 218.5 197.5Q201 184 201 157ZM47 151Q47 195 62 224.5Q77 254 104 273Q131 292 170 303Q209 314 257 320L431 343V354Q431 425 321 425Q263 426 235 405.5Q207 385 194 353L69 413Q79 440 95.5 463.5Q112 487 140.5 505Q169 523 212 533.5Q255 544 317 544Q439 544 507.5 495.5Q576 447 576 343V149Q576 113 610 113Q624 113 634 117V0Q624 -5 608.5 -9.5Q593 -14 571 -14Q548 -14 526.5 -10.5Q505 -7 487.5 1.5Q470 10 457 25Q444 40 437 63Q405 26 356.5 6Q308 -14 245 -14Q192 -14 154.5 -1.5Q117 11 93 32.5Q69 54 58 84.5Q47 115 47 151Z" glyph-name="a" horiz-adv-x="664" unicode="a" /><glyph d="M47 151Q47 195 62 224.5Q77 254 104 273Q131 292 170 303Q209 314 257 320L431 343V354Q431 425 321 425Q263 426 235 405.5Q207 385 194 353L69 413Q79 440 95.5 463.5Q112 487 140.5 505Q169 523 212 533.5Q255 544 317 544Q439 544 507.5 495.5Q576 447 576 343V149Q576 113 610 113Q624 113 634 117V0Q624 -5 608.5 -9.5Q593 -14 571 -14Q548 -14 526.5 -10.5Q505 -7 487.5 1.5Q470 10 457 25Q444 40 437 63Q405 26 356.5 6Q308 -14 245 -14Q192 -14 154.5 -1.5Q117 11 93 32.5Q69 54 58 84.5Q47 115 47 151ZM201 157Q201 131 220 117Q239 103 274 102Q305 101 331.5 109.5Q358 118 378.5 132Q399 146 412 163.5Q425 181 431 198V241L280 218Q236 211 218.5 197.5Q201 184 201 157ZM506 800 387 592H243L344 800Z" glyph-name="aacute" horiz-adv-x="664" unicode="&#225;" /><glyph d="M201 157Q201 131 220 117Q239 103 274 102Q305 101 331.5 109.5Q358 118 378.5 132Q399 146 412 163.5Q425 181 431 198V241L280 218Q236 211 218.5 197.5Q201 184 201 157ZM530 800Q531 749 520 709Q509 669 484 642Q459 615 418 600.5Q377 586 317 586Q257 586 216 600.5Q175 615 150 642Q125 669 114 709Q103 749 104 800H219Q217 749 240.5 728Q264 707 317 707Q370 707 393.5 728Q417 749 416 800ZM47 151Q47 195 62 224.5Q77 254 104 273Q131 292 170 303Q209 314 257 320L431 343V354Q431 425 321 425Q263 426 235 405.5Q207 385 194 353L69 413Q79 440 95.5 463.5Q112 487 140.5 505Q169 523 212 533.5Q255 544 317 544Q439 544 507.5 495.5Q576 447 576 343V149Q576 113 610 113Q624 113 634 117V0Q624 -5 608.5 -9.5Q593 -14 571 -14Q548 -14 526.5 -10.5Q505 -7 487.5 1.5Q470 10 457 25Q444 40 437 63Q405 26 356.5 6Q308 -14 245 -14Q192 -14 154.5 -1.5Q117 11 93 32.5Q69 54 58 84.5Q47 115 47 151Z" glyph-name="abreve" horiz-adv-x="664" unicode="&#259;" /><glyph d="M201 157Q201 131 220 117Q239 103 274 102Q305 101 331.5 109.5Q358 118 378.5 132Q399 146 412 163.5Q425 181 431 198V241L280 218Q236 211 218.5 197.5Q201 184 201 157ZM252 800H382L549 592H401L317 686L234 592H86ZM47 151Q47 195 62 224.5Q77 254 104 273Q131 292 170 303Q209 314 257 320L431 343V354Q431 425 321 425Q263 426 235 405.5Q207 385 194 353L69 413Q79 440 95.5 463.5Q112 487 140.5 505Q169 523 212 533.5Q255 544 317 544Q439 544 507.5 495.5Q576 447 576 343V149Q576 113 610 113Q624 113 634 117V0Q624 -5 608.5 -9.5Q593 -14 571 -14Q548 -14 526.5 -10.5Q505 -7 487.5 1.5Q470 10 457 25Q444 40 437 63Q405 26 356.5 6Q308 -14 245 -14Q192 -14 154.5 -1.5Q117 11 93 32.5Q69 54 58 84.5Q47 115 47 151Z" glyph-name="acircumflex" horiz-adv-x="664" unicode="&#226;" /><glyph d="M510 800 391 592H247L348 800Z" glyph-name="acute" horiz-adv-x="643" unicode="&#180;" /><glyph d="M510 1030 391 822H247L348 1030Z" glyph-name="acute.cap" horiz-adv-x="643" unicode="&#58402;" /><glyph d="M47 151Q47 195 62 224.5Q77 254 104 273Q131 292 170 303Q209 314 257 320L431 343V354Q431 425 321 425Q263 426 235 405.5Q207 385 194 353L69 413Q79 440 95.5 463.5Q112 487 140.5 505Q169 523 212 533.5Q255 544 317 544Q439 544 507.5 495.5Q576 447 576 343V149Q576 113 610 113Q624 113 634 117V0Q624 -5 608.5 -9.5Q593 -14 571 -14Q548 -14 526.5 -10.5Q505 -7 487.5 1.5Q470 10 457 25Q444 40 437 63Q405 26 356.5 6Q308 -14 245 -14Q192 -14 154.5 -1.5Q117 11 93 32.5Q69 54 58 84.5Q47 115 47 151ZM201 157Q201 131 220 117Q239 103 274 102Q305 101 331.5 109.5Q358 118 378.5 132Q399 146 412 163.5Q425 181 431 198V241L280 218Q236 211 218.5 197.5Q201 184 201 157ZM112 692Q112 730 138 756Q164 782 202 782Q240 782 266 756Q292 730 292 692Q292 654 266 628Q240 602 202 602Q164 602 138 628Q112 654 112 692ZM342 692Q342 730 368 756Q394 782 432 782Q470 782 496 756Q522 730 522 692Q522 654 496 628Q470 602 432 602Q394 602 368 628Q342 654 342 692Z" glyph-name="adieresis" horiz-adv-x="664" unicode="&#228;" /><glyph d="M717 -14Q571 -14 497 65Q452 21 393 3.5Q334 -14 258 -14Q201 -14 160.5 -2Q120 10 95 31.5Q70 53 58.5 83.5Q47 114 47 150Q47 195 65.5 227Q84 259 116 279.5Q148 300 192.5 310Q237 320 290 320H431V350Q431 389 403.5 407Q376 425 321 425Q263 426 235 405.5Q207 385 194 353L69 413Q79 440 95.5 463.5Q112 487 140.5 505Q169 523 212 533.5Q255 544 317 544Q451 544 511 479Q584 544 709 544Q842 544 910.5 472.5Q979 401 979 265V213H584Q587 156 623 130.5Q659 105 714 105Q771 105 801 128.5Q831 152 841 180L972 117Q961 92 942 68.5Q923 45 893 26.5Q863 8 819.5 -3Q776 -14 717 -14ZM710 425Q657 425 623.5 400Q590 375 585 320H823Q819 425 710 425ZM201 157Q201 104 271 102Q305 101 333.5 109.5Q362 118 382.5 132Q403 146 415.5 163Q428 180 431 196V213H287Q248 213 224.5 201Q201 189 201 157Z" glyph-name="ae" horiz-adv-x="1025" unicode="&#230;" /><glyph d="M213 436Q236 468 256 517Q276 566 276 622Q276 639 270.5 649.5Q265 660 251 660Q234 660 223.5 633Q213 606 213 539ZM272 -14Q178 -14 122.5 23.5Q67 61 67 131V164L18 134V257Q29 264 41 272Q53 280 67 291V524Q65 582 77.5 629Q90 676 113.5 709Q137 742 171 760Q205 778 247 778Q323 778 358 736Q393 694 393 619Q393 559 376.5 506.5Q360 454 334.5 409.5Q309 365 276.5 327.5Q244 290 213 260V179Q213 140 227 126Q241 112 277 111Q305 111 326.5 117.5Q348 124 358 129L373 1Q359 -4 331.5 -9Q304 -14 272 -14Z" glyph-name="afii61289" horiz-adv-x="430" unicode="&#8467;" /><glyph d="M47 151Q47 195 62 224.5Q77 254 104 273Q131 292 170 303Q209 314 257 320L431 343V354Q431 425 321 425Q263 426 235 405.5Q207 385 194 353L69 413Q79 440 95.5 463.5Q112 487 140.5 505Q169 523 212 533.5Q255 544 317 544Q439 544 507.5 495.5Q576 447 576 343V149Q576 113 610 113Q624 113 634 117V0Q624 -5 608.5 -9.5Q593 -14 571 -14Q548 -14 526.5 -10.5Q505 -7 487.5 1.5Q470 10 457 25Q444 40 437 63Q405 26 356.5 6Q308 -14 245 -14Q192 -14 154.5 -1.5Q117 11 93 32.5Q69 54 58 84.5Q47 115 47 151ZM201 157Q201 131 220 117Q239 103 274 102Q305 101 331.5 109.5Q358 118 378.5 132Q399 146 412 163.5Q425 181 431 198V241L280 218Q236 211 218.5 197.5Q201 184 201 157ZM294 800 394 592H251L132 800Z" glyph-name="agrave" horiz-adv-x="664" unicode="&#224;" /><glyph d="M266 -15Q324 -20 362.5 -30Q401 -40 423.5 -54Q446 -68 455 -85.5Q464 -103 464 -122Q464 -169 421.5 -191.5Q379 -214 315 -214Q270 -214 239.5 -206.5Q209 -199 197 -194L220 -130Q228 -134 237 -137Q253 -144 275 -145Q294 -147 313 -142Q332 -137 332 -119Q332 -101 307 -90.5Q282 -80 243 -76Z" glyph-name="altcedilla" horiz-adv-x="643" unicode="&#58390;" /><glyph d="M201 157Q201 131 220 117Q239 103 274 102Q305 101 331.5 109.5Q358 118 378.5 132Q399 146 412 163.5Q425 181 431 198V241L280 218Q236 211 218.5 197.5Q201 184 201 157ZM152 760H482V635H152ZM47 151Q47 195 62 224.5Q77 254 104 273Q131 292 170 303Q209 314 257 320L431 343V354Q431 425 321 425Q263 426 235 405.5Q207 385 194 353L69 413Q79 440 95.5 463.5Q112 487 140.5 505Q169 523 212 533.5Q255 544 317 544Q439 544 507.5 495.5Q576 447 576 343V149Q576 113 610 113Q624 113 634 117V0Q624 -5 608.5 -9.5Q593 -14 571 -14Q548 -14 526.5 -10.5Q505 -7 487.5 1.5Q470 10 457 25Q444 40 437 63Q405 26 356.5 6Q308 -14 245 -14Q192 -14 154.5 -1.5Q117 11 93 32.5Q69 54 58 84.5Q47 115 47 151Z" glyph-name="amacron" horiz-adv-x="664" unicode="&#257;" /><glyph d="M409 600Q409 632 387.5 648.5Q366 665 326 665Q238 665 238 600Q238 566 258 542.5Q278 519 301 499L329 512Q360 527 384.5 548.5Q409 570 409 600ZM331 111Q386 111 423 127.5Q460 144 489 175Q441 210 385.5 253.5Q330 297 269 346Q231 322 211 294Q191 266 191 223Q191 185 207 162.5Q223 140 245.5 128.5Q268 117 292 114Q316 111 331 111ZM736 -13Q702 12 668.5 37.5Q635 63 602 89Q505 -14 331 -14Q276 -14 224.5 -1.5Q173 11 132.5 39Q92 67 67.5 112Q43 157 43 223Q43 261 53 293.5Q63 326 80 352.5Q97 379 120.5 399.5Q144 420 170 435Q156 448 141.5 464Q127 480 116 500Q105 520 98 544.5Q91 569 91 599Q91 693 151.5 743Q212 793 326 793Q384 793 427 778Q470 763 498.5 737Q527 711 541 676.5Q555 642 555 603Q555 549 526 509Q497 469 456 441Q444 433 432 425.5Q420 418 407 412Q425 397 441 384Q457 371 474 358Q491 345 510 330.5Q529 316 553 299Q558 316 561.5 338Q565 360 565 391H714Q714 346 705.5 298Q697 250 676 206L736 158Z" glyph-name="ampersand" horiz-adv-x="785" unicode="&amp;" /><glyph d="M180 350 302 -130H157L29 350L157 830H302Z" glyph-name="anglebracketleft" horiz-adv-x="313" unicode="&#12296;" /><glyph d="M180 390 302 -90H157L29 390L157 870H302Z" glyph-name="anglebracketleft.cap" horiz-adv-x="313" unicode="&#58519;" /><glyph d="M133 350 11 830H155L284 350L155 -130H11Z" glyph-name="anglebracketright" horiz-adv-x="313" unicode="&#12297;" /><glyph d="M133 390 11 870H155L284 390L155 -90H11Z" glyph-name="anglebracketright.cap" horiz-adv-x="313" unicode="&#58520;" /><glyph d="M201 157Q201 131 220 117Q239 103 274 102Q305 101 331.5 109.5Q358 118 378.5 132Q399 146 412 163.5Q425 181 431 198V241L280 218Q236 211 218.5 197.5Q201 184 201 157ZM576 149Q576 113 610 113Q624 113 634 117V0Q622 -5 608 -9Q574 -21 552.5 -41Q531 -61 531 -82Q531 -95 539.5 -105.5Q548 -116 571 -116Q582 -116 593.5 -113Q605 -110 614 -106.5Q623 -103 628.5 -100Q634 -97 634 -97L665 -189Q648 -199 619 -206.5Q590 -214 553 -214Q489 -214 452 -182.5Q415 -151 415 -93Q416 -61 430 -34.5Q444 -8 469 14Q447 31 437 63Q405 26 356.5 6Q308 -14 245 -14Q192 -14 154.5 -1.5Q117 11 93 32.5Q69 54 58 84.5Q47 115 47 151Q47 195 62 224.5Q77 254 104 273Q131 292 170 303Q209 314 257 320L431 343V354Q431 425 321 425Q263 426 235 405.5Q207 385 194 353L69 413Q79 440 95.5 463.5Q112 487 140.5 505Q169 523 212 533.5Q255 544 317 544Q439 544 507.5 495.5Q576 447 576 343Z" glyph-name="aogonek" horiz-adv-x="664" unicode="&#261;" /><glyph d="M236 397Q287 397 322 388Q357 379 387 367.5Q417 356 448 347Q479 338 521 338Q544 338 565 345.5Q586 353 602 363Q620 374 635 388L696 290Q676 267 649 249Q626 234 592.5 221.5Q559 209 515 209Q464 209 429 218Q394 227 364 238.5Q334 250 303 259Q272 268 230 268Q206 268 185.5 260Q165 252 149 243Q131 232 116 218L55 316Q75 338 102 356Q125 371 158.5 384Q192 397 236 397ZM515 388Q464 388 429 397Q394 406 364 417.5Q334 429 303 438Q272 447 230 447Q206 447 185.5 439Q165 431 149 422Q131 411 116 397L55 495Q75 517 102 535Q125 550 158.5 563Q192 576 236 576Q287 576 322 567Q357 558 387 546.5Q417 535 448 526Q479 517 521 517Q544 517 565 524.5Q586 532 602 542Q620 553 635 567L696 469Q676 446 649 428Q626 413 592.5 400.5Q559 388 515 388Z" glyph-name="approxequal" horiz-adv-x="750" unicode="&#8776;" /><glyph d="M317 648Q340 648 353.5 661Q367 674 367 696Q367 718 353.5 731Q340 744 317 744Q294 744 280.5 731Q267 718 267 696Q267 674 280.5 661Q294 648 317 648ZM317 814Q377 814 410 780.5Q443 747 443 696Q443 645 410 611.5Q377 578 317 578Q257 578 224 611.5Q191 645 191 696Q191 747 224 780.5Q257 814 317 814ZM47 151Q47 195 62 224.5Q77 254 104 273Q131 292 170 303Q209 314 257 320L431 343V354Q431 425 321 425Q263 426 235 405.5Q207 385 194 353L69 413Q79 440 95.5 463.5Q112 487 140.5 505Q169 523 212 533.5Q255 544 317 544Q439 544 507.5 495.5Q576 447 576 343V149Q576 113 610 113Q624 113 634 117V0Q624 -5 608.5 -9.5Q593 -14 571 -14Q548 -14 526.5 -10.5Q505 -7 487.5 1.5Q470 10 457 25Q444 40 437 63Q405 26 356.5 6Q308 -14 245 -14Q192 -14 154.5 -1.5Q117 11 93 32.5Q69 54 58 84.5Q47 115 47 151ZM201 157Q201 131 220 117Q239 103 274 102Q305 101 331.5 109.5Q358 118 378.5 132Q399 146 412 163.5Q425 181 431 198V241L280 218Q236 211 218.5 197.5Q201 184 201 157Z" glyph-name="aring" horiz-adv-x="664" unicode="&#229;" /><glyph d="M129 423H295L400 246L396 444V780H538V444L535 246L640 423H806L517 -14H417Z" glyph-name="arrowdown" horiz-adv-x="939" unicode="&#8595;" /><glyph d="M36 437 505 706V551L315 453L527 456H887V324H527L315 327L505 229V74L36 343Z" glyph-name="arrowleft" horiz-adv-x="939" unicode="&#8592;" /><glyph d="M902 343 434 74V229L624 327L411 324H51V456H411L624 453L434 551V706L902 437Z" glyph-name="arrowright" horiz-adv-x="939" unicode="&#8594;" /><glyph d="M517 794 806 357H640L535 534L538 336V0H396V336L400 534L295 357H129L417 794Z" glyph-name="arrowup" horiz-adv-x="939" unicode="&#8593;" /><glyph d="M294 637 251 546 176 390H19L225 794H362L568 390H411L336 546Z" glyph-name="asciicircum" horiz-adv-x="587" unicode="^" /><glyph d="M504 315Q490 292 469 274Q451 258 423.5 245.5Q396 233 357 233Q315 233 288 245.5Q261 258 241 273Q221 288 203.5 300.5Q186 313 163 313Q144 313 129.5 307.5Q115 302 105 295Q95 288 89.5 282Q84 276 84 275L30 354Q43 377 64 395Q82 410 110 423Q138 436 177 436Q218 436 245 423.5Q272 411 292.5 396Q313 381 330.5 368.5Q348 356 371 356Q390 356 405 361.5Q420 367 430 375Q441 384 450 395Z" glyph-name="asciitilde" horiz-adv-x="535" unicode="~" /><glyph d="M216 693 302 727 333 638 242 618 303 552 222 497 175 572 127 497 46 552 107 618 16 638 47 727 133 693 124 780H225Z" glyph-name="asterisk" horiz-adv-x="349" unicode="*" /><glyph d="M669 331Q667 347 659.5 362Q652 377 638.5 389Q625 401 605.5 408.5Q586 416 560 416Q532 416 508 408.5Q484 401 466.5 383.5Q449 366 439 338Q429 310 429 268Q429 221 456 197.5Q483 174 531 174Q557 174 578 181.5Q599 189 615.5 201Q632 213 643 228Q654 243 660 259ZM714 530H839L803 233Q800 211 813.5 198Q827 185 850 185Q875 185 896 198Q917 211 932.5 238.5Q948 266 957 308Q966 350 966 409Q966 472 945.5 521Q925 570 881.5 604Q838 638 771 656Q704 674 611 674Q518 674 440 646.5Q362 619 305.5 564.5Q249 510 217.5 429Q186 348 186 241Q186 155 215 93Q244 31 296 -9Q348 -49 419.5 -68.5Q491 -88 576 -88Q643 -88 690.5 -79Q738 -70 771.5 -55.5Q805 -41 826.5 -22.5Q848 -4 863 14L993 -49Q967 -87 930 -117Q893 -147 842 -169Q791 -191 724 -202.5Q657 -214 570 -214Q448 -214 350 -184.5Q252 -155 183.5 -97.5Q115 -40 78 45Q41 130 41 241Q41 364 83 467Q125 570 201 644Q277 718 382 759Q487 800 613 800Q737 800 830 772Q923 744 984.5 692.5Q1046 641 1076.5 569Q1107 497 1107 410Q1107 335 1090 271Q1073 207 1037.5 160Q1002 113 949 86.5Q896 60 824 60Q773 60 736 79Q699 98 682 136Q675 120 660 103.5Q645 87 622 74Q599 61 568 53Q537 45 499 45Q455 45 415.5 58Q376 71 347 96.5Q318 122 301 160.5Q284 199 284 250Q284 327 307.5 383Q331 439 370 475Q409 511 458.5 528Q508 545 560 545Q617 545 651.5 524Q686 503 697 481Z" glyph-name="at" horiz-adv-x="1141" unicode="@" /><glyph d="M669 428Q667 444 659.5 459Q652 474 638.5 486Q625 498 605.5 505.5Q586 513 560 513Q532 513 508 505.5Q484 498 466.5 480.5Q449 463 439 435Q429 407 429 365Q429 318 456 294.5Q483 271 531 271Q557 271 578 278.5Q599 286 615.5 298Q632 310 643 325Q654 340 660 356ZM714 627H839L803 330Q800 308 813.5 295Q827 282 850 282Q875 282 896 295Q917 308 932.5 335.5Q948 363 957 405Q966 447 966 506Q966 569 945.5 618Q925 667 881.5 701Q838 735 771 753Q704 771 611 771Q518 771 440 743.5Q362 716 305.5 661.5Q249 607 217.5 526Q186 445 186 338Q186 252 215 190Q244 128 296 88Q348 48 419.5 28.5Q491 9 576 9Q643 9 690.5 18Q738 27 771.5 41.5Q805 56 826.5 74.5Q848 93 863 111L993 48Q967 10 930 -20Q893 -50 842 -72Q791 -94 724 -105.5Q657 -117 570 -117Q448 -117 350 -87.5Q252 -58 183.5 -0.5Q115 57 78 142Q41 227 41 338Q41 461 83 564Q125 667 201 741Q277 815 382 856Q487 897 613 897Q737 897 830 869Q923 841 984.5 789.5Q1046 738 1076.5 666Q1107 594 1107 507Q1107 432 1090 368Q1073 304 1037.5 257Q1002 210 949 183.5Q896 157 824 157Q773 157 736 176Q699 195 682 233Q675 217 660 200.5Q645 184 622 171Q599 158 568 150Q537 142 499 142Q455 142 415.5 155Q376 168 347 193.5Q318 219 301 257.5Q284 296 284 347Q284 424 307.5 480Q331 536 370 572Q409 608 458.5 625Q508 642 560 642Q617 642 651.5 621Q686 600 697 578Z" glyph-name="at.cap" horiz-adv-x="1141" unicode="&#58643;" /><glyph d="M47 151Q47 195 62 224.5Q77 254 104 273Q131 292 170 303Q209 314 257 320L431 343V354Q431 425 321 425Q263 426 235 405.5Q207 385 194 353L69 413Q79 440 95.5 463.5Q112 487 140.5 505Q169 523 212 533.5Q255 544 317 544Q439 544 507.5 495.5Q576 447 576 343V149Q576 113 610 113Q624 113 634 117V0Q624 -5 608.5 -9.5Q593 -14 571 -14Q548 -14 526.5 -10.5Q505 -7 487.5 1.5Q470 10 457 25Q444 40 437 63Q405 26 356.5 6Q308 -14 245 -14Q192 -14 154.5 -1.5Q117 11 93 32.5Q69 54 58 84.5Q47 115 47 151ZM201 157Q201 131 220 117Q239 103 274 102Q305 101 331.5 109.5Q358 118 378.5 132Q399 146 412 163.5Q425 181 431 198V241L280 218Q236 211 218.5 197.5Q201 184 201 157ZM581 772Q573 684 530 638.5Q487 593 403 595Q364 596 339 607.5Q314 619 295.5 633Q277 647 261.5 659Q246 671 227 671Q209 672 198.5 666Q188 660 181.5 650.5Q175 641 172.5 629Q170 617 169 607L52 620Q60 708 103 753.5Q146 799 230 797Q269 796 294 784.5Q319 773 337.5 759Q356 745 371.5 733Q387 721 406 721Q424 720 434.5 726Q445 732 451.5 741.5Q458 751 460.5 762.5Q463 774 464 785Z" glyph-name="atilde" horiz-adv-x="664" unicode="&#227;" /><glyph d="M380 544Q501 544 567.5 472.5Q634 401 634 265Q634 129 567.5 57.5Q501 -14 380 -14Q320 -14 276.5 8Q233 30 205 68L193 0H69V774L214 800V473Q244 510 286.5 527Q329 544 380 544ZM482 265Q482 303 472 331.5Q462 360 444 378.5Q426 397 402 406.5Q378 416 350 416Q322 416 298.5 408.5Q275 401 258 388Q241 375 229.5 359Q218 343 214 327V203Q218 186 229.5 170.5Q241 155 258 142Q275 129 298.5 121.5Q322 114 350 114Q406 114 444 151Q482 188 482 265Z" glyph-name="b" horiz-adv-x="678" unicode="b" /><glyph d="M12 870H162L407 -90H257Z" glyph-name="backslash" horiz-adv-x="419" unicode="\" /><glyph d="M29 800H179L389 -20H239Z" glyph-name="backslash.cap" horiz-adv-x="418" unicode="&#58466;" /><glyph d="M181 164 283 69 391 170 499 69 601 164 493 265 601 366 499 461 391 360 283 461 181 366 289 265ZM675 0H107V530H675Z" glyph-name="ballotboxwithx" horiz-adv-x="782" unicode="&#9746;" /><glyph d="M238 -130H88V830H238Z" glyph-name="bar" horiz-adv-x="326" unicode="|" /><glyph d="M238 -20H88V800H238Z" glyph-name="bar.cap" horiz-adv-x="326" unicode="&#58467;" /><glyph d="M92 390Q92 474 126 547.5Q160 621 219 675.5Q278 730 356.5 762Q435 794 525 794Q615 794 693.5 762Q772 730 831 675.5Q890 621 924 547.5Q958 474 958 390Q958 306 924 232.5Q890 159 831 104.5Q772 50 693.5 18Q615 -14 525 -14Q435 -14 356.5 18Q278 50 219 104.5Q160 159 126 232.5Q92 306 92 390Z" glyph-name="blackcircle" horiz-adv-x="1050" unicode="&#9679;" /><glyph d="M673 0H105V530H673Z" glyph-name="blacksmallsquare" horiz-adv-x="778" unicode="&#9642;" /><glyph d="M941 0H105V780H941Z" glyph-name="blacksquare" horiz-adv-x="1046" unicode="&#9632;" /><glyph d="M32 414Q63 414 79.5 427.5Q96 441 96 480V649Q96 681 104 714Q112 747 134 774Q156 801 196 818Q236 835 299 835H334V705H311Q281 705 261.5 691.5Q242 678 242 640V479Q242 443 228 408Q214 373 181 350Q214 327 228 292Q242 257 242 222V60Q242 22 261.5 8.5Q281 -5 311 -5H334V-135H299Q236 -135 196 -118Q156 -101 134 -74Q112 -47 104 -14Q96 19 96 51V221Q96 259 79.5 273Q63 287 32 287H10V414Z" glyph-name="braceleft" horiz-adv-x="345" unicode="{" /><glyph d="M32 454Q63 454 79.5 467.5Q96 481 96 520V689Q96 721 104 754Q112 787 134 814Q156 841 196 858Q236 875 299 875H334V745H311Q281 745 261.5 731.5Q242 718 242 680V519Q242 483 228 448Q214 413 181 390Q214 367 228 332Q242 297 242 262V100Q242 62 261.5 48.5Q281 35 311 35H334V-95H299Q236 -95 196 -78Q156 -61 134 -34Q112 -7 104 26Q96 59 96 91V261Q96 299 79.5 313Q63 327 32 327H10V454Z" glyph-name="braceleft.cap" horiz-adv-x="345" unicode="&#58517;" /><glyph d="M313 286Q283 286 266 272.5Q249 259 249 220V51Q249 19 241 -14Q233 -47 211 -74Q189 -101 149.5 -118Q110 -135 47 -135H12V-5H34Q65 -5 84 8.5Q103 22 103 60V221Q103 257 116.5 292Q130 327 164 350Q130 373 116.5 407.5Q103 442 103 478V640Q103 678 84 691.5Q65 705 34 705H12V835H47Q110 835 149.5 818Q189 801 211 774Q233 747 241 714Q249 681 249 649V479Q249 441 266 427Q283 413 313 413H336V286Z" glyph-name="braceright" horiz-adv-x="345" unicode="}" /><glyph d="M313 326Q283 326 266 312.5Q249 299 249 260V91Q249 59 241 26Q233 -7 211 -34Q189 -61 149.5 -78Q110 -95 47 -95H12V35H34Q65 35 84 48.5Q103 62 103 100V261Q103 297 116.5 332Q130 367 164 390Q130 413 116.5 447.5Q103 482 103 518V680Q103 718 84 731.5Q65 745 34 745H12V875H47Q110 875 149.5 858Q189 841 211 814Q233 787 241 754Q249 721 249 689V519Q249 481 266 467Q283 453 313 453H336V326Z" glyph-name="braceright.cap" horiz-adv-x="345" unicode="&#58518;" /><glyph d="M237 0H296V-130H87V830H296V700H237Z" glyph-name="bracketleft" horiz-adv-x="313" unicode="[" /><glyph d="M237 40H296V-90H87V870H296V740H237Z" glyph-name="bracketleft.cap" horiz-adv-x="313" unicode="&#58515;" /><glyph d="M76 700H17V830H226V-130H17V0H76Z" glyph-name="bracketright" horiz-adv-x="313" unicode="]" /><glyph d="M76 740H17V870H226V-90H17V40H76Z" glyph-name="bracketright.cap" horiz-adv-x="313" unicode="&#58516;" /><glyph d="M535 800Q536 749 525 709Q514 669 488.5 642Q463 615 422 600.5Q381 586 321 586Q261 586 220 600.5Q179 615 154 642Q129 669 118 709Q107 749 108 800H223Q222 749 245.5 728Q269 707 321 707Q374 707 397.5 728Q421 749 420 800Z" glyph-name="breve" horiz-adv-x="643" unicode="&#728;" /><glyph d="M535 1030Q536 979 525 939Q514 899 488.5 872Q463 845 422 830.5Q381 816 321 816Q261 816 220 830.5Q179 845 154 872Q129 899 118 939Q107 979 108 1030H223Q222 979 245.5 958Q269 937 321 937Q374 937 397.5 958Q421 979 420 1030Z" glyph-name="breve.cap" horiz-adv-x="643" unicode="&#58406;" /><glyph d="M238 398H88V830H238ZM238 -130H88V302H238Z" glyph-name="brokenbar" horiz-adv-x="326" unicode="&#166;" /><glyph d="M238 342V-20H88V342ZM238 438H88V800H238Z" glyph-name="brokenbar.cap" horiz-adv-x="326" unicode="&#58469;" /><glyph d="M54 335Q54 364 65 389.5Q76 415 95 434Q114 453 139.5 464Q165 475 194 475Q223 475 248.5 464Q274 453 293 434Q312 415 323 389.5Q334 364 334 335Q334 306 323 280.5Q312 255 293 236Q274 217 248.5 206Q223 195 194 195Q165 195 139.5 206Q114 217 95 236Q76 255 65 280.5Q54 306 54 335Z" glyph-name="bullet" horiz-adv-x="388" unicode="&#8226;" /><glyph d="M54 390Q54 419 65 444.5Q76 470 95 489Q114 508 139.5 519Q165 530 194 530Q223 530 248.5 519Q274 508 293 489Q312 470 323 444.5Q334 419 334 390Q334 361 323 335.5Q312 310 293 291Q274 272 248.5 261Q223 250 194 250Q165 250 139.5 261Q114 272 95 291Q76 310 65 335.5Q54 361 54 390Z" glyph-name="bullet.cap" horiz-adv-x="388" unicode="&#58470;" /><glyph d="M168 339Q168 282 191 232.5Q214 183 253.5 146.5Q293 110 346 88.5Q399 67 460 67Q520 67 573.5 88.5Q627 110 666.5 146.5Q706 183 729 232.5Q752 282 752 339Q752 396 729 445.5Q706 495 666.5 532Q627 569 573.5 590.5Q520 612 460 612Q399 612 346 590.5Q293 569 253.5 532Q214 495 191 445.5Q168 396 168 339ZM354 390Q354 421 366.5 448.5Q379 476 400.5 496Q422 516 451.5 528Q481 540 514 540Q547 540 576.5 528Q606 516 628 496Q650 476 662.5 448.5Q675 421 675 390Q675 359 662.5 331.5Q650 304 628 284Q606 264 576.5 252Q547 240 514 240Q481 240 451.5 252Q422 264 400.5 284Q379 304 366.5 331.5Q354 359 354 390ZM86 390Q86 473 119.5 546Q153 619 211 673Q269 727 347 758.5Q425 790 514 790Q603 790 681 758.5Q759 727 817.5 673Q876 619 909.5 546Q943 473 943 390Q943 307 909.5 234Q876 161 817.5 107Q759 53 681 21.5Q603 -10 514 -10Q425 -10 347 21.5Q269 53 211 107Q153 161 119.5 234Q86 307 86 390Z" glyph-name="bullseye" horiz-adv-x="1029" unicode="&#9678;" /><glyph d="M44 265Q44 401 119.5 472.5Q195 544 331 544Q386 544 427.5 533Q469 522 498.5 503.5Q528 485 546.5 459.5Q565 434 575 405L443 341Q431 370 405 393.5Q379 417 330 417Q264 417 228 380Q192 343 192 265Q192 187 228 150Q264 113 330 113Q379 113 405 136.5Q431 160 443 189L575 125Q565 96 546.5 70.5Q528 45 498.5 26.5Q469 8 427.5 -3Q386 -14 331 -14Q195 -14 119.5 57.5Q44 129 44 265Z" glyph-name="c" horiz-adv-x="614" unicode="c" /><glyph d="M44 265Q44 401 119.5 472.5Q195 544 331 544Q386 544 427.5 533Q469 522 498.5 503.5Q528 485 546.5 459.5Q565 434 575 405L443 341Q431 370 405 393.5Q379 417 330 417Q264 417 228 380Q192 343 192 265Q192 187 228 150Q264 113 330 113Q379 113 405 136.5Q431 160 443 189L575 125Q565 96 546.5 70.5Q528 45 498.5 26.5Q469 8 427.5 -3Q386 -14 331 -14Q195 -14 119.5 57.5Q44 129 44 265ZM509 800 390 592H246L347 800Z" glyph-name="cacute" horiz-adv-x="614" unicode="&#263;" /><glyph d="M387 592H256L90 800H238L321 706L405 800H553Z" glyph-name="caron" horiz-adv-x="643" unicode="&#711;" /><glyph d="M387 822H256L90 1030H238L321 936L405 1030H553Z" glyph-name="caron.cap" horiz-adv-x="643" unicode="&#58413;" /><glyph d="M255 592 305 800H460L386 592Z" glyph-name="caronSlovak" horiz-adv-x="643" unicode="&#58387;" /><glyph d="M44 265Q44 401 119.5 472.5Q195 544 331 544Q386 544 427.5 533Q469 522 498.5 503.5Q528 485 546.5 459.5Q565 434 575 405L443 341Q431 370 405 393.5Q379 417 330 417Q264 417 228 380Q192 343 192 265Q192 187 228 150Q264 113 330 113Q379 113 405 136.5Q431 160 443 189L575 125Q565 96 546.5 70.5Q528 45 498.5 26.5Q469 8 427.5 -3Q386 -14 331 -14Q195 -14 119.5 57.5Q44 129 44 265ZM386 592H255L89 800H237L320 706L404 800H552Z" glyph-name="ccaron" horiz-adv-x="614" unicode="&#269;" /><glyph d="M44 265Q44 401 119.5 472.5Q195 544 331 544Q386 544 427.5 533Q469 522 498.5 503.5Q528 485 546.5 459.5Q565 434 575 405L443 341Q431 370 405 393.5Q379 417 330 417Q264 417 228 380Q192 343 192 265Q192 187 228 150Q264 113 330 113Q379 113 405 136.5Q431 160 443 189L575 125Q558 73 511 35Q464 -3 378 -11L371 -35Q389 -39 406 -46Q423 -53 437 -63.5Q451 -74 459.5 -88.5Q468 -103 468 -122Q468 -146 456.5 -163Q445 -180 425 -191.5Q405 -203 377.5 -208.5Q350 -214 319 -214Q274 -214 243.5 -206.5Q213 -199 201 -194L223 -130Q231 -134 240 -137Q256 -143 279 -145Q298 -147 317 -142Q336 -137 336 -119Q336 -101 310.5 -90.5Q285 -80 247 -76L271 -10Q162 5 103 75Q44 145 44 265Z" glyph-name="ccedilla" horiz-adv-x="614" unicode="&#231;" /><glyph d="M44 265Q44 401 119.5 472.5Q195 544 331 544Q386 544 427.5 533Q469 522 498.5 503.5Q528 485 546.5 459.5Q565 434 575 405L443 341Q431 370 405 393.5Q379 417 330 417Q264 417 228 380Q192 343 192 265Q192 187 228 150Q264 113 330 113Q379 113 405 136.5Q431 160 443 189L575 125Q565 96 546.5 70.5Q528 45 498.5 26.5Q469 8 427.5 -3Q386 -14 331 -14Q195 -14 119.5 57.5Q44 129 44 265ZM255 800H386L552 592H404L320 686L237 592H89Z" glyph-name="ccircumflex" horiz-adv-x="614" unicode="&#265;" /><glyph d="M44 265Q44 401 119.5 472.5Q195 544 331 544Q386 544 427.5 533Q469 522 498.5 503.5Q528 485 546.5 459.5Q565 434 575 405L443 341Q431 370 405 393.5Q379 417 330 417Q264 417 228 380Q192 343 192 265Q192 187 228 150Q264 113 330 113Q379 113 405 136.5Q431 160 443 189L575 125Q565 96 546.5 70.5Q528 45 498.5 26.5Q469 8 427.5 -3Q386 -14 331 -14Q195 -14 119.5 57.5Q44 129 44 265ZM230 692Q230 730 256 756Q282 782 320 782Q358 782 384 756Q410 730 410 692Q410 654 384 628Q358 602 320 602Q282 602 256 628Q230 654 230 692Z" glyph-name="cdotaccent" horiz-adv-x="614" unicode="&#267;" /><glyph d="M377 11 363 -35Q381 -39 398 -46Q415 -53 429 -63.5Q443 -74 451.5 -88.5Q460 -103 460 -122Q460 -146 448.5 -163Q437 -180 417 -191.5Q397 -203 369.5 -208.5Q342 -214 311 -214Q266 -214 235.5 -206.5Q205 -199 193 -194L215 -130Q223 -134 232 -137Q248 -143 271 -145Q290 -147 309 -142Q328 -137 328 -119Q328 -101 302.5 -90.5Q277 -80 239 -76L271 11Z" glyph-name="cedilla" horiz-adv-x="643" unicode="&#184;" /><glyph d="M192 380Q192 301 230 263L308 531Q252 525 222 488Q192 451 192 380ZM485 764 449 641Q502 624 531.5 591.5Q561 559 575 520L443 456Q437 469 429 481.5Q421 494 409 504L329 228H330Q379 228 405 251.5Q431 275 443 304L575 240Q565 211 546.5 185.5Q528 160 498.5 141.5Q469 123 427.5 112Q386 101 331 101Q321 101 311.5 101Q302 101 293 102L263 0H154L191 126Q120 156 82 220Q44 284 44 380Q44 516 119.5 587.5Q195 659 331 659H345L376 764Z" glyph-name="cent" horiz-adv-x="617" unicode="&#162;" /><glyph d="M256 800H387L553 592H405L321 686L238 592H90Z" glyph-name="circumflex" horiz-adv-x="643" unicode="&#710;" /><glyph d="M256 1030H387L553 822H405L321 916L238 822H90Z" glyph-name="circumflex.cap" horiz-adv-x="643" unicode="&#58403;" /><glyph d="M374 0Q394 37 408.5 73Q423 109 433.5 147Q444 185 450.5 227Q457 269 462 320L459 321Q445 290 424.5 261Q404 232 377 209.5Q350 187 317 173.5Q284 160 244 160Q205 160 170.5 173.5Q136 187 110.5 210.5Q85 234 70.5 265.5Q56 297 56 334Q56 373 69.5 406Q83 439 107.5 463Q132 487 166 500.5Q200 514 242 514Q270 514 291.5 507Q313 500 332 491L334 493Q317 518 305.5 547.5Q294 577 294 610Q294 647 308 680Q322 713 347.5 737.5Q373 762 407 776Q441 790 482 790Q522 790 557 776Q592 762 617 737.5Q642 713 656.5 680Q671 647 671 610Q671 577 659.5 547.5Q648 518 630 493L632 491Q651 500 673 507Q695 514 722 514Q764 514 798.5 500.5Q833 487 857.5 463Q882 439 895.5 406Q909 373 909 334Q909 297 894 265.5Q879 234 853.5 210.5Q828 187 793.5 173.5Q759 160 720 160Q680 160 647 173.5Q614 187 587 209.5Q560 232 539.5 261Q519 290 506 321L502 320Q506 269 513 227Q520 185 530.5 147Q541 109 555.5 73Q570 37 590 0Z" glyph-name="club" horiz-adv-x="964" unicode="&#9827;" /><glyph d="M46 402Q46 440 72 466Q98 492 136 492Q174 492 200 466Q226 440 226 402Q226 364 200 338Q174 312 136 312Q98 312 72 338Q46 364 46 402ZM46 80Q46 118 72 144Q98 170 136 170Q174 170 200 144Q226 118 226 80Q226 42 200 16Q174 -10 136 -10Q98 -10 72 16Q46 42 46 80Z" glyph-name="colon" horiz-adv-x="272" unicode=":" /><glyph d="M225 149 129 -127H20L56 149Z" glyph-name="comma" horiz-adv-x="272" unicode="," /><glyph d="M227 -200 242 -62H405L361 -200Z" glyph-name="commaaccent" horiz-adv-x="643" unicode="&#58388;" /><glyph d="M438 1030 388 822H234L307 1030Z" glyph-name="commaaccent.cap" horiz-adv-x="643" unicode="&#58414;" /><glyph d="M153 390Q153 325 179 268.5Q205 212 249.5 170Q294 128 354 103.5Q414 79 482 79Q550 79 610 103.5Q670 128 714.5 170Q759 212 785 268.5Q811 325 811 390Q811 454 785 511Q759 568 714.5 610Q670 652 610 676.5Q550 701 482 701Q414 701 354 676.5Q294 652 249.5 610Q205 568 179 511Q153 454 153 390ZM49 390Q49 474 83 547.5Q117 621 176 675.5Q235 730 313.5 762Q392 794 482 794Q572 794 650.5 762Q729 730 788 675.5Q847 621 881 547.5Q915 474 915 390Q915 306 881 232.5Q847 159 788 104.5Q729 50 650.5 18Q572 -14 482 -14Q392 -14 313.5 18Q235 50 176 104.5Q117 159 83 232.5Q49 306 49 390ZM226 390Q226 453 244.5 500.5Q263 548 297.5 579.5Q332 611 379.5 627Q427 643 486 643Q538 643 577 631.5Q616 620 644 601Q672 582 690 557Q708 532 717 505L593 445Q587 458 578 472Q569 486 556 497.5Q543 509 525.5 516Q508 523 485 523Q460 523 438.5 516Q417 509 400.5 493Q384 477 374.5 451.5Q365 426 365 390Q365 354 374.5 328.5Q384 303 400.5 287Q417 271 438.5 264Q460 257 485 257Q508 257 525.5 264Q543 271 556 282.5Q569 294 578 307.5Q587 321 593 335L717 275Q708 248 690 223Q672 198 644 179Q616 160 577 148.5Q538 137 486 137Q427 137 379.5 153Q332 169 297.5 200.5Q263 232 244.5 279.5Q226 327 226 390Z" glyph-name="copyright" horiz-adv-x="964" unicode="&#169;" /><glyph d="M134 219Q91 287 91 382Q91 434 103 476.5Q115 519 138 552L28 654L130 749L245 642Q280 660 323.5 669Q367 678 416 678Q464 678 507 669Q550 660 586 641L702 749L804 654L693 552Q716 519 728 476.5Q740 434 740 382Q740 332 728.5 291.5Q717 251 697 219L811 114L709 19L595 126Q519 86 416 86Q365 86 320 96Q275 106 237 126L122 19L20 114ZM416 214Q452 214 483.5 223Q515 232 539 252.5Q563 273 576.5 305Q590 337 590 382Q590 427 576.5 459Q563 491 539 511.5Q515 532 483.5 541Q452 550 416 550Q380 550 348 541Q316 532 292 511.5Q268 491 254.5 459Q241 427 241 382Q241 337 254.5 305Q268 273 292 252.5Q316 232 348 223Q380 214 416 214Z" glyph-name="currency" horiz-adv-x="831" unicode="&#164;" /><glyph d="M196 265Q196 188 234 151Q272 114 328 114Q356 114 379.5 121.5Q403 129 420 142Q437 155 448.5 170.5Q460 186 464 203V327Q460 343 448.5 359Q437 375 420 388Q403 401 379.5 408.5Q356 416 328 416Q300 416 276 406.5Q252 397 234 378.5Q216 360 206 331.5Q196 303 196 265ZM298 544Q349 544 391.5 527Q434 510 464 473V774L610 800V149Q610 113 644 113Q658 113 668 117V0Q658 -5 642.5 -9.5Q627 -14 605 -14Q582 -14 560.5 -10.5Q539 -7 521.5 2Q504 11 491 26Q478 41 471 64Q442 27 399.5 6.5Q357 -14 298 -14Q177 -14 110.5 57.5Q44 129 44 265Q44 401 110.5 472.5Q177 544 298 544Z" glyph-name="d" horiz-adv-x="698" unicode="d" /><glyph d="M234 389H109L131 593L12 582V680L131 669L119 780H224L212 669L331 680V582L212 593Z" glyph-name="dagger" horiz-adv-x="342" unicode="&#8224;" /><glyph d="M234 229H109L131 433L12 422V520L131 509L126 551L131 593L12 582V680L131 669L119 780H224L212 669L331 680V582L212 593L216 551L212 509L331 520V422L212 433Z" glyph-name="daggerdbl" horiz-adv-x="343" unicode="&#8225;" /><glyph d="M648 592 699 800H853L779 592ZM196 265Q196 188 234 151Q272 114 328 114Q356 114 379.5 121.5Q403 129 420 142Q437 155 448.5 170.5Q460 186 464 203V327Q460 343 448.5 359Q437 375 420 388Q403 401 379.5 408.5Q356 416 328 416Q300 416 276 406.5Q252 397 234 378.5Q216 360 206 331.5Q196 303 196 265ZM298 544Q349 544 391.5 527Q434 510 464 473V774L610 800V149Q610 113 644 113Q658 113 668 117V0Q658 -5 642.5 -9.5Q627 -14 605 -14Q582 -14 560.5 -10.5Q539 -7 521.5 2Q504 11 491 26Q478 41 471 64Q442 27 399.5 6.5Q357 -14 298 -14Q177 -14 110.5 57.5Q44 129 44 265Q44 401 110.5 472.5Q177 544 298 544Z" glyph-name="dcaron" horiz-adv-x="698" unicode="&#271;" /><glyph d="M196 265Q196 188 234 151Q272 114 328 114Q356 114 379.5 121.5Q403 129 420 142Q437 155 448.5 170.5Q460 186 464 203V327Q460 343 448.5 359Q437 375 420 388Q403 401 379.5 408.5Q356 416 328 416Q300 416 276 406.5Q252 397 234 378.5Q216 360 206 331.5Q196 303 196 265ZM298 544Q349 544 391.5 527Q434 510 464 473V607H327V709H464V774L610 800V709H707V607H610V149Q610 113 644 113Q658 113 668 117V0Q658 -5 642.5 -9.5Q627 -14 605 -14Q582 -14 560.5 -10.5Q539 -7 521.5 2Q504 11 491 26Q478 41 471 64Q442 27 399.5 6.5Q357 -14 298 -14Q177 -14 110.5 57.5Q44 129 44 265Q44 401 110.5 472.5Q177 544 298 544Z" glyph-name="dcroat" horiz-adv-x="698" unicode="&#273;" /><glyph d="M171 594Q171 552 196 532.5Q221 513 261 513Q302 513 326.5 532.5Q351 552 351 594Q351 636 326.5 655.5Q302 675 261 675Q221 675 196 655.5Q171 636 171 594ZM54 594Q54 640 69.5 675Q85 710 113 732.5Q141 755 178.5 766.5Q216 778 261 778Q306 778 344 766.5Q382 755 409.5 732.5Q437 710 453 675Q469 640 469 594Q469 547 453 512.5Q437 478 409.5 455.5Q382 433 344 421.5Q306 410 261 410Q216 410 178.5 421.5Q141 433 113 455.5Q85 478 69.5 512.5Q54 547 54 594Z" glyph-name="degree" horiz-adv-x="523" unicode="&#176;" /><glyph d="M875 390Q818 348 763 300.5Q708 253 658 201.5Q608 150 563.5 96.5Q519 43 483 -10H481Q445 43 401 96.5Q357 150 306.5 201.5Q256 253 201 300.5Q146 348 89 390Q146 432 201 479.5Q256 527 306.5 578.5Q357 630 401 683.5Q445 737 481 790H483Q519 737 563.5 683.5Q608 630 658 578.5Q708 527 763 479.5Q818 432 875 390Z" glyph-name="diamond" horiz-adv-x="964" unicode="&#9830;" /><glyph d="M117 692Q117 730 143 756Q169 782 207 782Q245 782 271 756Q297 730 297 692Q297 654 271 628Q245 602 207 602Q169 602 143 628Q117 654 117 692ZM347 692Q347 730 373 756Q399 782 437 782Q475 782 501 756Q527 730 527 692Q527 654 501 628Q475 602 437 602Q399 602 373 628Q347 654 347 692Z" glyph-name="dieresis" horiz-adv-x="643" unicode="&#168;" /><glyph d="M117 922Q117 960 143 986Q169 1012 207 1012Q245 1012 271 986Q297 960 297 922Q297 884 271 858Q245 832 207 832Q169 832 143 858Q117 884 117 922ZM347 922Q347 960 373 986Q399 1012 437 1012Q475 1012 501 986Q527 960 527 922Q527 884 501 858Q475 832 437 832Q399 832 373 858Q347 884 347 922Z" glyph-name="dieresis.cap" horiz-adv-x="643" unicode="&#58409;" /><glyph d="M455 120H295V270H455ZM455 510H295V660H455ZM86 323V457H664V323Z" glyph-name="divide" horiz-adv-x="750" unicode="&#247;" /><glyph d="M43 457H879V323H43ZM541 0H380V150H541ZM541 630H380V780H541Z" glyph-name="divide.cap" horiz-adv-x="921" unicode="&#58772;" /><glyph d="M229 545Q229 527 235 513.5Q241 500 254.5 490Q268 480 291 472.5Q314 465 349 461L404 650Q398 651 391.5 651Q385 651 378 651Q357 651 331 646.5Q305 642 282.5 630Q260 618 244.5 597.5Q229 577 229 545ZM559 227Q559 272 528.5 295Q498 318 420 329L357 113H378Q411 113 443.5 119Q476 125 501.5 138.5Q527 152 543 174Q559 196 559 227ZM186 -100 217 9Q152 31 114 72.5Q76 114 56 172L183 234Q205 169 255 140L314 341Q267 348 225 361Q183 374 151 397.5Q119 421 100 457Q81 493 81 546Q81 606 105 649.5Q129 693 170 721.5Q211 750 265 764Q319 778 379 778Q411 778 440 775L466 864H575L543 753Q603 730 640.5 690.5Q678 651 699 595L570 532Q548 594 505 622L455 450Q514 442 560.5 428.5Q607 415 639 390Q671 365 688 325.5Q705 286 705 227Q705 163 677.5 117.5Q650 72 605 42.5Q560 13 501.5 -0.5Q443 -14 382 -14Q348 -14 320 -11L295 -100Z" glyph-name="dollar" horiz-adv-x="762" unicode="$" /><glyph d="M232 692Q232 730 258 756Q284 782 322 782Q360 782 386 756Q412 730 412 692Q412 654 386 628Q360 602 322 602Q284 602 258 628Q232 654 232 692Z" glyph-name="dotaccent" horiz-adv-x="643" unicode="&#729;" /><glyph d="M232 922Q232 960 258 986Q284 1012 322 1012Q360 1012 386 986Q412 960 412 922Q412 884 386 858Q360 832 322 832Q284 832 258 858Q232 884 232 922Z" glyph-name="dotaccent.cap" horiz-adv-x="643" unicode="&#58408;" /><glyph d="M231 -124Q231 -86 257 -60Q283 -34 321 -34Q359 -34 385 -60Q411 -86 411 -124Q411 -162 385 -188Q359 -214 321 -214Q283 -214 257 -188Q231 -162 231 -124Z" glyph-name="dotbelow" horiz-adv-x="643" unicode="&#58389;" /><glyph d="M76 530H222V0H76Z" glyph-name="dotlessi" horiz-adv-x="298" unicode="&#305;" /><glyph d="M76 530H222V-2Q222 -43 213.5 -81Q205 -119 181 -148.5Q157 -178 113.5 -196Q70 -214 1 -214Q-31 -214 -56.5 -209Q-82 -204 -97 -198L-84 -69Q-73 -74 -50 -81.5Q-27 -89 -1 -87Q18 -86 32.5 -82Q47 -78 57 -68Q67 -58 71.5 -40.5Q76 -23 76 5Z" glyph-name="dotlessj" horiz-adv-x="298" unicode="&#567;" /><glyph d="M463 -130H313V830H463ZM238 -130H88V830H238Z" glyph-name="doublebar" horiz-adv-x="551" unicode="&#8214;" /><glyph d="M238 -20H88V800H238ZM463 -20H313V800H463Z" glyph-name="doublebar.cap" horiz-adv-x="551" unicode="&#58468;" /><glyph d="M193 800 294 592H150L31 800ZM393 800 494 592H349L230 800Z" glyph-name="doublegrave" horiz-adv-x="643" unicode="&#58386;" /><glyph d="M193 1030 294 822H150L31 1030ZM393 1030 494 822H349L230 1030Z" glyph-name="doublegrave.cap" horiz-adv-x="643" unicode="&#58412;" /><glyph d="M198 213Q201 156 237 130.5Q273 105 328 105Q356 105 378 111.5Q400 118 415.5 128.5Q431 139 440.5 152.5Q450 166 455 180L586 117Q575 92 556 68.5Q537 45 507 26.5Q477 8 433.5 -3Q390 -14 331 -14Q194 -14 119 57Q44 128 44 265Q44 402 118.5 473Q193 544 324 544Q456 544 525 472.5Q594 401 594 265V213ZM325 425Q271 425 238 400Q205 375 199 320H437Q433 425 325 425Z" glyph-name="e" horiz-adv-x="640" unicode="e" /><glyph d="M198 213Q201 156 237 130.5Q273 105 328 105Q356 105 378 111.5Q400 118 415.5 128.5Q431 139 440.5 152.5Q450 166 455 180L586 117Q575 92 556 68.5Q537 45 507 26.5Q477 8 433.5 -3Q390 -14 331 -14Q194 -14 119 57Q44 128 44 265Q44 402 118.5 473Q193 544 324 544Q456 544 525 472.5Q594 401 594 265V213ZM325 425Q271 425 238 400Q205 375 199 320H437Q433 425 325 425ZM512 800 393 592H250L350 800Z" glyph-name="eacute" horiz-adv-x="640" unicode="&#233;" /><glyph d="M198 213Q201 156 237 130.5Q273 105 328 105Q356 105 378 111.5Q400 118 415.5 128.5Q431 139 440.5 152.5Q450 166 455 180L586 117Q575 92 556 68.5Q537 45 507 26.5Q477 8 433.5 -3Q390 -14 331 -14Q194 -14 119 57Q44 128 44 265Q44 402 118.5 473Q193 544 324 544Q456 544 525 472.5Q594 401 594 265V213ZM325 425Q271 425 238 400Q205 375 199 320H437Q433 425 325 425ZM537 800Q538 749 527 709Q516 669 491 642Q466 615 425 600.5Q384 586 324 586Q264 586 223 600.5Q182 615 156.5 642Q131 669 120 709Q109 749 110 800H225Q224 749 247.5 728Q271 707 324 707Q376 707 399.5 728Q423 749 422 800Z" glyph-name="ebreve" horiz-adv-x="640" unicode="&#277;" /><glyph d="M198 213Q201 156 237 130.5Q273 105 328 105Q356 105 378 111.5Q400 118 415.5 128.5Q431 139 440.5 152.5Q450 166 455 180L586 117Q575 92 556 68.5Q537 45 507 26.5Q477 8 433.5 -3Q390 -14 331 -14Q194 -14 119 57Q44 128 44 265Q44 402 118.5 473Q193 544 324 544Q456 544 525 472.5Q594 401 594 265V213ZM325 425Q271 425 238 400Q205 375 199 320H437Q433 425 325 425ZM389 592H258L92 800H240L324 706L407 800H555Z" glyph-name="ecaron" horiz-adv-x="640" unicode="&#283;" /><glyph d="M198 213Q201 156 237 130.5Q273 105 328 105Q356 105 378 111.5Q400 118 415.5 128.5Q431 139 440.5 152.5Q450 166 455 180L586 117Q575 92 556 68.5Q537 45 507 26.5Q477 8 433.5 -3Q390 -14 331 -14Q194 -14 119 57Q44 128 44 265Q44 402 118.5 473Q193 544 324 544Q456 544 525 472.5Q594 401 594 265V213ZM325 425Q271 425 238 400Q205 375 199 320H437Q433 425 325 425ZM258 800H389L555 592H407L324 686L240 592H92Z" glyph-name="ecircumflex" horiz-adv-x="640" unicode="&#234;" /><glyph d="M198 213Q201 156 237 130.5Q273 105 328 105Q356 105 378 111.5Q400 118 415.5 128.5Q431 139 440.5 152.5Q450 166 455 180L586 117Q575 92 556 68.5Q537 45 507 26.5Q477 8 433.5 -3Q390 -14 331 -14Q194 -14 119 57Q44 128 44 265Q44 402 118.5 473Q193 544 324 544Q456 544 525 472.5Q594 401 594 265V213ZM325 425Q271 425 238 400Q205 375 199 320H437Q433 425 325 425ZM349 692Q349 730 375 756Q401 782 439 782Q477 782 503 756Q529 730 529 692Q529 654 503 628Q477 602 439 602Q401 602 375 628Q349 654 349 692ZM119 692Q119 730 145 756Q171 782 209 782Q247 782 273 756Q299 730 299 692Q299 654 273 628Q247 602 209 602Q171 602 145 628Q119 654 119 692Z" glyph-name="edieresis" horiz-adv-x="640" unicode="&#235;" /><glyph d="M198 213Q201 156 237 130.5Q273 105 328 105Q356 105 378 111.5Q400 118 415.5 128.5Q431 139 440.5 152.5Q450 166 455 180L586 117Q575 92 556 68.5Q537 45 507 26.5Q477 8 433.5 -3Q390 -14 331 -14Q194 -14 119 57Q44 128 44 265Q44 402 118.5 473Q193 544 324 544Q456 544 525 472.5Q594 401 594 265V213ZM325 425Q271 425 238 400Q205 375 199 320H437Q433 425 325 425ZM233 692Q233 730 259 756Q285 782 323 782Q361 782 387 756Q413 730 413 692Q413 654 387 628Q361 602 323 602Q285 602 259 628Q233 654 233 692Z" glyph-name="edotaccent" horiz-adv-x="640" unicode="&#279;" /><glyph d="M198 213Q201 156 237 130.5Q273 105 328 105Q356 105 378 111.5Q400 118 415.5 128.5Q431 139 440.5 152.5Q450 166 455 180L586 117Q575 92 556 68.5Q537 45 507 26.5Q477 8 433.5 -3Q390 -14 331 -14Q194 -14 119 57Q44 128 44 265Q44 402 118.5 473Q193 544 324 544Q456 544 525 472.5Q594 401 594 265V213ZM325 425Q271 425 238 400Q205 375 199 320H437Q433 425 325 425ZM300 800 401 592H257L138 800Z" glyph-name="egrave" horiz-adv-x="640" unicode="&#232;" /><glyph d="M375 -14Q211 -14 133 44.5Q55 103 55 210Q55 249 64.5 279.5Q74 310 90 333Q106 356 127 371.5Q148 387 171 396Q131 415 103.5 457.5Q76 500 76 561Q76 622 100.5 663.5Q125 705 166 730.5Q207 756 261 767Q315 778 375 778Q435 778 489 767Q543 756 584 730.5Q625 705 649.5 663.5Q674 622 674 561Q674 500 646.5 457.5Q619 415 579 396Q602 387 623 371.5Q644 356 660 333Q676 310 685.5 279.5Q695 249 695 210Q695 103 616.5 44.5Q538 -14 375 -14ZM375 116Q455 116 501 140Q547 164 547 219Q547 255 531.5 277.5Q516 300 491.5 312Q467 324 436 328.5Q405 333 375 333Q345 333 314 328.5Q283 324 258 312Q233 300 217.5 277.5Q202 255 202 219Q202 164 248.5 140Q295 116 375 116ZM375 451Q404 451 431 454.5Q458 458 479 469Q500 480 512.5 499.5Q525 519 525 552Q525 579 513.5 597.5Q502 616 482 627Q462 638 434.5 642.5Q407 647 375 647Q343 647 315.5 642.5Q288 638 268 627Q248 616 236.5 597.5Q225 579 225 552Q225 519 237.5 499.5Q250 480 271 469Q292 458 319 454.5Q346 451 375 451Z" glyph-name="eight" horiz-adv-x="750" unicode="8" /><glyph d="M370 -14Q206 -14 128 44.5Q50 103 50 210Q50 249 59.5 279.5Q69 310 85 333Q101 356 122 371.5Q143 387 166 396Q126 415 98.5 457.5Q71 500 71 561Q71 622 95.5 663.5Q120 705 161 730.5Q202 756 256 767Q310 778 370 778Q430 778 484 767Q538 756 579 730.5Q620 705 644.5 663.5Q669 622 669 561Q669 500 641.5 457.5Q614 415 574 396Q597 387 618 371.5Q639 356 655 333Q671 310 680.5 279.5Q690 249 690 210Q690 103 611.5 44.5Q533 -14 370 -14ZM370 116Q450 116 496 140Q542 164 542 219Q542 255 526.5 277.5Q511 300 486.5 312Q462 324 431 328.5Q400 333 370 333Q340 333 309 328.5Q278 324 253 312Q228 300 212.5 277.5Q197 255 197 219Q197 164 243.5 140Q290 116 370 116ZM370 451Q399 451 426 454.5Q453 458 474 469Q495 480 507.5 499.5Q520 519 520 552Q520 579 508.5 597.5Q497 616 477 627Q457 638 429.5 642.5Q402 647 370 647Q338 647 310.5 642.5Q283 638 263 627Q243 616 231.5 597.5Q220 579 220 552Q220 519 232.5 499.5Q245 480 266 469Q287 458 314 454.5Q341 451 370 451Z" glyph-name="eight.LP" horiz-adv-x="740" unicode="&#58685;" /><glyph d="M234 -214Q48 -214 48 -88Q48 -49 63 -26.5Q78 -4 101 7Q82 19 71 40.5Q60 62 60 91Q60 127 74.5 151Q89 175 113 189.5Q137 204 168.5 210Q200 216 234 216Q268 216 299 210Q330 204 354 189.5Q378 175 392.5 151Q407 127 407 91Q407 62 396 40.5Q385 19 366 7Q389 -4 404 -26.5Q419 -49 419 -88Q419 -214 234 -214ZM234 -115Q265 -115 283.5 -106.5Q302 -98 302 -77Q302 -65 296 -57Q290 -49 280.5 -44.5Q271 -40 258.5 -38.5Q246 -37 234 -37Q221 -37 208.5 -38.5Q196 -40 186.5 -44.5Q177 -49 171 -57Q165 -65 165 -77Q165 -98 183.5 -106.5Q202 -115 234 -115ZM234 46Q260 46 278 53Q296 60 296 82Q296 102 278 109.5Q260 117 234 117Q208 117 189.5 109.5Q171 102 171 82Q171 60 189.5 53Q208 46 234 46Z" glyph-name="eight.inf" horiz-adv-x="467" unicode="&#58745;" /><glyph d="M810 80Q810 118 836 144Q862 170 900 170Q938 170 964 144Q990 118 990 80Q990 42 964 16Q938 -10 900 -10Q862 -10 836 16Q810 42 810 80ZM457 80Q457 118 483 144Q509 170 547 170Q585 170 611 144Q637 118 637 80Q637 42 611 16Q585 -10 547 -10Q509 -10 483 16Q457 42 457 80ZM102 80Q102 118 128 144Q154 170 192 170Q230 170 256 144Q282 118 282 80Q282 42 256 16Q230 -10 192 -10Q154 -10 128 16Q102 42 102 80Z" glyph-name="ellipsis" horiz-adv-x="1093" unicode="&#8230;" /><glyph d="M198 213Q201 156 237 130.5Q273 105 328 105Q356 105 378 111.5Q400 118 415.5 128.5Q431 139 440.5 152.5Q450 166 455 180L586 117Q575 92 556 68.5Q537 45 507 26.5Q477 8 433.5 -3Q390 -14 331 -14Q194 -14 119 57Q44 128 44 265Q44 402 118.5 473Q193 544 324 544Q456 544 525 472.5Q594 401 594 265V213ZM325 425Q271 425 238 400Q205 375 199 320H437Q433 425 325 425ZM159 760H489V635H159Z" glyph-name="emacron" horiz-adv-x="640" unicode="&#275;" /><glyph d="M1023 272H48V400H1023Z" glyph-name="emdash" horiz-adv-x="1071" unicode="&#8212;" /><glyph d="M1023 326H48V454H1023Z" glyph-name="emdash.cap" horiz-adv-x="1071" unicode="&#58502;" /><glyph glyph-name="emspace" horiz-adv-x="1071" unicode="&#8195;" /><glyph d="M48 272V400H487V272Z" glyph-name="endash" horiz-adv-x="536" unicode="&#8211;" /><glyph d="M48 326V454H487V326Z" glyph-name="endash.cap" horiz-adv-x="536" unicode="&#58500;" /><glyph d="M455 337Q455 379 428 397.5Q401 416 356 416Q328 416 304.5 408Q281 400 262 387.5Q243 375 230.5 359Q218 343 213 328V0H69V530H193L205 459Q235 499 281 521.5Q327 544 381 544Q480 544 540.5 498Q601 452 601 357V-2Q601 -43 592.5 -81Q584 -119 560 -148.5Q536 -178 493 -196Q450 -214 380 -214Q348 -214 322.5 -209Q297 -204 282 -198L296 -69Q307 -74 329.5 -81.5Q352 -89 378 -87Q398 -86 412.5 -82Q427 -78 436.5 -68Q446 -58 450.5 -40.5Q455 -23 455 5Z" glyph-name="eng" horiz-adv-x="658" unicode="&#331;" /><glyph glyph-name="enspace" horiz-adv-x="536" unicode="&#8194;" /><glyph d="M325 425Q271 425 238 400Q205 375 199 320H437Q433 425 325 425ZM198 213Q201 156 237 130.5Q273 105 328 105Q356 105 378 111.5Q400 118 415.5 128.5Q431 139 440.5 152.5Q450 166 455 180L586 117Q569 80 535 47.5Q501 15 437 -2Q392 -16 369 -38Q346 -60 346 -82Q346 -95 354.5 -105.5Q363 -116 386 -116Q397 -116 408.5 -113Q420 -110 429 -106.5Q438 -103 443.5 -100Q449 -97 449 -97L480 -189Q463 -199 434 -206.5Q405 -214 368 -214Q304 -214 267 -182.5Q230 -151 230 -93Q230 -69 238.5 -48Q247 -27 262 -9Q157 8 100.5 77.5Q44 147 44 265Q44 402 118.5 473Q193 544 324 544Q456 544 525 472.5Q594 401 594 265V213Z" glyph-name="eogonek" horiz-adv-x="640" unicode="&#281;" /><glyph d="M86 438V572H664V438ZM86 208V342H664V208Z" glyph-name="equal" horiz-adv-x="750" unicode="=" /><glyph d="M43 591H879V457H43ZM43 323H879V189H43Z" glyph-name="equal.cap" horiz-adv-x="921" unicode="&#58773;" /><glyph d="M40 40V161H382V40ZM40 -125V-4H382V-125Z" glyph-name="equal.inf" horiz-adv-x="422" unicode="&#58749;" /><glyph d="M86 323V457H664V323ZM86 526V660H664V526ZM86 120V254H664V120Z" glyph-name="equivalence" horiz-adv-x="750" unicode="&#8801;" /><glyph d="M433 689Q365 689 319 669.5Q273 650 244.5 615.5Q216 581 202.5 534.5Q189 488 185 433H678Q675 488 661.5 534.5Q648 581 619.5 615.5Q591 650 545.5 669.5Q500 689 433 689ZM834 260Q823 188 789.5 136.5Q756 85 704 51.5Q652 18 583 2Q514 -14 432 -14Q339 -14 262.5 14Q186 42 130.5 94Q75 146 44.5 219.5Q14 293 14 385Q14 476 44.5 550Q75 624 130.5 676Q186 728 262.5 756Q339 784 432 784Q524 784 601 756Q678 728 733.5 676Q789 624 819.5 550Q850 476 850 385V337H184Q188 282 202 235.5Q216 189 244.5 154.5Q273 120 319 100.5Q365 81 433 81Q671 81 709 260Z" glyph-name="estimated" horiz-adv-x="864" unicode="&#8494;" /><glyph d="M322 113Q381 113 416.5 147.5Q452 182 452 265Q452 347 416.5 381.5Q381 416 322 416Q262 416 227 382Q192 348 192 265Q192 182 227 147.5Q262 113 322 113ZM322 -13Q258 -13 206.5 4.5Q155 22 119 57Q83 92 63.5 144Q44 196 44 265Q44 334 63 386Q82 438 118 473Q154 508 205 525.5Q256 543 320 543Q343 543 366.5 538Q390 533 407 524Q394 556 375.5 582.5Q357 609 337 631L139 562V655L265 698Q214 735 161 759Q108 783 66 800H299Q321 789 345.5 775.5Q370 762 396 743L536 791V700L468 676Q495 646 519 606Q543 566 561 515Q579 464 589.5 402Q600 340 600 265Q600 127 525.5 57Q451 -13 322 -13Z" glyph-name="eth" horiz-adv-x="645" unicode="&#240;" /><glyph d="M62 80Q62 118 88 144Q114 170 152 170Q190 170 216 144Q242 118 242 80Q242 42 216 16Q190 -10 152 -10Q114 -10 88 16Q62 42 62 80ZM238 780 207 229H97L66 780Z" glyph-name="exclam" horiz-adv-x="304" unicode="!" /><glyph d="M62 450Q62 488 88 514Q114 540 152 540Q190 540 216 514Q242 488 242 450Q242 412 216 386Q190 360 152 360Q114 360 88 386Q62 412 62 450ZM69 -200 97 301H207L236 -200Z" glyph-name="exclamdown" horiz-adv-x="305" unicode="&#161;" /><glyph d="M62 700Q62 738 88 764Q114 790 152 790Q190 790 216 764Q242 738 242 700Q242 662 216 636Q190 610 152 610Q114 610 88 636Q62 662 62 700ZM66 0 97 551H207L238 0Z" glyph-name="exclamdown.cap" horiz-adv-x="304" unicode="&#58433;" /><glyph d="M31 530H142V602Q142 642 150.5 680.5Q159 719 183 748.5Q207 778 250.5 796Q294 814 363 814Q395 814 420.5 809Q446 804 462 798L448 669Q437 674 414.5 681.5Q392 689 365 687Q345 686 331 682Q317 678 307 668Q297 658 292.5 640.5Q288 623 288 595V530H440V407H288V0H142V407L31 419Z" glyph-name="f" horiz-adv-x="468" unicode="f" /><glyph d="M544 530H690V0H544ZM31 530H142V602Q142 642 150.5 680.5Q159 719 183 748.5Q207 778 250.5 796Q294 814 363 814Q395 814 420.5 809Q446 804 462 798L448 669Q437 674 414.5 681.5Q392 689 365 687Q345 686 331 682Q317 678 307 668Q297 658 292.5 640.5Q288 623 288 595V530H440V407H288V0H142V407L31 419Z" glyph-name="f_dotlessi" horiz-adv-x="766" unicode="&#59248;" /><glyph d="M527 692Q527 730 553 756Q579 782 617 782Q655 782 681 756Q707 730 707 692Q707 654 681 628Q655 602 617 602Q579 602 553 628Q527 654 527 692ZM544 530H690V0H544ZM31 530H142V602Q142 642 150.5 680.5Q159 719 183 748.5Q207 778 250.5 796Q294 814 363 814Q395 814 420.5 809Q446 804 462 798L448 669Q437 674 414.5 681.5Q392 689 365 687Q345 686 331 682Q317 678 307 668Q297 658 292.5 640.5Q288 623 288 595V530H440V407H288V0H142V407L31 419Z" glyph-name="fi" horiz-adv-x="766" unicode="&#64257;" /><glyph d="M48 272V400H702V272Z" glyph-name="figuredash" horiz-adv-x="750" unicode="&#8210;" /><glyph d="M48 326V454H702V326Z" glyph-name="figuredash.cap" horiz-adv-x="750" unicode="&#58503;" /><glyph glyph-name="figurespace" horiz-adv-x="750" unicode="&#8199;" /><glyph d="M200 237Q223 173 264 144Q305 115 374 115Q406 115 435.5 123.5Q465 132 488.5 150Q512 168 526 195.5Q540 223 540 261Q541 336 502.5 369Q464 402 387 402Q336 402 290.5 386.5Q245 371 219 333L93 360L136 764H644V634H267L251 486Q277 506 315.5 515.5Q354 525 391 525Q534 525 611.5 460Q689 395 689 263Q689 192 664.5 140Q640 88 597.5 53.5Q555 19 497.5 2.5Q440 -14 374 -14Q309 -14 257.5 -0.5Q206 13 167.5 37.5Q129 62 103.5 96.5Q78 131 66 172Z" glyph-name="five" horiz-adv-x="750" unicode="5" /><glyph d="M200 237Q223 173 264 144Q305 115 374 115Q406 115 435.5 123.5Q465 132 488.5 150Q512 168 526 195.5Q540 223 540 261Q541 336 502.5 369Q464 402 387 402Q336 402 290.5 386.5Q245 371 219 333L93 360L136 764H644V634H267L251 486Q277 506 315.5 515.5Q354 525 391 525Q534 525 611.5 460Q689 395 689 263Q689 192 664.5 140Q640 88 597.5 53.5Q555 19 497.5 2.5Q440 -14 374 -14Q309 -14 257.5 -0.5Q206 13 167.5 37.5Q129 62 103.5 96.5Q78 131 66 172Z" glyph-name="five.LP" horiz-adv-x="750" unicode="&#58682;" /><glyph d="M65 -17 90 202H389V100H186L181 60Q192 65 210.5 68Q229 71 246 71Q284 71 314.5 64Q345 57 366.5 41Q388 25 399.5 -1Q411 -27 411 -65Q411 -105 397 -133.5Q383 -162 358 -180Q333 -198 300 -206.5Q267 -215 229 -215Q140 -215 97 -180.5Q54 -146 48 -77L165 -68Q169 -96 185 -106.5Q201 -117 230 -116Q256 -116 275 -103.5Q294 -91 295 -63Q295 -8 234 -8Q212 -7 193.5 -14.5Q175 -22 165 -37Z" glyph-name="five.inf" horiz-adv-x="460" unicode="&#58742;" /><glyph d="M544 774 690 800V149Q690 113 724 113Q738 113 748 117V0Q738 -5 722.5 -9.5Q707 -14 685 -14Q656 -14 630 -8.5Q604 -3 585 12Q566 27 555 53Q544 79 544 120ZM31 530H142V602Q142 642 150.5 680.5Q159 719 183 748.5Q207 778 250.5 796Q294 814 363 814Q395 814 420.5 809Q446 804 462 798L448 669Q437 674 414.5 681.5Q392 689 365 687Q345 686 331 682Q317 678 307 668Q297 658 292.5 640.5Q288 623 288 595V530H440V407H288V0H142V407L31 419Z" glyph-name="fl" horiz-adv-x="783" unicode="&#64258;" /><glyph d="M31 332V455H142V566Q142 606 150.5 644.5Q159 683 183 712.5Q207 742 250.5 760Q294 778 363 778Q395 778 420.5 773Q446 768 462 762L448 633Q437 638 414.5 645.5Q392 653 365 651Q345 650 331 646Q317 642 307 632Q297 622 292.5 604.5Q288 587 288 559V455H440V332H288V-2Q288 -43 279.5 -81Q271 -119 247 -148.5Q223 -178 180 -196Q137 -214 67 -214Q35 -214 9.5 -209Q-16 -204 -31 -198L-17 -69Q-6 -74 16.5 -81.5Q39 -89 65 -87Q85 -86 99.5 -82Q114 -78 123.5 -68Q133 -58 137.5 -40.5Q142 -23 142 5V332Z" glyph-name="florin" horiz-adv-x="479" unicode="&#402;" /><glyph d="M584 492V297H699V168H584V0H438V168H48V261L429 778H573L229 297H438V466Z" glyph-name="four" horiz-adv-x="750" unicode="4" /><glyph d="M594 492V297H709V168H594V0H448V168H58V261L439 778H583L239 297H448V466Z" glyph-name="four.LP" horiz-adv-x="767" unicode="&#58681;" /><glyph d="M239 60 174 -28H239ZM354 -130V-200H239V-130H35V-52L252 216H354V-28H426V-130Z" glyph-name="four.inf" horiz-adv-x="466" unicode="&#58741;" /><glyph glyph-name="fourperemspace" horiz-adv-x="268" unicode="&#8197;" /><glyph d="M-73 0H-224L333 764H485Z" glyph-name="fraction" horiz-adv-x="260" unicode="&#8260;" /><glyph d="M317 269V0H156V269H44V368H156V407H44V505H156V764H658V629H317V505H568V407H317V368H568V269Z" glyph-name="franc" horiz-adv-x="676" unicode="&#8355;" /><glyph d="M196 279Q196 241 206 214.5Q216 188 234 172Q252 156 276 149Q300 142 328 142Q356 142 379.5 149.5Q403 157 420 170Q437 183 448.5 198.5Q460 214 464 231V327Q460 343 448.5 359Q437 375 420 388Q403 401 379.5 408.5Q356 416 328 416Q300 416 276 409Q252 402 234 386Q216 370 206 343.5Q196 317 196 279ZM174 -10Q186 -42 222 -67Q258 -92 322 -92Q394 -92 429 -58Q464 -24 464 29V84Q438 55 395 34.5Q352 14 289 14Q235 14 190 30Q145 46 112.5 79Q80 112 62 161.5Q44 211 44 279Q44 346 62 396Q80 446 112.5 479Q145 512 190 528Q235 544 289 544Q358 544 403 520Q448 496 474 462L485 530H610V29Q610 -24 590.5 -68.5Q571 -113 534.5 -145Q498 -177 446 -195.5Q394 -214 330 -214Q202 -214 134 -175Q66 -136 44 -74Z" glyph-name="g" horiz-adv-x="678" unicode="g" /><glyph d="M196 279Q196 241 206 214.5Q216 188 234 172Q252 156 276 149Q300 142 328 142Q356 142 379.5 149.5Q403 157 420 170Q437 183 448.5 198.5Q460 214 464 231V327Q460 343 448.5 359Q437 375 420 388Q403 401 379.5 408.5Q356 416 328 416Q300 416 276 409Q252 402 234 386Q216 370 206 343.5Q196 317 196 279ZM174 -10Q186 -42 222 -67Q258 -92 322 -92Q394 -92 429 -58Q464 -24 464 29V84Q438 55 395 34.5Q352 14 289 14Q235 14 190 30Q145 46 112.5 79Q80 112 62 161.5Q44 211 44 279Q44 346 62 396Q80 446 112.5 479Q145 512 190 528Q235 544 289 544Q358 544 403 520Q448 496 474 462L485 530H610V29Q610 -24 590.5 -68.5Q571 -113 534.5 -145Q498 -177 446 -195.5Q394 -214 330 -214Q202 -214 134 -175Q66 -136 44 -74ZM541 800Q542 749 531 709Q520 669 495 642Q470 615 429 600.5Q388 586 328 586Q268 586 227 600.5Q186 615 160.5 642Q135 669 124.5 709Q114 749 115 800H229Q228 749 251.5 728Q275 707 328 707Q380 707 403.5 728Q427 749 426 800Z" glyph-name="gbreve" horiz-adv-x="678" unicode="&#287;" /><glyph d="M196 279Q196 241 206 214.5Q216 188 234 172Q252 156 276 149Q300 142 328 142Q356 142 379.5 149.5Q403 157 420 170Q437 183 448.5 198.5Q460 214 464 231V327Q460 343 448.5 359Q437 375 420 388Q403 401 379.5 408.5Q356 416 328 416Q300 416 276 409Q252 402 234 386Q216 370 206 343.5Q196 317 196 279ZM174 -10Q186 -42 222 -67Q258 -92 322 -92Q394 -92 429 -58Q464 -24 464 29V84Q438 55 395 34.5Q352 14 289 14Q235 14 190 30Q145 46 112.5 79Q80 112 62 161.5Q44 211 44 279Q44 346 62 396Q80 446 112.5 479Q145 512 190 528Q235 544 289 544Q358 544 403 520Q448 496 474 462L485 530H610V29Q610 -24 590.5 -68.5Q571 -113 534.5 -145Q498 -177 446 -195.5Q394 -214 330 -214Q202 -214 134 -175Q66 -136 44 -74ZM262 800H393L559 592H411L328 686L244 592H96Z" glyph-name="gcircumflex" horiz-adv-x="678" unicode="&#285;" /><glyph d="M196 279Q196 241 206 214.5Q216 188 234 172Q252 156 276 149Q300 142 328 142Q356 142 379.5 149.5Q403 157 420 170Q437 183 448.5 198.5Q460 214 464 231V327Q460 343 448.5 359Q437 375 420 388Q403 401 379.5 408.5Q356 416 328 416Q300 416 276 409Q252 402 234 386Q216 370 206 343.5Q196 317 196 279ZM174 -10Q186 -42 222 -67Q258 -92 322 -92Q394 -92 429 -58Q464 -24 464 29V84Q438 55 395 34.5Q352 14 289 14Q235 14 190 30Q145 46 112.5 79Q80 112 62 161.5Q44 211 44 279Q44 346 62 396Q80 446 112.5 479Q145 512 190 528Q235 544 289 544Q358 544 403 520Q448 496 474 462L485 530H610V29Q610 -24 590.5 -68.5Q571 -113 534.5 -145Q498 -177 446 -195.5Q394 -214 330 -214Q202 -214 134 -175Q66 -136 44 -74ZM445 800 394 592H240L314 800Z" glyph-name="gcommaaccent" horiz-adv-x="670" unicode="&#291;" /><glyph d="M196 279Q196 241 206 214.5Q216 188 234 172Q252 156 276 149Q300 142 328 142Q356 142 379.5 149.5Q403 157 420 170Q437 183 448.5 198.5Q460 214 464 231V327Q460 343 448.5 359Q437 375 420 388Q403 401 379.5 408.5Q356 416 328 416Q300 416 276 409Q252 402 234 386Q216 370 206 343.5Q196 317 196 279ZM174 -10Q186 -42 222 -67Q258 -92 322 -92Q394 -92 429 -58Q464 -24 464 29V84Q438 55 395 34.5Q352 14 289 14Q235 14 190 30Q145 46 112.5 79Q80 112 62 161.5Q44 211 44 279Q44 346 62 396Q80 446 112.5 479Q145 512 190 528Q235 544 289 544Q358 544 403 520Q448 496 474 462L485 530H610V29Q610 -24 590.5 -68.5Q571 -113 534.5 -145Q498 -177 446 -195.5Q394 -214 330 -214Q202 -214 134 -175Q66 -136 44 -74ZM237 692Q237 730 263 756Q289 782 327 782Q365 782 391 756Q417 730 417 692Q417 654 391 628Q365 602 327 602Q289 602 263 628Q237 654 237 692Z" glyph-name="gdotaccent" horiz-adv-x="678" unicode="&#289;" /><glyph d="M379 809Q434 809 484 796.5Q534 784 572 760Q610 736 632.5 700Q655 664 655 616Q655 569 641 539.5Q627 510 606.5 491.5Q586 473 562.5 463Q539 453 521 446Q505 440 490.5 434.5Q476 429 465 422Q454 415 447.5 405.5Q441 396 441 382Q441 369 452 360.5Q463 352 480 346Q497 340 517.5 335.5Q538 331 556 327Q577 322 604 313.5Q631 305 654.5 287.5Q678 270 694 240.5Q710 211 710 165Q710 119 693.5 85.5Q677 52 647.5 30Q618 8 578.5 -3Q539 -14 494 -14Q440 -14 402.5 -4Q365 6 340 23.5Q315 41 300 65Q285 89 275 118L399 178Q407 153 429 131.5Q451 110 492 109Q562 109 562 164Q562 193 536 205.5Q510 218 461 228Q438 232 409 240.5Q380 249 355 265.5Q330 282 313 309Q296 336 296 378Q296 423 311.5 452Q327 481 349 498.5Q371 516 395 525.5Q419 535 436 541Q474 555 491 570Q508 585 508 614Q508 647 477 666.5Q446 686 379 686Q328 686 297 672.5Q266 659 248.5 636Q231 613 225 582Q219 551 219 515V0H74V521Q74 668 146 738.5Q218 809 379 809Z" glyph-name="germandbls" horiz-adv-x="740" unicode="&#223;" /><glyph d="M298 800 399 592H255L136 800Z" glyph-name="grave" horiz-adv-x="643" unicode="`" /><glyph d="M298 1030 399 822H255L136 1030Z" glyph-name="grave.cap" horiz-adv-x="643" unicode="&#58401;" /><glyph d="M359 439 86 545V691L664 447V333L86 89V235L359 341L496 390Z" glyph-name="greater" horiz-adv-x="750" unicode="&gt;" /><glyph d="M705 390 555 449 43 656V794L879 451V329L43 -14V124L555 331Z" glyph-name="greater.cap" horiz-adv-x="921" unicode="&#58775;" /><glyph d="M664 397 86 249V395L337 440L471 460L337 487L86 540V686L664 520ZM86 87V186L664 352V257Z" glyph-name="greaterequal" horiz-adv-x="750" unicode="&#8805;" /><glyph d="M504 125 281 267V363L504 505V394L408 315L504 236ZM268 125 45 267V363L268 505V394L172 315L268 236Z" glyph-name="guillemotleft" horiz-adv-x="557" unicode="&#171;" /><glyph d="M504 200 281 342V438L504 580V469L408 390L504 311ZM268 200 45 342V438L268 580V469L172 390L268 311Z" glyph-name="guillemotleft.cap" horiz-adv-x="557" unicode="&#58451;" /><glyph d="M289 236 385 315 289 394V505L512 363V267L289 125ZM54 236 149 315 54 394V505L276 363V267L54 125Z" glyph-name="guillemotright" horiz-adv-x="557" unicode="&#187;" /><glyph d="M289 311 385 390 289 469V580L512 438V342L289 200ZM54 311 149 390 54 469V580L276 438V342L54 200Z" glyph-name="guillemotright.cap" horiz-adv-x="557" unicode="&#58452;" /><glyph d="M268 125 45 267V363L268 505V394L172 315L268 236Z" glyph-name="guilsinglleft" horiz-adv-x="321" unicode="&#8249;" /><glyph d="M268 200 45 342V438L268 580V469L172 390L268 311Z" glyph-name="guilsinglleft.cap" horiz-adv-x="321" unicode="&#58449;" /><glyph d="M54 236 149 315 54 394V505L276 363V267L54 125Z" glyph-name="guilsinglright" horiz-adv-x="321" unicode="&#8250;" /><glyph d="M54 311 149 390 54 469V580L276 438V342L54 200Z" glyph-name="guilsinglright.cap" horiz-adv-x="321" unicode="&#58450;" /><glyph d="M209 800V470Q241 505 285 524.5Q329 544 381 544Q429 544 468.5 532.5Q508 521 536.5 498Q565 475 581 440Q597 405 597 357V0H451V337Q451 379 423.5 397.5Q396 416 351 416Q323 416 299.5 408Q276 400 257.5 387.5Q239 375 226.5 359Q214 343 209 328V0H63V774Z" glyph-name="h" horiz-adv-x="655" unicode="h" /><glyph glyph-name="hairspace" horiz-adv-x="107" unicode="&#8202;" /><glyph d="M214 800V709H352V607H214V470Q246 505 290 524.5Q334 544 386 544Q434 544 473.5 532.5Q513 521 541.5 498Q570 475 586 440Q602 405 602 357V0H456V337Q456 379 428.5 397.5Q401 416 356 416Q328 416 304.5 408Q281 400 262.5 387.5Q244 375 231.5 359Q219 343 214 328V0H68V607H-28V709H68V774Z" glyph-name="hbar" horiz-adv-x="660" unicode="&#295;" /><glyph d="M209 800V470Q241 505 285 524.5Q329 544 381 544Q429 544 468.5 532.5Q508 521 536.5 498Q565 475 581 440Q597 405 597 357V0H451V337Q451 379 423.5 397.5Q396 416 351 416Q323 416 299.5 408Q276 400 257.5 387.5Q239 375 226.5 359Q214 343 209 328V0H63V774ZM71 1030H201L367 822H220L136 916L52 822H-95Z" glyph-name="hcircumflex" horiz-adv-x="655" unicode="&#293;" /><glyph d="M481 -10Q468 9 443.5 40Q419 71 386 110Q353 149 313.5 193.5Q274 238 231 283Q203 312 172.5 348Q142 384 116 423.5Q90 463 73 504Q56 545 56 584Q56 628 70 666Q84 704 110.5 731.5Q137 759 175 774.5Q213 790 260 790Q310 790 346 777Q382 764 408 742.5Q434 721 451 692.5Q468 664 480 633H484Q496 664 513 692.5Q530 721 556 742.5Q582 764 618 777Q654 790 704 790Q751 790 789 774.5Q827 759 853.5 731.5Q880 704 894.5 666Q909 628 909 584Q909 545 892 504Q875 463 849 423.5Q823 384 792 348Q761 312 733 283Q690 238 651 193.5Q612 149 579 110Q546 71 521 40Q496 9 483 -10Z" glyph-name="heart" horiz-adv-x="964" unicode="&#9829;" /><glyph d="M75 0V450L455 790L836 450V0Z" glyph-name="house" horiz-adv-x="911" unicode="&#8962;" /><glyph d="M612 800 493 592H349L450 800ZM412 800 294 592H149L250 800Z" glyph-name="hungarumlaut" horiz-adv-x="643" unicode="&#733;" /><glyph d="M612 1030 493 822H349L450 1030ZM412 1030 294 822H149L250 1030Z" glyph-name="hungarumlaut.cap" horiz-adv-x="643" unicode="&#58411;" /><glyph d="M48 272V400H348V272Z" glyph-name="hyphen" horiz-adv-x="396" unicode="-" /><glyph d="M48 326V454H348V326Z" glyph-name="hyphen.cap" horiz-adv-x="396" unicode="&#58498;" /><glyph d="M59 692Q59 730 85 756Q111 782 149 782Q187 782 213 756Q239 730 239 692Q239 654 213 628Q187 602 149 602Q111 602 85 628Q59 654 59 692ZM76 530H222V0H76Z" glyph-name="i" horiz-adv-x="298" unicode="i" /><glyph d="M341 800 222 592H78L179 800ZM76 530H222V0H76Z" glyph-name="iacute" horiz-adv-x="298" unicode="&#237;" /><glyph d="M362 800Q363 749 352 709Q341 669 316 642Q291 615 250 600.5Q209 586 149 586Q89 586 48 600.5Q7 615 -18 642Q-43 669 -54 709Q-65 749 -64 800H50Q49 749 72.5 728Q96 707 149 707Q202 707 225.5 728Q249 749 247 800ZM76 530H222V0H76Z" glyph-name="ibreve" horiz-adv-x="298" unicode="&#301;" /><glyph d="M84 800H214L380 592H232L149 686L65 592H-82ZM76 530H222V0H76Z" glyph-name="icircumflex" horiz-adv-x="298" unicode="&#238;" /><glyph d="M174 692Q174 730 200 756Q226 782 264 782Q302 782 328 756Q354 730 354 692Q354 654 328 628Q302 602 264 602Q226 602 200 628Q174 654 174 692ZM-56 692Q-56 730 -30 756Q-4 782 34 782Q72 782 98 756Q124 730 124 692Q124 654 98 628Q72 602 34 602Q-4 602 -30 628Q-56 654 -56 692ZM76 530H222V0H76Z" glyph-name="idieresis" horiz-adv-x="298" unicode="&#239;" /><glyph d="M59 692Q59 730 85 756Q111 782 149 782Q187 782 213 756Q239 730 239 692Q239 654 213 628Q187 602 149 602Q111 602 85 628Q59 654 59 692ZM76 530H222V0H76Z" glyph-name="idotaccent" horiz-adv-x="298" unicode="&#59269;" /><glyph d="M119 800 220 592H76L-43 800ZM76 530H222V0H76Z" glyph-name="igrave" horiz-adv-x="298" unicode="&#236;" /><glyph d="M297 692Q297 730 323 756Q349 782 387 782Q425 782 451 756Q477 730 477 692Q477 654 451 628Q425 602 387 602Q349 602 323 628Q297 654 297 692ZM314 530H460V-2Q460 -43 451.5 -81Q443 -119 419 -148.5Q395 -178 351.5 -196Q308 -214 239 -214Q207 -214 181.5 -209Q156 -204 141 -198L154 -69Q165 -74 188 -81.5Q211 -89 237 -87Q256 -86 270.5 -82Q285 -78 295 -68Q305 -58 309.5 -40.5Q314 -23 314 5ZM59 692Q59 730 85 756Q111 782 149 782Q187 782 213 756Q239 730 239 692Q239 654 213 628Q187 602 149 602Q111 602 85 628Q59 654 59 692ZM76 530H222V0H76Z" glyph-name="ij" horiz-adv-x="536" unicode="&#307;" /><glyph d="M-16 760H314V635H-16ZM76 530H222V0H76Z" glyph-name="imacron" horiz-adv-x="298" unicode="&#299;" /><glyph d="M250 322Q269 323 285 329.5Q301 336 314.5 346Q328 356 339 367.5Q350 379 360 390Q350 401 339 412.5Q328 424 314.5 434Q301 444 285 450.5Q269 457 250 458Q218 459 194 443Q170 427 170 390Q170 353 194 337.5Q218 322 250 322ZM687 390Q687 427 663 442.5Q639 458 607 458Q587 457 571.5 450.5Q556 444 542.5 434Q529 424 518 412.5Q507 401 497 390Q507 379 518 367.5Q529 356 542.5 346Q556 336 571.5 329.5Q587 323 607 322Q639 321 663 337Q687 353 687 390ZM804 390Q804 347 789.5 314.5Q775 282 749 260Q723 238 687 227Q651 216 607 216Q547 216 505 241Q463 266 429 303Q395 266 352.5 241Q310 216 250 216Q162 216 108 260Q54 304 54 390Q54 476 108 520Q162 564 250 564Q310 564 352.5 539Q395 514 429 477Q463 514 505 539Q547 564 607 564Q651 564 687 553Q723 542 749 520Q775 498 789.5 465.5Q804 433 804 390Z" glyph-name="infinity" horiz-adv-x="857" unicode="&#8734;" /><glyph d="M727 622Q762 572 782 513.5Q802 455 802 389Q802 306 770.5 233Q739 160 684.5 105.5Q630 51 557 19.5Q484 -12 401 -12Q318 -12 245 19.5Q172 51 117.5 105.5Q63 160 31.5 233Q0 306 0 389Q0 472 31.5 545Q63 618 117.5 672.5Q172 727 245 758.5Q318 790 401 790Q488 790 563 756.5Q638 723 693 664Q658 664 616 658Q574 652 530.5 639Q487 626 446.5 605Q406 584 374 554.5Q342 525 323 486Q304 447 304 398Q304 355 320 318.5Q336 282 363.5 255.5Q391 229 427 214Q463 199 503 199Q544 199 580.5 215Q617 231 644 258Q671 285 686.5 321Q702 357 702 398Q702 446 682 485.5Q662 525 628 553Q620 559 620 569Q620 578 629 586Q635 591 647 596.5Q659 602 673 607.5Q687 613 701.5 617Q716 621 727 622Z" glyph-name="integral" horiz-adv-x="802" unicode="&#8747;" /><glyph d="M197 80Q197 118 223 144Q249 170 287 170Q325 170 351 144Q377 118 377 80Q377 42 351 16Q325 -10 287 -10Q249 -10 223 16Q197 42 197 80ZM436 573Q436 616 412 635Q388 654 355 660L345 480Q361 487 377 495.5Q393 504 406 515Q419 526 427.5 540.5Q436 555 436 573ZM397 367Q352 349 336 327L331 229H243L220 642Q181 617 174 551L24 565Q29 617 47.5 659.5Q66 702 101 731.5Q136 761 188.5 777Q241 793 315 793Q377 793 427.5 779Q478 765 514 737.5Q550 710 569.5 669Q589 628 589 574Q589 519 569.5 484Q550 449 521 427Q492 405 458.5 391.5Q425 378 397 367Z" glyph-name="interrobang" horiz-adv-x="637" unicode="&#8253;" /><glyph d="M234 450Q234 488 260 514Q286 540 324 540Q362 540 388 514Q414 488 414 450Q414 412 388 386Q362 360 324 360Q286 360 260 386Q234 412 234 450ZM184 -2Q184 -40 205.5 -57.5Q227 -75 257 -80L267 76Q252 71 237.5 65Q223 59 211 50Q199 41 191.5 28.5Q184 16 184 -2ZM304 -214Q243 -214 193 -201Q143 -188 107 -162Q71 -136 51.5 -97.5Q32 -59 32 -8Q32 45 49 79.5Q66 114 93 136.5Q120 159 152 172Q184 185 214 195Q231 200 247 206.5Q263 213 275 223L280 301H367L389 -69Q436 -46 446 28L596 14Q591 -39 572 -81Q553 -123 518 -152.5Q483 -182 430 -198Q377 -214 304 -214Z" glyph-name="interrobangdown" horiz-adv-x="616" unicode="&#59701;" /><glyph d="M440 700Q440 662 414 636Q388 610 350 610Q312 610 286 636Q260 662 260 700Q260 738 286 764Q312 790 350 790Q388 790 414 764Q440 738 440 700ZM201 207Q201 164 225.5 145Q250 126 283 120L292 300Q277 293 260.5 284.5Q244 276 231 265Q218 254 209.5 239.5Q201 225 201 207ZM240 413Q285 431 301 453L306 551H394L418 138Q457 163 464 229L614 215Q609 162 590.5 120Q572 78 537 48.5Q502 19 449 3Q396 -13 322 -13Q260 -13 209.5 1Q159 15 123 42.5Q87 70 67.5 111Q48 152 48 206Q48 261 67.5 296Q87 331 116 353Q145 375 178.5 388.5Q212 402 240 413Z" glyph-name="interrobangdown.cap" horiz-adv-x="637" unicode="&#59803;" /><glyph d="M108 592Q107 643 118 683Q129 723 154 750Q179 777 220 791.5Q261 806 321 806Q381 806 422 791.5Q463 777 488.5 750Q514 723 525 683Q536 643 535 592H420Q421 643 397.5 664Q374 685 321 685Q269 685 245.5 664Q222 643 223 592Z" glyph-name="invertedbreve" horiz-adv-x="643" unicode="&#58385;" /><glyph d="M108 822Q107 873 118 913Q129 953 154 980Q179 1007 220 1021.5Q261 1036 321 1036Q381 1036 422 1021.5Q463 1007 488.5 980Q514 953 525 913Q536 873 535 822H420Q421 873 397.5 894Q374 915 321 915Q269 915 245.5 894Q222 873 223 822Z" glyph-name="invertedbreve.cap" horiz-adv-x="643" unicode="&#58407;" /><glyph d="M59 692Q59 730 85 756Q111 782 149 782Q187 782 213 756Q239 730 239 692Q239 654 213 628Q187 602 149 602Q111 602 85 628Q59 654 59 692ZM221 0Q172 -8 144.5 -33Q117 -58 117 -84Q117 -96 125 -106Q133 -116 155 -116Q171 -116 185.5 -112Q200 -108 211.5 -103Q223 -98 230 -93.5Q237 -89 239 -87L269 -181Q246 -197 212.5 -205.5Q179 -214 138 -214Q78 -214 39.5 -185.5Q1 -157 1 -95Q1 -22 76 32V530H221Z" glyph-name="iogonek" horiz-adv-x="297" unicode="&#303;" /><glyph d="M412 772Q405 684 362 638.5Q319 593 235 595Q196 596 171 607.5Q146 619 127.5 633Q109 647 93.5 659Q78 671 59 671Q41 672 30.5 666Q20 660 13.5 650.5Q7 641 4.5 629Q2 617 1 607L-116 620Q-108 708 -65 753.5Q-22 799 62 797Q101 796 126 784.5Q151 773 169.5 759Q188 745 203 733Q218 721 238 721Q256 720 266.5 726Q277 732 283 741.5Q289 751 291.5 762.5Q294 774 296 785ZM76 530H222V0H76Z" glyph-name="itilde" horiz-adv-x="298" unicode="&#297;" /><glyph d="M59 692Q59 730 85 756Q111 782 149 782Q187 782 213 756Q239 730 239 692Q239 654 213 628Q187 602 149 602Q111 602 85 628Q59 654 59 692ZM76 530H222V-2Q222 -43 213.5 -81Q205 -119 181 -148.5Q157 -178 113.5 -196Q70 -214 1 -214Q-31 -214 -56.5 -209Q-82 -204 -97 -198L-84 -69Q-73 -74 -50 -81.5Q-27 -89 -1 -87Q18 -86 32.5 -82Q47 -78 57 -68Q67 -58 71.5 -40.5Q76 -23 76 5Z" glyph-name="j" horiz-adv-x="298" unicode="j" /><glyph d="M84 800H214L380 592H232L149 686L65 592H-82ZM76 530H222V-2Q222 -43 213.5 -81Q205 -119 181 -148.5Q157 -178 113.5 -196Q70 -214 1 -214Q-31 -214 -56.5 -209Q-82 -204 -97 -198L-84 -69Q-73 -74 -50 -81.5Q-27 -89 -1 -87Q18 -86 32.5 -82Q47 -78 57 -68Q67 -58 71.5 -40.5Q76 -23 76 5Z" glyph-name="jcircumflex" horiz-adv-x="298" unicode="&#309;" /><glyph d="M209 800V343H279L428 530H615L402 281L643 0H456L281 220H209V0H63V774Z" glyph-name="k" horiz-adv-x="640" unicode="k" /><glyph d="M229 -200 244 -62H407L363 -200ZM209 800V343H279L428 530H615L402 281L643 0H456L281 220H209V0H63V774Z" glyph-name="kcommaaccent" horiz-adv-x="635" unicode="&#311;" /><glyph d="M209 220V0H64V530H209V343H279L428 530H615L402 281L643 0H456L281 220Z" glyph-name="kgreenlandic" horiz-adv-x="640" unicode="&#312;" /><glyph d="M76 774 222 800V149Q222 113 256 113Q270 113 280 117V0Q270 -5 254.5 -9.5Q239 -14 217 -14Q188 -14 162 -8.5Q136 -3 117 12Q98 27 87 53Q76 79 76 120Z" glyph-name="l" horiz-adv-x="315" unicode="l" /><glyph d="M76 774 222 800V149Q222 113 256 113Q270 113 280 117V0Q270 -5 254.5 -9.5Q239 -14 217 -14Q188 -14 162 -8.5Q136 -3 117 12Q98 27 87 53Q76 79 76 120ZM341 1030 222 822H78L179 1030Z" glyph-name="lacute" horiz-adv-x="310" unicode="&#314;" /><glyph d="M76 774 222 800V149Q222 113 256 113Q270 113 280 117V0Q270 -5 254.5 -9.5Q239 -14 217 -14Q188 -14 162 -8.5Q136 -3 117 12Q98 27 87 53Q76 79 76 120ZM260 592 311 800H465L391 592Z" glyph-name="lcaron" horiz-adv-x="310" unicode="&#318;" /><glyph d="M76 774 222 800V149Q222 113 256 113Q270 113 280 117V0Q270 -5 254.5 -9.5Q239 -14 217 -14Q188 -14 162 -8.5Q136 -3 117 12Q98 27 87 53Q76 79 76 120ZM92 -200 107 -62H270L226 -200Z" glyph-name="lcommaaccent" horiz-adv-x="310" unicode="&#316;" /><glyph d="M76 774 222 800V149Q222 113 256 113Q270 113 280 117V0Q270 -5 254.5 -9.5Q239 -14 217 -14Q188 -14 162 -8.5Q136 -3 117 12Q98 27 87 53Q76 79 76 120ZM277 390Q277 428 303 454Q329 480 367 480Q405 480 431 454Q457 428 457 390Q457 352 431 326Q405 300 367 300Q329 300 303 326Q277 352 277 390Z" glyph-name="ldot" horiz-adv-x="436" unicode="&#320;" /><glyph d="M254 390 391 341 664 235V89L86 333V447L664 691V545L391 439Z" glyph-name="less" horiz-adv-x="750" unicode="&lt;" /><glyph d="M216 390 366 331 879 124V-14L43 329V451L879 794V656L366 449Z" glyph-name="less.cap" horiz-adv-x="921" unicode="&#58774;" /><glyph d="M86 520 664 686V540L412 487L279 460L412 440L664 395V249L86 397ZM86 257V352L664 186V87Z" glyph-name="lessequal" horiz-adv-x="750" unicode="&#8804;" /><glyph d="M316 246V133H763V0H44V133H161V246H44V344H161V384H44V482H161V522Q161 655 238.5 716.5Q316 778 474 778Q550 778 605 764Q660 750 696 723.5Q732 697 749 658.5Q766 620 768 571L609 553Q607 573 599 591Q591 609 575.5 622Q560 635 535 642.5Q510 650 474 650Q388 649 352 617.5Q316 586 316 521V482H568V384H316V344H568V246Z" glyph-name="lira" horiz-adv-x="807" unicode="&#8356;" /><glyph d="M521 438H86V572H664V208H521Z" glyph-name="logicalnot" horiz-adv-x="750" unicode="&#172;" /><glyph d="M24 0V129H325V0Z" glyph-name="lowline" horiz-adv-x="348" unicode="&#58641;" /><glyph d="M88 390 482 794 876 390 482 -14ZM676 390 482 596 288 390 482 184Z" glyph-name="lozenge" horiz-adv-x="964" unicode="&#9674;" /><glyph d="M88 281 21 236V349L88 394V774L234 800V492L321 550V437L234 379V149Q234 113 268 113Q282 113 292 117V0Q282 -5 266.5 -9.5Q251 -14 229 -14Q200 -14 174 -8.5Q148 -3 129 12Q110 27 99 53Q88 79 88 120Z" glyph-name="lslash" horiz-adv-x="326" unicode="&#322;" /><glyph d="M205 459Q232 497 273 520.5Q314 544 362 544Q418 544 458 523.5Q498 503 521 468Q582 544 699 544Q797 544 849 493.5Q901 443 901 349V0H755V340Q755 378 732.5 397Q710 416 672 416Q625 416 596.5 389Q568 362 557 328V0H411V340Q411 378 388.5 397Q366 416 328 416Q281 416 252.5 389Q224 362 213 328V0H69V530H193Z" glyph-name="m" horiz-adv-x="958" unicode="m" /><glyph d="M156 760H486V635H156Z" glyph-name="macron" horiz-adv-x="643" unicode="&#175;" /><glyph d="M156 990H486V865H156Z" glyph-name="macron.cap" horiz-adv-x="643" unicode="&#58405;" /><glyph d="M92 265Q92 323 115.5 373.5Q139 424 179.5 462Q220 500 274.5 522Q329 544 391 544Q453 544 507.5 522Q562 500 602.5 462Q643 424 666.5 373.5Q690 323 690 265Q690 207 666.5 156.5Q643 106 602.5 68Q562 30 507.5 8Q453 -14 391 -14Q329 -14 274.5 8Q220 30 179.5 68Q139 106 115.5 156.5Q92 207 92 265Z" glyph-name="mediumblackcircle" horiz-adv-x="782" unicode="&#9899;" /><glyph d="M534 265Q534 293 522.5 318Q511 343 491.5 361.5Q472 380 446 390.5Q420 401 391 401Q362 401 336 390.5Q310 380 290.5 361.5Q271 343 260 318Q249 293 249 265Q249 237 260 212Q271 187 290.5 168.5Q310 150 336 139.5Q362 129 391 129Q420 129 446 139.5Q472 150 491.5 168.5Q511 187 522.5 212Q534 237 534 265ZM92 265Q92 323 115.5 373.5Q139 424 179.5 462Q220 500 274.5 522Q329 544 391 544Q453 544 507.5 522Q562 500 602.5 462Q643 424 666.5 373.5Q690 323 690 265Q690 207 666.5 156.5Q643 106 602.5 68Q562 30 507.5 8Q453 -14 391 -14Q329 -14 274.5 8Q220 30 179.5 68Q139 106 115.5 156.5Q92 207 92 265Z" glyph-name="mediumwhitecircle" horiz-adv-x="782" unicode="&#9898;" /><glyph d="M86 323V457H664V323Z" glyph-name="minus" horiz-adv-x="750" unicode="&#8722;" /><glyph d="M43 457H879V323H43Z" glyph-name="minus.cap" horiz-adv-x="921" unicode="&#58770;" /><glyph d="M32 -49V85H382V-49Z" glyph-name="minus.inf" horiz-adv-x="422" unicode="&#58748;" /><glyph d="M273 390 91 560 193 655 375 485 557 655 659 560 477 390 659 220 557 125 375 295 193 125 91 220Z" glyph-name="multiply" horiz-adv-x="750" unicode="&#215;" /><glyph d="M359 390 28 699 130 794 461 485 792 794 894 699 562 390 894 81 792 -14 461 295 130 -14 28 81Z" glyph-name="multiply.cap" horiz-adv-x="921" unicode="&#58771;" /><glyph d="M148 78Q181 92 222.5 114Q264 136 300 167Q336 198 361 238.5Q386 279 386 330Q386 381 363.5 413Q341 445 285 445Q259 445 235.5 435Q212 425 194 409.5Q176 394 164 374Q152 354 148 334ZM55 821H148V478Q158 492 174.5 504Q191 516 210.5 524.5Q230 533 251.5 538Q273 543 294 543Q401 543 447 490.5Q493 438 493 332Q493 263 455.5 202Q418 141 356.5 90.5Q295 40 216 1Q137 -38 55 -62Z" glyph-name="musicflatsign" horiz-adv-x="522" unicode="&#9837;" /><glyph d="M249 493 148 418V287L249 362ZM55 830H148V555L342 701V-50H249V225L55 79Z" glyph-name="musicnaturalsign" horiz-adv-x="396" unicode="&#59753;" /><glyph d="M298 493 197 418V287L298 362ZM298 0V225L197 149V-100H104V79L19 16V153L104 217V348L19 285V422L104 486V780H197V555L298 631V880H391V701L476 764V627L391 563V432L476 495V358L391 294V0Z" glyph-name="musicsharpsign" horiz-adv-x="495" unicode="&#9839;" /><glyph d="M205 459Q235 499 281 521.5Q327 544 381 544Q480 544 540.5 498Q601 452 601 357V0H455V337Q455 379 428 397.5Q401 416 356 416Q328 416 304.5 408Q281 400 262 387.5Q243 375 230.5 359Q218 343 213 328V0H69V530H193Z" glyph-name="n" horiz-adv-x="658" unicode="n" /><glyph d="M205 459Q235 499 281 521.5Q327 544 381 544Q480 544 540.5 498Q601 452 601 357V0H455V337Q455 379 428 397.5Q401 416 356 416Q328 416 304.5 408Q281 400 262 387.5Q243 375 230.5 359Q218 343 213 328V0H69V530H193ZM523 800 404 592H260L361 800Z" glyph-name="nacute" horiz-adv-x="658" unicode="&#324;" /><glyph d="M205 459Q235 499 281 521.5Q327 544 381 544Q480 544 540.5 498Q601 452 601 357V0H455V337Q455 379 428 397.5Q401 416 356 416Q328 416 304.5 408Q281 400 262 387.5Q243 375 230.5 359Q218 343 213 328V0H69V530H193ZM400 592H269L103 800H251L334 706L418 800H566Z" glyph-name="ncaron" horiz-adv-x="658" unicode="&#328;" /><glyph d="M205 459Q235 499 281 521.5Q327 544 381 544Q480 544 540.5 498Q601 452 601 357V0H455V337Q455 379 428 397.5Q401 416 356 416Q328 416 304.5 408Q281 400 262 387.5Q243 375 230.5 359Q218 343 213 328V0H69V530H193ZM240 -200 255 -62H418L374 -200Z" glyph-name="ncommaaccent" horiz-adv-x="658" unicode="&#326;" /><glyph d="M358 373Q397 372 430.5 383Q464 394 487 416Q510 438 521.5 469.5Q533 501 528 540Q512 599 474 625.5Q436 652 367 652Q334 652 305.5 644Q277 636 256 619Q235 602 222.5 576Q210 550 210 513Q210 439 251 406Q292 373 358 373ZM189 205Q227 113 348 113Q410 113 448 136Q486 159 507 192Q528 225 535 262Q542 299 543 327Q529 306 506.5 290.5Q484 275 457.5 265.5Q431 256 402 251Q373 246 345 246Q207 246 133 314Q59 382 59 513Q59 578 81.5 627.5Q104 677 144.5 710Q185 743 241 760Q297 777 363 777Q535 777 613.5 678Q692 579 692 379Q692 184 605 85Q518 -14 347 -14Q292 -14 245 -2Q198 10 161 31Q124 52 97.5 80.5Q71 109 58 142Z" glyph-name="nine" horiz-adv-x="750" unicode="9" /><glyph d="M361 373Q400 372 433.5 383Q467 394 490 416Q513 438 524.5 469.5Q536 501 531 540Q515 599 477 625.5Q439 652 370 652Q337 652 308.5 644Q280 636 259 619Q238 602 225.5 576Q213 550 213 513Q213 439 254 406Q295 373 361 373ZM192 205Q230 113 351 113Q413 113 451 136Q489 159 510 192Q531 225 538 262Q545 299 546 327Q532 306 509.5 290.5Q487 275 460.5 265.5Q434 256 405 251Q376 246 348 246Q210 246 136 314Q62 382 62 513Q62 578 84.5 627.5Q107 677 147.5 710Q188 743 244 760Q300 777 366 777Q538 777 616.5 678Q695 579 695 379Q695 184 608 85Q521 -14 350 -14Q295 -14 248 -2Q201 10 164 31Q127 52 100.5 80.5Q74 109 61 142Z" glyph-name="nine.LP" horiz-adv-x="751" unicode="&#58686;" /><glyph d="M222 17Q250 17 269 30.5Q288 44 289 72V74Q287 96 268.5 107Q250 118 227 118Q203 118 185.5 106Q168 94 168 68Q168 41 183 29Q198 17 222 17ZM216 -116Q232 -116 246.5 -112Q261 -108 272 -98.5Q283 -89 290 -73Q297 -57 298 -34Q282 -52 254 -59Q226 -66 202 -66Q51 -66 51 68Q51 105 64 133Q77 161 100 179.5Q123 198 155 207Q187 216 225 216Q323 216 367 163.5Q411 111 411 0Q411 -109 360 -161.5Q309 -214 213 -214Q138 -214 97.5 -182.5Q57 -151 51 -93L166 -82Q172 -116 216 -116Z" glyph-name="nine.inf" horiz-adv-x="469" unicode="&#58746;" /><glyph glyph-name="nonbreakingspace" horiz-adv-x="236" unicode="&#160;" /><glyph d="M314 208 272 146H150L192 208H86V342H282L346 438H86V572H436L478 634H600L558 572H664V438H468L404 342H664V208Z" glyph-name="notequal" horiz-adv-x="750" unicode="&#8800;" /><glyph d="M205 459Q235 499 281 521.5Q327 544 381 544Q480 544 540.5 498Q601 452 601 357V0H455V337Q455 379 428 397.5Q401 416 356 416Q328 416 304.5 408Q281 400 262 387.5Q243 375 230.5 359Q218 343 213 328V0H69V530H193ZM598 772Q590 684 547 638.5Q504 593 420 595Q381 596 356 607.5Q331 619 312.5 633Q294 647 278.5 659Q263 671 244 671Q226 672 215.5 666Q205 660 199 650.5Q193 641 190 629Q187 617 186 607L70 620Q77 708 120 753.5Q163 799 247 797Q286 796 311 784.5Q336 773 354.5 759Q373 745 388.5 733Q404 721 423 721Q441 720 451.5 726Q462 732 468.5 741.5Q475 751 477.5 762.5Q480 774 481 785Z" glyph-name="ntilde" horiz-adv-x="658" unicode="&#241;" /><glyph d="M291 302H425L469 462H335ZM144 302 187 462H109V590H223L271 764H419L371 590H505L553 764H701L652 590H727V462H617L573 302H651V174H538L490 0H342L390 174H256L208 0H60L108 174H33V302Z" glyph-name="numbersign" horiz-adv-x="760" unicode="#" /><glyph d="M1020 80Q1020 118 1046 144Q1072 170 1110 170Q1148 170 1174 144Q1200 118 1200 80Q1200 42 1174 16Q1148 -10 1110 -10Q1072 -10 1046 16Q1020 42 1020 80ZM1110 651Q1051 651 1016 616Q981 581 981 499Q981 416 1016 381.5Q1051 347 1110 347Q1169 347 1204 381.5Q1239 416 1239 499Q1239 581 1204 616Q1169 651 1110 651ZM1110 220Q1046 220 994.5 237.5Q943 255 906.5 290.5Q870 326 850.5 378Q831 430 831 499Q831 568 850.5 620Q870 672 906.5 707.5Q943 743 994.5 760.5Q1046 778 1110 778Q1174 778 1225.5 760.5Q1277 743 1313.5 707.5Q1350 672 1369.5 620Q1389 568 1389 499Q1389 430 1369.5 378Q1350 326 1313.5 290.5Q1277 255 1225.5 237.5Q1174 220 1110 220ZM312 386 229 506 231 319V0H81V764H220L496 378L579 258L576 445V764H726V0H588Z" glyph-name="numero" horiz-adv-x="1432" unicode="&#8470;" /><glyph d="M322 -14Q258 -14 206.5 3.5Q155 21 119 56.5Q83 92 63.5 144Q44 196 44 265Q44 334 63.5 386Q83 438 119 473.5Q155 509 206.5 526.5Q258 544 322 544Q451 544 526 473.5Q601 403 601 265Q601 127 526 56.5Q451 -14 322 -14ZM322 417Q263 417 228.5 382Q194 347 194 265Q194 182 228.5 147.5Q263 113 322 113Q382 113 416.5 147.5Q451 182 451 265Q451 348 416.5 382.5Q382 417 322 417Z" glyph-name="o" horiz-adv-x="645" unicode="o" /><glyph d="M511 800 392 592H249L349 800ZM322 417Q263 417 228.5 382Q194 347 194 265Q194 182 228.5 147.5Q263 113 322 113Q382 113 416.5 147.5Q451 182 451 265Q451 348 416.5 382.5Q382 417 322 417ZM322 -14Q258 -14 206.5 3.5Q155 21 119 56.5Q83 92 63.5 144Q44 196 44 265Q44 334 63.5 386Q83 438 119 473.5Q155 509 206.5 526.5Q258 544 322 544Q451 544 526 473.5Q601 403 601 265Q601 127 526 56.5Q451 -14 322 -14Z" glyph-name="oacute" horiz-adv-x="645" unicode="&#243;" /><glyph d="M536 800Q537 749 526 709Q515 669 489.5 642Q464 615 423 600.5Q382 586 322 586Q262 586 221 600.5Q180 615 155 642Q130 669 119 709Q108 749 109 800H224Q223 749 246.5 728Q270 707 322 707Q375 707 398.5 728Q422 749 421 800ZM322 -14Q258 -14 206.5 3.5Q155 21 119 56.5Q83 92 63.5 144Q44 196 44 265Q44 334 63.5 386Q83 438 119 473.5Q155 509 206.5 526.5Q258 544 322 544Q451 544 526 473.5Q601 403 601 265Q601 127 526 56.5Q451 -14 322 -14ZM322 417Q263 417 228.5 382Q194 347 194 265Q194 182 228.5 147.5Q263 113 322 113Q382 113 416.5 147.5Q451 182 451 265Q451 348 416.5 382.5Q382 417 322 417Z" glyph-name="obreve" horiz-adv-x="645" unicode="&#335;" /><glyph d="M257 800H388L554 592H406L322 686L239 592H91ZM322 -14Q258 -14 206.5 3.5Q155 21 119 56.5Q83 92 63.5 144Q44 196 44 265Q44 334 63.5 386Q83 438 119 473.5Q155 509 206.5 526.5Q258 544 322 544Q451 544 526 473.5Q601 403 601 265Q601 127 526 56.5Q451 -14 322 -14ZM322 417Q263 417 228.5 382Q194 347 194 265Q194 182 228.5 147.5Q263 113 322 113Q382 113 416.5 147.5Q451 182 451 265Q451 348 416.5 382.5Q382 417 322 417Z" glyph-name="ocircumflex" horiz-adv-x="645" unicode="&#244;" /><glyph d="M347 692Q347 730 373 756Q399 782 437 782Q475 782 501 756Q527 730 527 692Q527 654 501 628Q475 602 437 602Q399 602 373 628Q347 654 347 692ZM117 692Q117 730 143 756Q169 782 207 782Q245 782 271 756Q297 730 297 692Q297 654 271 628Q245 602 207 602Q169 602 143 628Q117 654 117 692ZM322 417Q263 417 228.5 382Q194 347 194 265Q194 182 228.5 147.5Q263 113 322 113Q382 113 416.5 147.5Q451 182 451 265Q451 348 416.5 382.5Q382 417 322 417ZM322 -14Q258 -14 206.5 3.5Q155 21 119 56.5Q83 92 63.5 144Q44 196 44 265Q44 334 63.5 386Q83 438 119 473.5Q155 509 206.5 526.5Q258 544 322 544Q451 544 526 473.5Q601 403 601 265Q601 127 526 56.5Q451 -14 322 -14Z" glyph-name="odieresis" horiz-adv-x="645" unicode="&#246;" /><glyph d="M738 -14Q600 -14 526 57Q453 -14 322 -14Q258 -14 206.5 3.5Q155 21 119 56.5Q83 92 63.5 144Q44 196 44 265Q44 334 63.5 386Q83 438 119 473.5Q155 509 206.5 526.5Q258 544 322 544Q453 544 526 473Q600 544 731 544Q863 544 932 472.5Q1001 401 1001 265V213H605Q609 156 644.5 130.5Q680 105 735 105Q792 105 822 128.5Q852 152 862 180L993 117Q982 92 963 68.5Q944 45 914 26.5Q884 8 840.5 -3Q797 -14 738 -14ZM732 425Q678 425 645 400Q612 375 606 320H844Q840 425 732 425ZM322 417Q263 417 228.5 382Q194 347 194 265Q194 182 228.5 147.5Q263 113 322 113Q382 113 416.5 147.5Q451 182 451 265Q451 348 416.5 382.5Q382 417 322 417Z" glyph-name="oe" horiz-adv-x="1047" unicode="&#339;" /><glyph d="M542 0Q516 -3 493.5 -11Q471 -19 454.5 -30Q438 -41 429 -55Q420 -69 420 -82Q420 -95 428.5 -105.5Q437 -116 460 -116Q471 -116 482.5 -113Q494 -110 503 -106.5Q512 -103 517.5 -100Q523 -97 523 -97L554 -189Q537 -199 508 -206.5Q479 -214 442 -214Q378 -214 341 -182.5Q304 -151 304 -93Q305 -60 321 -31.5Q337 -3 365 19.5Q393 42 430.5 58Q468 74 511 84Z" glyph-name="ogonek" horiz-adv-x="643" unicode="&#731;" /><glyph d="M299 800 400 592H256L137 800ZM322 417Q263 417 228.5 382Q194 347 194 265Q194 182 228.5 147.5Q263 113 322 113Q382 113 416.5 147.5Q451 182 451 265Q451 348 416.5 382.5Q382 417 322 417ZM322 -14Q258 -14 206.5 3.5Q155 21 119 56.5Q83 92 63.5 144Q44 196 44 265Q44 334 63.5 386Q83 438 119 473.5Q155 509 206.5 526.5Q258 544 322 544Q451 544 526 473.5Q601 403 601 265Q601 127 526 56.5Q451 -14 322 -14Z" glyph-name="ograve" horiz-adv-x="645" unicode="&#242;" /><glyph d="M375 645Q281 645 232 591.5Q183 538 183 448Q183 392 197 342.5Q211 293 233.5 250.5Q256 208 285 173.5Q314 139 344 114V0H19V130H102L183 129Q154 159 126.5 196.5Q99 234 78 277Q57 320 44.5 367.5Q32 415 32 464Q32 534 54.5 591.5Q77 649 121 690.5Q165 732 228.5 755Q292 778 375 778Q457 778 521 755Q585 732 629 690.5Q673 649 695.5 591.5Q718 534 718 464Q718 415 705.5 367.5Q693 320 672 277Q651 234 623.5 196.5Q596 159 567 129L648 130H731V0H406V114Q436 139 465 173.5Q494 208 516.5 250.5Q539 293 553 342.5Q567 392 567 448Q567 538 518 591.5Q469 645 375 645Z" glyph-name="ohm" horiz-adv-x="750" unicode="&#59425;" /><glyph d="M613 800 494 592H350L451 800ZM414 800 295 592H150L251 800ZM322 -14Q258 -14 206.5 3.5Q155 21 119 56.5Q83 92 63.5 144Q44 196 44 265Q44 334 63.5 386Q83 438 119 473.5Q155 509 206.5 526.5Q258 544 322 544Q451 544 526 473.5Q601 403 601 265Q601 127 526 56.5Q451 -14 322 -14ZM322 417Q263 417 228.5 382Q194 347 194 265Q194 182 228.5 147.5Q263 113 322 113Q382 113 416.5 147.5Q451 182 451 265Q451 348 416.5 382.5Q382 417 322 417Z" glyph-name="ohungarumlaut" horiz-adv-x="645" unicode="&#337;" /><glyph d="M157 760H487V635H157ZM322 417Q263 417 228.5 382Q194 347 194 265Q194 182 228.5 147.5Q263 113 322 113Q382 113 416.5 147.5Q451 182 451 265Q451 348 416.5 382.5Q382 417 322 417ZM322 -14Q258 -14 206.5 3.5Q155 21 119 56.5Q83 92 63.5 144Q44 196 44 265Q44 334 63.5 386Q83 438 119 473.5Q155 509 206.5 526.5Q258 544 322 544Q451 544 526 473.5Q601 403 601 265Q601 127 526 56.5Q451 -14 322 -14Z" glyph-name="omacron" horiz-adv-x="645" unicode="&#333;" /><glyph d="M121 0V128H330V578Q288 546 230.5 522.5Q173 499 107 485V621Q153 636 189.5 652Q226 668 256 686.5Q286 705 310.5 727.5Q335 750 359 778H477V128H680V0Z" glyph-name="one" horiz-adv-x="750" unicode="1" /><glyph d="M67 0V128H276V578Q234 546 176.5 522.5Q119 499 53 485V621Q99 636 135.5 652Q172 668 202 686.5Q232 705 256.5 727.5Q281 750 305 778H423V128H626V0Z" glyph-name="one.LP" horiz-adv-x="646" unicode="&#58678;" /><glyph d="M39 -200V-98H172V66Q154 55 116 42.5Q78 30 30 25V130Q87 141 129.5 164Q172 187 197 216H287V-98H418V-200Z" glyph-name="one.inf" horiz-adv-x="461" unicode="&#58738;" /><glyph d="M39 362V464H172V628Q154 617 116 604.5Q78 592 30 587V692Q87 703 129.5 726Q172 749 197 778H287V464H418V362ZM940 416Q977 416 1009 407.5Q1041 399 1064 382Q1087 365 1100.5 340Q1114 315 1114 281Q1114 247 1102 225.5Q1090 204 1069.5 190Q1049 176 1022 167.5Q995 159 965 151Q936 143 910.5 131.5Q885 120 880 100L956 102H1124V0H750Q748 62 760 101.5Q772 141 795 165.5Q818 190 851 205Q884 220 925 232Q962 244 981 251.5Q1000 259 1000 278Q1000 299 981.5 307.5Q963 316 942 316Q910 316 890 305.5Q870 295 867 264L750 273Q755 348 804 382Q853 416 940 416ZM388 0H237L794 764H946Z" glyph-name="onehalf" horiz-adv-x="1172" unicode="&#189;" /><glyph d="M894 260 828 172H894ZM39 362V464H172V628Q154 617 116 604.5Q78 592 30 587V692Q87 703 129.5 726Q172 749 197 778H287V464H418V362ZM1008 70V0H894V70H690V148L906 416H1008V172H1081V70ZM388 0H237L794 764H946Z" glyph-name="onequarter" horiz-adv-x="1121" unicode="&#188;" /><glyph d="M39 362V464H172V628Q154 617 116 604.5Q78 592 30 587V692Q87 703 129.5 726Q172 749 197 778H287V464H418V362Z" glyph-name="onesuperior" horiz-adv-x="461" unicode="&#185;" /><glyph d="M48 272V400H309V272Z" glyph-name="onethirdemdash" horiz-adv-x="357" unicode="&#58481;" /><glyph d="M48 326V454H309V326Z" glyph-name="onethirdemdash.cap" horiz-adv-x="357" unicode="&#58499;" /><glyph d="M165 505Q165 488 177 478.5Q189 469 215 469Q248 469 277 487Q306 505 320 536V562L214 546Q189 542 177 533Q165 524 165 505ZM242 691Q200 691 179.5 677.5Q159 664 152 644L51 692Q65 735 110.5 764Q156 793 245 793Q337 793 388.5 756Q440 719 440 639V493Q440 470 466 470Q472 470 476.5 471Q481 472 484 473V385Q476 382 463.5 378.5Q451 375 435 375Q400 375 372.5 385.5Q345 396 333 428Q300 399 266 387Q232 375 197 375Q153 375 122.5 384.5Q92 394 72.5 410.5Q53 427 44.5 448.5Q36 470 36 495Q36 531 47 554.5Q58 578 78.5 592.5Q99 607 129 615Q159 623 197 628L320 644V650Q320 671 299 681Q278 691 242 691Z" glyph-name="ordfeminine" horiz-adv-x="508" unicode="&#170;" /><glyph d="M255 687Q213 687 187.5 664Q162 641 162 585Q162 529 187.5 506Q213 483 255 483Q297 483 322.5 506Q348 529 348 585Q348 641 322.5 664Q297 687 255 687ZM255 376Q155 376 99 429.5Q43 483 43 585Q43 687 99 740.5Q155 794 255 794Q355 794 411 740.5Q467 687 467 585Q467 483 411 429.5Q355 376 255 376Z" glyph-name="ordmasculine" horiz-adv-x="510" unicode="&#186;" /><glyph d="M451 265Q451 305 442 335L281 118Q303 113 323 113Q382 113 416.5 147.5Q451 182 451 265ZM194 265Q194 225 203 195L364 412Q342 417 322 417Q263 417 228.5 382Q194 347 194 265ZM322 -14Q258 -14 206.5 3.5Q155 21 119 56.5Q83 92 63.5 144Q44 196 44 265Q44 334 63.5 386Q83 438 119 473.5Q155 509 206.5 526.5Q258 544 322 544Q451 544 526 473.5Q601 403 601 265Q601 127 526 56.5Q451 -14 322 -14Z" glyph-name="oslash" horiz-adv-x="645" unicode="&#248;" /><glyph d="M586 772Q578 684 535.5 638.5Q493 593 408 595Q369 596 344 607.5Q319 619 300.5 633Q282 647 266.5 659Q251 671 232 671Q214 672 203.5 666Q193 660 187 650.5Q181 641 178.5 629Q176 617 175 607L58 620Q65 708 108 753.5Q151 799 236 797Q275 796 300 784.5Q325 773 343.5 759Q362 745 377 733Q392 721 411 721Q429 720 440 726Q451 732 457 741.5Q463 751 465.5 762.5Q468 774 469 785ZM322 -14Q258 -14 206.5 3.5Q155 21 119 56.5Q83 92 63.5 144Q44 196 44 265Q44 334 63.5 386Q83 438 119 473.5Q155 509 206.5 526.5Q258 544 322 544Q451 544 526 473.5Q601 403 601 265Q601 127 526 56.5Q451 -14 322 -14ZM322 417Q263 417 228.5 382Q194 347 194 265Q194 182 228.5 147.5Q263 113 322 113Q382 113 416.5 147.5Q451 182 451 265Q451 348 416.5 382.5Q382 417 322 417Z" glyph-name="otilde" horiz-adv-x="645" unicode="&#245;" /><glyph d="M380 -14Q329 -14 286.5 3Q244 20 214 57V-200H69V530H193L205 462Q233 500 276.5 522Q320 544 380 544Q501 544 567.5 472.5Q634 401 634 265Q634 129 567.5 57.5Q501 -14 380 -14ZM482 265Q482 303 472 331.5Q462 360 444 378.5Q426 397 402 406.5Q378 416 350 416Q322 416 298.5 408.5Q275 401 258 388Q241 375 229.5 359Q218 343 214 327V203Q218 186 229.5 170.5Q241 155 258 142Q275 129 298.5 121.5Q322 114 350 114Q406 114 444 151Q482 188 482 265Z" glyph-name="p" horiz-adv-x="678" unicode="p" /><glyph d="M410 0H335V293H317Q264 293 213 303.5Q162 314 122 341.5Q82 369 57 416Q32 463 32 537Q32 610 57 657Q82 704 122.5 731.5Q163 759 214.5 769.5Q266 780 318 780H635V0H485V650H410Z" glyph-name="paragraph" horiz-adv-x="717" unicode="&#182;" /><glyph d="M191 350Q191 216 218.5 100Q246 -16 302 -130H157Q133 -91 111.5 -39Q90 13 74.5 75Q59 137 49.5 206.5Q40 276 40 350Q40 423 49.5 493Q59 563 74.5 625Q90 687 111.5 739Q133 791 157 830H302Q246 716 218.5 599.5Q191 483 191 350Z" glyph-name="parenleft" horiz-adv-x="313" unicode="(" /><glyph d="M191 390Q191 256 218.5 140Q246 24 302 -90H157Q133 -51 111.5 1Q90 53 74.5 115Q59 177 49.5 246.5Q40 316 40 390Q40 463 49.5 533Q59 603 74.5 665Q90 727 111.5 779Q133 831 157 870H302Q246 756 218.5 639.5Q191 523 191 390Z" glyph-name="parenleft.cap" horiz-adv-x="313" unicode="&#58513;" /><glyph d="M199 5Q199 -61 214 -129Q229 -197 252 -248H120Q95 -199 77 -136.5Q59 -74 59 5Q59 84 77 146.5Q95 209 120 258H252Q229 207 214 139Q199 71 199 5Z" glyph-name="parenleft.inf" horiz-adv-x="300" unicode="&#58750;" /><glyph d="M122 350Q122 483 94.5 599.5Q67 716 11 830H155Q179 791 200.5 739Q222 687 238 625Q254 563 263.5 493Q273 423 273 350Q273 276 263.5 206.5Q254 137 238 75Q222 13 200.5 -39Q179 -91 155 -130H11Q67 -16 94.5 100Q122 216 122 350Z" glyph-name="parenright" horiz-adv-x="313" unicode=")" /><glyph d="M122 390Q122 523 94.5 639.5Q67 756 11 870H155Q179 831 200.5 779Q222 727 238 665Q254 603 263.5 533Q273 463 273 390Q273 316 263.5 246.5Q254 177 238 115Q222 53 200.5 1Q179 -51 155 -90H11Q67 24 94.5 140Q122 256 122 390Z" glyph-name="parenright.cap" horiz-adv-x="313" unicode="&#58514;" /><glyph d="M101 5Q101 71 86 139Q71 207 48 258H180Q205 209 223 146.5Q241 84 241 5Q241 -74 223 -136.5Q205 -199 180 -248H48Q71 -197 86 -129Q101 -61 101 5Z" glyph-name="parenright.inf" horiz-adv-x="300" unicode="&#58751;" /><glyph d="M361 391Q295 391 254 358Q213 325 213 251Q213 214 225.5 188Q238 162 259 145Q280 128 308.5 120Q337 112 370 112Q439 112 477 138.5Q515 165 531 224Q536 263 524.5 294.5Q513 326 490 348Q467 370 433.5 381Q400 392 361 391ZM546 437Q545 488 528.5 527.5Q512 567 483 594Q454 621 414.5 635Q375 649 328 649Q283 649 234.5 637.5Q186 626 138 594L73 708Q87 717 109.5 729Q132 741 163 752Q194 763 235 770.5Q276 778 327 778Q505 778 600 681.5Q695 585 695 385Q695 185 616.5 86Q538 -13 366 -13Q300 -13 244 4Q188 21 147.5 54Q107 87 84.5 136.5Q62 186 62 251Q62 382 136 450Q210 518 348 518Q376 518 405 513Q434 508 460.5 498.5Q487 489 509.5 473.5Q532 458 546 437Z" glyph-name="partialdiff" horiz-adv-x="751" unicode="&#8706;" /><glyph d="M946 314Q923 314 903.5 308.5Q884 303 870 290Q856 277 847.5 255Q839 233 839 201Q839 169 847.5 147Q856 125 870 112Q884 99 903.5 93.5Q923 88 946 88Q968 88 988 93.5Q1008 99 1022 112Q1036 125 1044.5 147Q1053 169 1053 201Q1053 233 1044.5 255Q1036 277 1022 290Q1008 303 988 308.5Q968 314 946 314ZM946 416Q1049 416 1109.5 363.5Q1170 311 1170 201Q1170 91 1109.5 38.5Q1049 -14 946 -14Q843 -14 782.5 38.5Q722 91 722 201Q722 311 782.5 363.5Q843 416 946 416ZM411 0H260L817 764H970ZM283 450Q305 450 325 455.5Q345 461 359 474Q373 487 381.5 509Q390 531 390 563Q390 595 381.5 617Q373 639 359 652Q345 665 325 670.5Q305 676 283 676Q260 676 240.5 670.5Q221 665 207 652Q193 639 184.5 617Q176 595 176 563Q176 531 184.5 509Q193 487 207 474Q221 461 240.5 455.5Q260 450 283 450ZM283 348Q180 348 119.5 400.5Q59 453 59 563Q59 673 119.5 725.5Q180 778 283 778Q386 778 446.5 725.5Q507 673 507 563Q507 453 446.5 400.5Q386 348 283 348Z" glyph-name="percent" horiz-adv-x="1229" unicode="%" /><glyph d="M46 80Q46 118 72 144Q98 170 136 170Q174 170 200 144Q226 118 226 80Q226 42 200 16Q174 -10 136 -10Q98 -10 72 16Q46 42 46 80Z" glyph-name="period" horiz-adv-x="272" unicode="." /><glyph d="M46 336Q46 374 72 400Q98 426 136 426Q174 426 200 400Q226 374 226 336Q226 298 200 272Q174 246 136 246Q98 246 72 272Q46 298 46 336Z" glyph-name="periodcentered" horiz-adv-x="272" unicode="&#183;" /><glyph d="M46 390Q46 428 72 454Q98 480 136 480Q174 480 200 454Q226 428 226 390Q226 352 200 326Q174 300 136 300Q98 300 72 326Q46 352 46 390Z" glyph-name="periodcentered.cap" horiz-adv-x="272" unicode="&#58497;" /><glyph d="M1450 314Q1427 314 1407.5 308.5Q1388 303 1373.5 290Q1359 277 1350.5 255Q1342 233 1342 201Q1342 169 1350.5 147Q1359 125 1373.5 112Q1388 99 1407.5 93.5Q1427 88 1450 88Q1472 88 1492 93.5Q1512 99 1526 112Q1540 125 1548.5 147Q1557 169 1557 201Q1557 233 1548.5 255Q1540 277 1526 290Q1512 303 1492 308.5Q1472 314 1450 314ZM1450 416Q1553 416 1613.5 363.5Q1674 311 1674 201Q1674 91 1613.5 38.5Q1553 -14 1450 -14Q1346 -14 1286 38.5Q1226 91 1226 201Q1226 311 1286 363.5Q1346 416 1450 416ZM946 314Q923 314 903.5 308.5Q884 303 870 290Q856 277 847.5 255Q839 233 839 201Q839 169 847.5 147Q856 125 870 112Q884 99 903.5 93.5Q923 88 946 88Q968 88 988 93.5Q1008 99 1022 112Q1036 125 1044.5 147Q1053 169 1053 201Q1053 233 1044.5 255Q1036 277 1022 290Q1008 303 988 308.5Q968 314 946 314ZM946 416Q1049 416 1109.5 363.5Q1170 311 1170 201Q1170 91 1109.5 38.5Q1049 -14 946 -14Q843 -14 782.5 38.5Q722 91 722 201Q722 311 782.5 363.5Q843 416 946 416ZM411 0H260L817 764H970ZM283 450Q305 450 325 455.5Q345 461 359 474Q373 487 381.5 509Q390 531 390 563Q390 595 381.5 617Q373 639 359 652Q345 665 325 670.5Q305 676 283 676Q260 676 240.5 670.5Q221 665 207 652Q193 639 184.5 617Q176 595 176 563Q176 531 184.5 509Q193 487 207 474Q221 461 240.5 455.5Q260 450 283 450ZM283 348Q180 348 119.5 400.5Q59 453 59 563Q59 673 119.5 725.5Q180 778 283 778Q386 778 446.5 725.5Q507 673 507 563Q507 453 446.5 400.5Q386 348 283 348Z" glyph-name="perthousand" horiz-adv-x="1732" unicode="&#8240;" /><glyph d="M530 521Q530 558 518.5 580.5Q507 603 489.5 615Q472 627 450.5 630.5Q429 634 410 634H231V408H410Q429 408 450.5 411.5Q472 415 489.5 427Q507 439 518.5 461.5Q530 484 530 521ZM1232 177Q1239 140 1263.5 121Q1288 102 1342 103Q1366 103 1387 106.5Q1408 110 1424 117Q1440 124 1448.5 135.5Q1457 147 1457 164Q1457 180 1448.5 189Q1440 198 1424 202.5Q1408 207 1385 208.5Q1362 210 1333 213Q1291 216 1249.5 221.5Q1208 227 1175 243Q1142 259 1121 288.5Q1100 318 1100 369Q1100 419 1123 452.5Q1146 486 1181.5 506.5Q1217 527 1260.5 535.5Q1304 544 1346 544Q1467 544 1527.5 503Q1588 462 1599 377L1451 359Q1446 391 1422.5 409.5Q1399 428 1346 427Q1329 427 1313 424Q1297 421 1284 415Q1271 409 1263.5 398.5Q1256 388 1256 372Q1256 358 1264.5 350.5Q1273 343 1287.5 339Q1302 335 1323 333Q1344 331 1370 328Q1413 324 1455.5 319Q1498 314 1532 298.5Q1566 283 1587.5 252Q1609 221 1609 165Q1609 114 1585.5 80Q1562 46 1524 25Q1486 4 1438 -5Q1390 -14 1342 -14Q1222 -14 1160 27Q1129 7 1084.5 -3.5Q1040 -14 978 -14Q909 -14 865.5 4Q822 22 798 51.5Q774 81 765.5 119Q757 157 757 198V407H663Q646 369 617.5 344Q589 319 554 304Q519 289 479.5 283Q440 277 400 277H231V0H81V764H399Q450 764 500.5 753.5Q551 743 591 717Q631 691 656.5 645.5Q682 600 684 530H757V669L903 695V530H1066V407H903V195Q903 167 907.5 149.5Q912 132 921.5 122Q931 112 945 108Q959 104 978 103Q1024 102 1048.5 116Q1073 130 1084 159Z" glyph-name="peseta" horiz-adv-x="1642" unicode="&#8359;" /><glyph d="M303 323H86V457H303V660H447V457H664V323H447V120H303Z" glyph-name="plus" horiz-adv-x="750" unicode="+" /><glyph d="M389 323H43V457H389V780H532V457H879V323H532V0H389Z" glyph-name="plus.cap" horiz-adv-x="921" unicode="&#58769;" /><glyph d="M139 -49H39V85H139V178H283V85H382V-49H283V-143H139Z" glyph-name="plus.inf" horiz-adv-x="422" unicode="&#58747;" /><glyph d="M86 118V252H664V118ZM303 423H86V557H303V660H447V557H664V423H447V320H303Z" glyph-name="plusminus" horiz-adv-x="750" unicode="&#177;" /><glyph d="M697 0H547V634H292V0H142V634H30V764H810V634H697Z" glyph-name="product" horiz-adv-x="841" unicode="&#8719;" /><glyph d="M153 390Q153 325 179 268.5Q205 212 249.5 170Q294 128 354 103.5Q414 79 482 79Q550 79 610 103.5Q670 128 714.5 170Q759 212 785 268.5Q811 325 811 390Q811 454 785 511Q759 568 714.5 610Q670 652 610 676.5Q550 701 482 701Q414 701 354 676.5Q294 652 249.5 610Q205 568 179 511Q153 454 153 390ZM49 390Q49 474 83 547.5Q117 621 176 675.5Q235 730 313.5 762Q392 794 482 794Q572 794 650.5 762Q729 730 788 675.5Q847 621 881 547.5Q915 474 915 390Q915 306 881 232.5Q847 159 788 104.5Q729 50 650.5 18Q572 -14 482 -14Q392 -14 313.5 18Q235 50 176 104.5Q117 159 83 232.5Q49 306 49 390ZM533 408Q556 408 573.5 420Q591 432 591 464Q591 496 573.5 508.5Q556 521 533 521H432V408ZM432 298V149H311V631H536Q572 631 604 622Q636 613 660.5 592.5Q685 572 699.5 540.5Q714 509 714 464Q714 420 699.5 388.5Q685 357 660.5 337Q636 317 604 307.5Q572 298 536 298Z" glyph-name="published" horiz-adv-x="964" unicode="&#8471;" /><glyph glyph-name="punctuationspace" horiz-adv-x="300" unicode="&#8200;" /><glyph d="M298 -14Q177 -14 110.5 57.5Q44 129 44 265Q44 401 110.5 472.5Q177 544 298 544Q358 544 401.5 522Q445 500 474 462L485 530H610V-200H464V57Q434 20 391.5 3Q349 -14 298 -14ZM196 265Q196 188 234 151Q272 114 328 114Q356 114 379.5 121.5Q403 129 420 142Q437 155 448.5 170.5Q460 186 464 203V327Q460 343 448.5 359Q437 375 420 388Q403 401 379.5 408.5Q356 416 328 416Q300 416 276 406.5Q252 397 234 378.5Q216 360 206 331.5Q196 303 196 265Z" glyph-name="q" horiz-adv-x="678" unicode="q" /><glyph d="M197 80Q197 118 223 144Q249 170 287 170Q325 170 351 144Q377 118 377 80Q377 42 351 16Q325 -10 287 -10Q249 -10 223 16Q197 42 197 80ZM220 229Q213 243 203.5 268Q194 293 193 321Q193 360 205.5 384.5Q218 409 237.5 425.5Q257 442 281.5 452.5Q306 463 331 474Q348 481 366.5 490Q385 499 400.5 510.5Q416 522 426 537.5Q436 553 436 573Q436 601 425.5 618.5Q415 636 398 646Q381 656 358 659.5Q335 663 310 663Q257 663 222 638Q187 613 165 555L33 619Q47 658 68.5 690Q90 722 122.5 745Q155 768 199.5 781Q244 794 304 794Q436 794 512.5 738.5Q589 683 589 574Q589 519 569.5 484Q550 449 521 427Q492 405 458.5 391.5Q425 378 397 367Q358 351 341 332.5Q324 314 326 288Q326 274 328.5 259.5Q331 245 335 229Z" glyph-name="question" horiz-adv-x="637" unicode="?" /><glyph d="M304 -214Q243 -214 193 -201Q143 -188 107 -162Q71 -136 51.5 -97.5Q32 -59 32 -8Q32 45 49 79.5Q66 114 93 136.5Q120 159 152 172Q184 185 214 195Q228 200 241 204.5Q254 209 264 215Q274 221 280 229.5Q286 238 286 252Q286 264 284 275Q282 286 277 301H393Q400 289 410 265.5Q420 242 420 217Q420 181 408.5 158.5Q397 136 377.5 121.5Q358 107 333 98Q308 89 281 81Q266 76 248.5 70Q231 64 217 54.5Q203 45 193.5 31.5Q184 18 184 -2Q184 -28 194.5 -44Q205 -60 222.5 -69Q240 -78 261.5 -81Q283 -84 304 -84Q357 -84 392 -59Q427 -34 449 24L581 -40Q567 -79 544.5 -111Q522 -143 488.5 -166Q455 -189 409.5 -201.5Q364 -214 304 -214ZM236 450Q236 488 262 514Q288 540 326 540Q364 540 390 514Q416 488 416 450Q416 412 390 386Q364 360 326 360Q288 360 262 386Q236 412 236 450Z" glyph-name="questiondown" horiz-adv-x="616" unicode="&#191;" /><glyph d="M440 700Q440 662 414 636Q388 610 350 610Q312 610 286 636Q260 662 260 700Q260 738 286 764Q312 790 350 790Q388 790 414 764Q440 738 440 700ZM417 551Q424 537 433.5 512Q443 487 444 459Q444 420 431.5 395.5Q419 371 399.5 354.5Q380 338 355.5 327.5Q331 317 306 306Q289 298 270.5 289.5Q252 281 236.5 269.5Q221 258 211 242.5Q201 227 201 207Q201 179 211.5 161.5Q222 144 239 134Q256 124 279 120.5Q302 117 327 117Q380 117 415 142Q450 167 472 225L604 161Q590 122 568.5 90Q547 58 514.5 35Q482 12 437.5 -1Q393 -14 333 -14Q201 -14 124.5 41.5Q48 97 48 206Q48 261 67.5 296Q87 331 116 353Q145 375 178.5 388.5Q212 402 240 413Q279 429 296 447.5Q313 466 311 492Q311 506 308.5 520.5Q306 535 302 551Z" glyph-name="questiondown.cap" horiz-adv-x="637" unicode="&#58436;" /><glyph d="M417 780 391 530H274L249 780ZM208 780 182 530H65L40 780Z" glyph-name="quotedbl" horiz-adv-x="456" unicode="&quot;" /><glyph d="M421 86 333 -164H220L252 86ZM214 86 126 -164H13L45 86Z" glyph-name="quotedblbase" horiz-adv-x="425" unicode="&#8222;" /><glyph d="M192 530 280 780H393L361 530ZM-15 530 73 780H186L154 530Z" glyph-name="quotedblleft" horiz-adv-x="424" unicode="&#8220;" /><glyph d="M439 780 351 530H238L270 780ZM232 780 145 530H31L63 780Z" glyph-name="quotedblright" horiz-adv-x="424" unicode="&#8221;" /><glyph d="M-15 530 73 780H186L154 530Z" glyph-name="quoteleft" horiz-adv-x="217" unicode="&#8216;" /><glyph d="M232 780 145 530H31L63 780Z" glyph-name="quoteright" horiz-adv-x="217" unicode="&#8217;" /><glyph d="M214 86 126 -164H13L45 86Z" glyph-name="quotesinglbase" horiz-adv-x="217" unicode="&#8218;" /><glyph d="M208 780 182 530H65L40 780Z" glyph-name="quotesingle" horiz-adv-x="247" unicode="&apos;" /><glyph d="M361 544Q393 544 415.5 540Q438 536 455 530L441 396Q433 401 412 406.5Q391 412 364 411Q337 411 312 403Q287 395 267 382Q247 369 233 353Q219 337 213 319V0H69V530H193L205 463Q233 500 272.5 522Q312 544 361 544Z" glyph-name="r" horiz-adv-x="474" unicode="r" /><glyph d="M361 544Q393 544 415.5 540Q438 536 455 530L441 396Q433 401 412 406.5Q391 412 364 411Q337 411 312 403Q287 395 267 382Q247 369 233 353Q219 337 213 319V0H69V530H193L205 463Q233 500 272.5 522Q312 544 361 544ZM424 800 305 592H162L262 800Z" glyph-name="racute" horiz-adv-x="475" unicode="&#341;" /><glyph d="M882 764 397 -14H242L140 377L22 354V493L258 544L321 268L345 163L407 269L705 764Z" glyph-name="radical" horiz-adv-x="892" unicode="&#8730;" /><glyph d="M361 544Q393 544 415.5 540Q438 536 455 530L441 396Q433 401 412 406.5Q391 412 364 411Q337 411 312 403Q287 395 267 382Q247 369 233 353Q219 337 213 319V0H69V530H193L205 463Q233 500 272.5 522Q312 544 361 544ZM312 592H181L15 800H163L246 706L330 800H478Z" glyph-name="rcaron" horiz-adv-x="475" unicode="&#345;" /><glyph d="M361 544Q393 544 415.5 540Q438 536 455 530L441 396Q433 401 412 406.5Q391 412 364 411Q337 411 312 403Q287 395 267 382Q247 369 233 353Q219 337 213 319V0H69V530H193L205 463Q233 500 272.5 522Q312 544 361 544ZM44 -200 59 -62H222L178 -200Z" glyph-name="rcommaaccent" horiz-adv-x="474" unicode="&#343;" /><glyph d="M60 639Q60 615 70 593.5Q80 572 97 556Q114 540 137 531Q160 522 186 522Q212 522 234.5 531Q257 540 274 556Q291 572 300.5 593.5Q310 615 310 639Q310 664 300.5 685.5Q291 707 274 723Q257 739 234.5 748.5Q212 758 186 758Q160 758 137 748.5Q114 739 97 723Q80 707 70 685.5Q60 664 60 639ZM198 650Q206 650 212 654Q218 658 218 670Q218 682 212 686.5Q206 691 198 691H156V650ZM156 551H112V730H196Q224 730 244 718Q264 706 264 670Q264 647 255 634Q246 621 232 616L263 551H216L190 611H156ZM22 640Q22 672 35 700Q48 728 70.5 749Q93 770 123 782Q153 794 187 794Q221 794 251.5 782Q282 770 304 749Q326 728 339 700Q352 672 352 640Q352 608 339 580Q326 552 304 531Q282 510 251.5 498Q221 486 187 486Q153 486 123 498Q93 510 70.5 531Q48 552 35 580Q22 608 22 640Z" glyph-name="registered" horiz-adv-x="375" unicode="&#174;" /><glyph d="M153 390Q153 325 179 268.5Q205 212 249.5 170Q294 128 354 103.5Q414 79 482 79Q550 79 610 103.5Q670 128 714.5 170Q759 212 785 268.5Q811 325 811 390Q811 454 785 511Q759 568 714.5 610Q670 652 610 676.5Q550 701 482 701Q414 701 354 676.5Q294 652 249.5 610Q205 568 179 511Q153 454 153 390ZM49 390Q49 474 83 547.5Q117 621 176 675.5Q235 730 313.5 762Q392 794 482 794Q572 794 650.5 762Q729 730 788 675.5Q847 621 881 547.5Q915 474 915 390Q915 306 881 232.5Q847 159 788 104.5Q729 50 650.5 18Q572 -14 482 -14Q392 -14 313.5 18Q235 50 176 104.5Q117 159 83 232.5Q49 306 49 390ZM510 437Q518 437 527 438Q536 439 543.5 443.5Q551 448 556 456.5Q561 465 561 479Q561 493 556 501.5Q551 510 543.5 514.5Q536 519 527 520Q518 521 510 521H412V437ZM412 149H293V631H506Q542 631 574.5 624Q607 617 631 599.5Q655 582 669.5 553Q684 524 684 479Q684 419 661 385.5Q638 352 600 338L681 149H556L486 327H412Z" glyph-name="registered.cap" horiz-adv-x="964" unicode="&#59804;" /><glyph d="M154 780 186 530H73L-15 780ZM361 780 393 530H280L192 780Z" glyph-name="reversequotedblleft" horiz-adv-x="424" unicode="&#8223;" /><glyph d="M154 780 186 530H73L-15 780Z" glyph-name="reversequoteleft" horiz-adv-x="217" unicode="&#8219;" /><glyph d="M321 648Q344 648 357.5 661Q371 674 371 696Q371 718 357.5 731Q344 744 321 744Q298 744 284.5 731Q271 718 271 696Q271 674 284.5 661Q298 648 321 648ZM321 814Q381 814 414 780.5Q447 747 447 696Q447 645 414 611.5Q381 578 321 578Q261 578 228 611.5Q195 645 195 696Q195 747 228 780.5Q261 814 321 814Z" glyph-name="ring" horiz-adv-x="643" unicode="&#730;" /><glyph d="M321 878Q344 878 357.5 891Q371 904 371 926Q371 948 357.5 961Q344 974 321 974Q298 974 284.5 961Q271 948 271 926Q271 904 284.5 891Q298 878 321 878ZM321 1044Q381 1044 414 1010.5Q447 977 447 926Q447 875 414 841.5Q381 808 321 808Q261 808 228 841.5Q195 875 195 926Q195 977 228 1010.5Q261 1044 321 1044Z" glyph-name="ring.cap" horiz-adv-x="643" unicode="&#58410;" /><glyph d="M160 177Q178 136 211.5 119.5Q245 103 297 103Q321 103 341.5 106Q362 109 377 116Q392 123 400.5 135Q409 147 409 164Q409 180 400.5 189Q392 198 376 202.5Q360 207 337 208.5Q314 210 285 213Q244 216 202.5 221.5Q161 227 127.5 242.5Q94 258 73 287.5Q52 317 52 369Q52 417 75 450.5Q98 484 133.5 504.5Q169 525 212.5 534.5Q256 544 298 544Q401 544 465 513Q529 482 551 422L421 361Q406 392 378.5 410Q351 428 298 427Q281 427 265 424Q249 421 236 415Q223 409 215.5 398.5Q208 388 208 372Q208 358 216.5 350.5Q225 343 239.5 339Q254 335 275 333Q296 331 322 328Q365 324 407.5 318.5Q450 313 484 297Q518 281 539.5 250Q561 219 561 163Q561 112 538 78Q515 44 478 23.5Q441 3 394 -5.5Q347 -14 299 -14Q184 -14 120.5 21Q57 56 35 115Z" glyph-name="s" horiz-adv-x="595" unicode="s" /><glyph d="M160 177Q178 136 211.5 119.5Q245 103 297 103Q321 103 341.5 106Q362 109 377 116Q392 123 400.5 135Q409 147 409 164Q409 180 400.5 189Q392 198 376 202.5Q360 207 337 208.5Q314 210 285 213Q244 216 202.5 221.5Q161 227 127.5 242.5Q94 258 73 287.5Q52 317 52 369Q52 417 75 450.5Q98 484 133.5 504.5Q169 525 212.5 534.5Q256 544 298 544Q401 544 465 513Q529 482 551 422L421 361Q406 392 378.5 410Q351 428 298 427Q281 427 265 424Q249 421 236 415Q223 409 215.5 398.5Q208 388 208 372Q208 358 216.5 350.5Q225 343 239.5 339Q254 335 275 333Q296 331 322 328Q365 324 407.5 318.5Q450 313 484 297Q518 281 539.5 250Q561 219 561 163Q561 112 538 78Q515 44 478 23.5Q441 3 394 -5.5Q347 -14 299 -14Q184 -14 120.5 21Q57 56 35 115ZM486 800 367 592H224L325 800Z" glyph-name="sacute" horiz-adv-x="595" unicode="&#347;" /><glyph d="M160 177Q178 136 211.5 119.5Q245 103 297 103Q321 103 341.5 106Q362 109 377 116Q392 123 400.5 135Q409 147 409 164Q409 180 400.5 189Q392 198 376 202.5Q360 207 337 208.5Q314 210 285 213Q244 216 202.5 221.5Q161 227 127.5 242.5Q94 258 73 287.5Q52 317 52 369Q52 417 75 450.5Q98 484 133.5 504.5Q169 525 212.5 534.5Q256 544 298 544Q401 544 465 513Q529 482 551 422L421 361Q406 392 378.5 410Q351 428 298 427Q281 427 265 424Q249 421 236 415Q223 409 215.5 398.5Q208 388 208 372Q208 358 216.5 350.5Q225 343 239.5 339Q254 335 275 333Q296 331 322 328Q365 324 407.5 318.5Q450 313 484 297Q518 281 539.5 250Q561 219 561 163Q561 112 538 78Q515 44 478 23.5Q441 3 394 -5.5Q347 -14 299 -14Q184 -14 120.5 21Q57 56 35 115ZM363 592H232L66 800H214L298 706L381 800H529Z" glyph-name="scaron" horiz-adv-x="595" unicode="&#353;" /><glyph d="M160 177Q178 136 211.5 119.5Q245 103 297 103Q321 103 341.5 106Q362 109 377 116Q392 123 400.5 135Q409 147 409 164Q409 180 400.5 189Q392 198 376 202.5Q360 207 337 208.5Q314 210 285 213Q244 216 202.5 221.5Q161 227 127.5 242.5Q94 258 73 287.5Q52 317 52 369Q52 417 75 450.5Q98 484 133.5 504.5Q169 525 212.5 534.5Q256 544 298 544Q401 544 465 513Q529 482 551 422L421 361Q406 392 378.5 410Q351 428 298 427Q281 427 265 424Q249 421 236 415Q223 409 215.5 398.5Q208 388 208 372Q208 358 216.5 350.5Q225 343 239.5 339Q254 335 275 333Q296 331 322 328Q365 324 407.5 318.5Q450 313 484 297Q518 281 539.5 250Q561 219 561 163Q561 119 544 88Q527 57 498 36.5Q469 16 431.5 4.5Q394 -7 354 -11L347 -35Q365 -39 382 -46Q399 -53 413 -63.5Q427 -74 435.5 -88.5Q444 -103 444 -122Q444 -146 432.5 -163Q421 -180 401 -191.5Q381 -203 353.5 -208.5Q326 -214 295 -214Q250 -214 219.5 -206.5Q189 -199 177 -194L199 -130Q207 -134 216 -137Q232 -143 255 -145Q274 -147 293 -142Q312 -137 312 -119Q312 -101 286.5 -90.5Q261 -80 223 -76L246 -11Q156 -3 105 30Q54 63 35 115Z" glyph-name="scedilla" horiz-adv-x="595" unicode="&#351;" /><glyph d="M160 177Q178 136 211.5 119.5Q245 103 297 103Q321 103 341.5 106Q362 109 377 116Q392 123 400.5 135Q409 147 409 164Q409 180 400.5 189Q392 198 376 202.5Q360 207 337 208.5Q314 210 285 213Q244 216 202.5 221.5Q161 227 127.5 242.5Q94 258 73 287.5Q52 317 52 369Q52 417 75 450.5Q98 484 133.5 504.5Q169 525 212.5 534.5Q256 544 298 544Q401 544 465 513Q529 482 551 422L421 361Q406 392 378.5 410Q351 428 298 427Q281 427 265 424Q249 421 236 415Q223 409 215.5 398.5Q208 388 208 372Q208 358 216.5 350.5Q225 343 239.5 339Q254 335 275 333Q296 331 322 328Q365 324 407.5 318.5Q450 313 484 297Q518 281 539.5 250Q561 219 561 163Q561 112 538 78Q515 44 478 23.5Q441 3 394 -5.5Q347 -14 299 -14Q184 -14 120.5 21Q57 56 35 115ZM232 800H363L529 592H381L298 686L214 592H66Z" glyph-name="scircumflex" horiz-adv-x="595" unicode="&#349;" /><glyph d="M160 177Q178 136 211.5 119.5Q245 103 297 103Q321 103 341.5 106Q362 109 377 116Q392 123 400.5 135Q409 147 409 164Q409 180 400.5 189Q392 198 376 202.5Q360 207 337 208.5Q314 210 285 213Q244 216 202.5 221.5Q161 227 127.5 242.5Q94 258 73 287.5Q52 317 52 369Q52 417 75 450.5Q98 484 133.5 504.5Q169 525 212.5 534.5Q256 544 298 544Q401 544 465 513Q529 482 551 422L421 361Q406 392 378.5 410Q351 428 298 427Q281 427 265 424Q249 421 236 415Q223 409 215.5 398.5Q208 388 208 372Q208 358 216.5 350.5Q225 343 239.5 339Q254 335 275 333Q296 331 322 328Q365 324 407.5 318.5Q450 313 484 297Q518 281 539.5 250Q561 219 561 163Q561 112 538 78Q515 44 478 23.5Q441 3 394 -5.5Q347 -14 299 -14Q184 -14 120.5 21Q57 56 35 115ZM204 -200 219 -62H381L337 -200Z" glyph-name="scommaaccent" horiz-adv-x="595" unicode="&#537;" /><glyph d="M681 296Q681 235 651 192Q621 149 575 125Q602 108 618.5 75.5Q635 43 635 -5Q635 -62 611 -101.5Q587 -141 546 -166Q505 -191 451.5 -202.5Q398 -214 340 -214Q215 -214 139.5 -168.5Q64 -123 38 -40L167 23Q179 -7 194 -28Q209 -49 229 -62Q249 -75 275.5 -81Q302 -87 337 -87Q367 -87 394 -83Q421 -79 440.5 -70.5Q460 -62 471.5 -48Q483 -34 483 -14Q483 31 450 51.5Q417 72 340 78Q278 83 224 92Q170 101 129.5 122.5Q89 144 65.5 182Q42 220 42 284Q42 345 72 388Q102 431 148 455Q121 472 104.5 504.5Q88 537 88 585Q88 642 112 681.5Q136 721 177 746Q218 771 271 782.5Q324 794 383 794Q508 794 583.5 748.5Q659 703 685 620L556 557Q544 587 529 608Q514 629 494 642Q474 655 447.5 661Q421 667 386 667Q356 667 329 663Q302 659 282.5 650.5Q263 642 251.5 628Q240 614 240 594Q240 549 273 528.5Q306 508 383 502Q444 497 498.5 488Q553 479 593.5 457.5Q634 436 657.5 398Q681 360 681 296ZM187 287Q187 261 197 244.5Q207 228 227.5 217.5Q248 207 278.5 201.5Q309 196 351 193Q380 191 412.5 194.5Q445 198 472.5 209.5Q500 221 518 241.5Q536 262 536 293Q536 318 526 335Q516 352 496 362.5Q476 373 445.5 378.5Q415 384 373 387Q344 389 311.5 385.5Q279 382 251 370.5Q223 359 205 338.5Q187 318 187 287Z" glyph-name="section" horiz-adv-x="723" unicode="&#167;" /><glyph d="M46 402Q46 440 72 466Q98 492 136 492Q174 492 200 466Q226 440 226 402Q226 364 200 338Q174 312 136 312Q98 312 72 338Q46 364 46 402ZM225 149 129 -127H20L56 149Z" glyph-name="semicolon" horiz-adv-x="272" unicode=";" /><glyph d="M427 510 382 635 371 668 372 631V510H292V780H402L451 642L464 603L477 642L526 780H635V510H556V631L557 668L545 635L500 510ZM183 594Q183 606 173.5 611Q164 616 136 618Q113 620 92 623Q71 626 55 634.5Q39 643 29 657.5Q19 672 19 696Q19 743 52.5 764Q86 785 136 785Q190 785 217.5 769Q245 753 256 723L186 690Q174 721 139 721Q124 721 111.5 716.5Q99 712 99 700Q99 690 105 685Q111 680 138 678Q165 676 187.5 673Q210 670 226.5 662Q243 654 252 638.5Q261 623 261 596Q261 572 250.5 555Q240 538 223 527Q206 516 183 510.5Q160 505 136 505Q88 505 55 521Q22 537 10 573L76 606Q83 586 98 578Q113 570 133 570Q155 570 169 575Q183 580 183 594Z" glyph-name="servicemark" horiz-adv-x="641" unicode="&#8480;" /><glyph d="M215 0Q225 81 243.5 151.5Q262 222 285 282Q308 342 333.5 391.5Q359 441 385 480Q445 572 515 635L370 634H59V764H692V670Q613 596 547 496Q519 453 491 400.5Q463 348 439.5 285.5Q416 223 399 151.5Q382 80 375 0Z" glyph-name="seven" horiz-adv-x="750" unicode="7" /><glyph d="M184 0Q194 81 212.5 151.5Q231 222 254 282Q277 342 302.5 391.5Q328 441 354 480Q414 572 484 635L339 634H28V764H661V670Q582 596 516 496Q488 453 460 400.5Q432 348 408.5 285.5Q385 223 368 151.5Q351 80 344 0Z" glyph-name="seven.LP" horiz-adv-x="689" unicode="&#58684;" /><glyph d="M85 -200 220 47 250 100 198 99H41V202H390V132L210 -200Z" glyph-name="seven.inf" horiz-adv-x="432" unicode="&#58744;" /><glyph d="M390 390Q351 391 317.5 380Q284 369 260.5 347Q237 325 226 293.5Q215 262 220 223Q236 164 274 137.5Q312 111 381 111Q414 111 442.5 119Q471 127 492 144Q513 161 525.5 187Q538 213 538 250Q538 324 497 357Q456 390 390 390ZM549 558Q530 604 494.5 627Q459 650 399 650Q337 650 299.5 626Q262 602 241.5 568Q221 534 213.5 497.5Q206 461 205 436Q219 457 241.5 472.5Q264 488 290.5 497.5Q317 507 346 512Q375 517 403 517Q541 517 615 449Q689 381 689 250Q689 185 666 135.5Q643 86 602.5 53Q562 20 506.5 3Q451 -14 385 -14Q212 -14 134 85Q56 184 56 384Q56 579 147.5 678Q239 777 410 777Q465 777 509 765Q553 753 586.5 732Q620 711 643 682.5Q666 654 680 621Z" glyph-name="six" horiz-adv-x="750" unicode="6" /><glyph d="M390 390Q351 391 317.5 380Q284 369 260.5 347Q237 325 226 293.5Q215 262 220 223Q236 164 274 137.5Q312 111 381 111Q414 111 442.5 119Q471 127 492 144Q513 161 525.5 187Q538 213 538 250Q538 324 497 357Q456 390 390 390ZM549 558Q530 604 494.5 627Q459 650 399 650Q337 650 299.5 626Q262 602 241.5 568Q221 534 213.5 497.5Q206 461 205 436Q219 457 241.5 472.5Q264 488 290.5 497.5Q317 507 346 512Q375 517 403 517Q541 517 615 449Q689 381 689 250Q689 185 666 135.5Q643 86 602.5 53Q562 20 506.5 3Q451 -14 385 -14Q212 -14 134 85Q56 184 56 384Q56 579 147.5 678Q239 777 410 777Q465 777 509 765Q553 753 586.5 732Q620 711 643 682.5Q666 654 680 621Z" glyph-name="six.LP" horiz-adv-x="750" unicode="&#58683;" /><glyph d="M246 -15Q218 -15 199 -28.5Q180 -42 179 -70V-72Q181 -94 199.5 -105Q218 -116 241 -116Q265 -116 282.5 -104Q300 -92 300 -66Q300 -39 285.5 -27Q271 -15 246 -15ZM252 118Q220 118 196.5 100.5Q173 83 170 36Q186 54 214.5 61Q243 68 266 68Q417 68 417 -66Q417 -104 404 -131.5Q391 -159 368 -177.5Q345 -196 313 -205Q281 -214 243 -214Q146 -214 101.5 -161.5Q57 -109 57 2Q57 111 108.5 163.5Q160 216 255 216Q330 216 370.5 184.5Q411 153 417 95L302 84Q296 118 252 118Z" glyph-name="six.inf" horiz-adv-x="469" unicode="&#58743;" /><glyph glyph-name="sixperemspace" horiz-adv-x="179" unicode="&#8198;" /><glyph d="M162 -90H12L257 870H407Z" glyph-name="slash" horiz-adv-x="419" unicode="/" /><glyph d="M179 -20H29L239 800H389Z" glyph-name="slash.cap" horiz-adv-x="418" unicode="&#58465;" /><glyph glyph-name="space" horiz-adv-x="236" unicode=" " /><glyph d="M483 790Q496 771 521 742.5Q546 714 579 682Q612 650 651 618Q690 586 733 560Q768 539 800 515.5Q832 492 856 464.5Q880 437 894.5 405Q909 373 909 334Q909 297 894 265.5Q879 234 853.5 210.5Q828 187 793.5 173.5Q759 160 720 160Q680 160 647 173.5Q614 187 587 209.5Q560 232 539.5 261Q519 290 506 321L502 320Q506 269 513 227Q520 185 530.5 147Q541 109 555.5 73Q570 37 590 0H374Q394 37 408.5 73Q423 109 433.5 147Q444 185 450.5 227Q457 269 462 320L459 321Q445 290 424.5 261Q404 232 377 209.5Q350 187 317 173.5Q284 160 244 160Q205 160 170.5 173.5Q136 187 110.5 210.5Q85 234 70.5 265.5Q56 297 56 334Q56 373 70.5 405Q85 437 109 464.5Q133 492 164.5 515.5Q196 539 231 560Q274 586 313.5 618Q353 650 386 682Q419 714 443.5 742.5Q468 771 481 790Z" glyph-name="spade" horiz-adv-x="964" unicode="&#9824;" /><glyph d="M425 390 270 535 367 626 523 481 678 626 776 535 620 390 776 245 678 154 523 299 367 154 270 245ZM250 649V131H796V649ZM105 780H941V0H105Z" glyph-name="squaremultiply" horiz-adv-x="1046" unicode="&#8864;" /><glyph d="M607 556Q600 577 590.5 594.5Q581 612 565 625.5Q549 639 524 646.5Q499 654 460 654Q305 654 305 522V455H550V332H305V128H736V0H46V128H160V332H46V455H160V520Q160 648 236 713Q312 778 473 778Q530 778 574.5 765Q619 752 652 730Q685 708 707.5 680Q730 652 742 621Z" glyph-name="sterling" horiz-adv-x="781" unicode="&#163;" /><glyph d="M666 764V634H459L319 635L569 440V342L309 129L449 130H686V0H52V120L396 391L70 639V764Z" glyph-name="summation" horiz-adv-x="726" unicode="&#8721;" /><glyph d="M26 530H126V669L272 695V530H435V407H272V205Q272 177 276.5 159.5Q281 142 291 132Q301 122 315 118Q329 114 349 113Q376 111 398.5 118.5Q421 126 432 131L446 2Q430 -4 404.5 -9Q379 -14 347 -14Q278 -14 234.5 4Q191 22 167 51.5Q143 81 134.5 119Q126 157 126 198V407L26 419Z" glyph-name="t" horiz-adv-x="482" unicode="t" /><glyph d="M272 239V205Q272 177 276.5 159.5Q281 142 291 132Q301 122 315 118Q329 114 349 113Q376 111 398.5 118.5Q421 126 432 131L446 2Q430 -4 404.5 -9Q379 -14 347 -14Q278 -14 234.5 4Q191 22 167 51.5Q143 81 134.5 119Q126 157 126 198V239H30V341H126V407L26 419V530H126V669L272 695V530H435V407H272V341H410V239Z" glyph-name="tbar" horiz-adv-x="482" unicode="&#359;" /><glyph d="M26 530H126V669L272 695V530H435V407H272V205Q272 177 276.5 159.5Q281 142 291 132Q301 122 315 118Q329 114 349 113Q376 111 398.5 118.5Q421 126 432 131L446 2Q430 -4 404.5 -9Q379 -14 347 -14Q278 -14 234.5 4Q191 22 167 51.5Q143 81 134.5 119Q126 157 126 198V407L26 419ZM334 592 385 800H539L465 592Z" glyph-name="tcaron" horiz-adv-x="482" unicode="&#357;" /><glyph d="M26 530H126V669L272 695V530H435V407H272V205Q272 177 276.5 159.5Q281 142 291 132Q301 122 315 118Q329 114 349 113Q376 111 398.5 118.5Q421 126 432 131L446 2Q430 -4 404.5 -9Q379 -14 347 -14Q278 -14 234.5 4Q191 22 167 51.5Q143 81 134.5 119Q126 157 126 198V407L26 419ZM168 -200 183 -62H346L302 -200Z" glyph-name="tcommaaccent" horiz-adv-x="482" unicode="&#355;" /><glyph glyph-name="thinspace" horiz-adv-x="214" unicode="&#8201;" /><glyph d="M482 265Q482 303 472 331.5Q462 360 444 378.5Q426 397 402 406.5Q378 416 350 416Q322 416 298.5 408.5Q275 401 258 388Q241 375 229.5 359Q218 343 214 327V203Q218 186 229.5 170.5Q241 155 258 142Q275 129 298.5 121.5Q322 114 350 114Q406 114 444 151Q482 188 482 265ZM69 -214V774L214 800V483Q238 509 282 526.5Q326 544 374 544Q501 544 567.5 472.5Q634 401 634 265Q634 129 567.5 57.5Q501 -14 374 -14Q326 -14 282 3.5Q238 21 214 47V-188Z" glyph-name="thorn" horiz-adv-x="671" unicode="&#254;" /><glyph d="M184 239Q194 210 207.5 187.5Q221 165 242 149Q263 133 293 124Q323 115 365 115Q459 114 505 140Q551 166 551 225Q551 262 538 283Q525 304 503 314Q481 324 452 326Q423 328 390 328H269V456H390Q419 456 443 458Q467 460 484.5 469.5Q502 479 511.5 498Q521 517 521 551Q521 579 509.5 598Q498 617 477.5 628Q457 639 428.5 644Q400 649 365 648Q295 648 255.5 621.5Q216 595 193 530L64 592Q76 632 99.5 666.5Q123 701 160 725.5Q197 750 249 764Q301 778 370 778Q431 778 485.5 765.5Q540 753 581 726Q622 699 646 655.5Q670 612 670 551Q670 489 641 451.5Q612 414 573 398Q595 392 617.5 377.5Q640 363 658.5 341Q677 319 688.5 290Q700 261 700 225Q700 172 680 128.5Q660 85 619.5 53Q579 21 516.5 3.5Q454 -14 369 -14Q297 -14 243 0Q189 14 150.5 38.5Q112 63 87.5 97.5Q63 132 50 174Z" glyph-name="three" horiz-adv-x="750" unicode="3" /><glyph d="M184 239Q194 210 207.5 187.5Q221 165 242 149Q263 133 293 124Q323 115 365 115Q459 114 505 140Q551 166 551 225Q551 262 538 283Q525 304 503 314Q481 324 452 326Q423 328 390 328H269V456H390Q419 456 443 458Q467 460 484.5 469.5Q502 479 511.5 498Q521 517 521 551Q521 579 509.5 598Q498 617 477.5 628Q457 639 428.5 644Q400 649 365 648Q295 648 255.5 621.5Q216 595 193 530L64 592Q76 632 99.5 666.5Q123 701 160 725.5Q197 750 249 764Q301 778 370 778Q431 778 485.5 765.5Q540 753 581 726Q622 699 646 655.5Q670 612 670 551Q670 489 641 451.5Q612 414 573 398Q595 392 617.5 377.5Q640 363 658.5 341Q677 319 688.5 290Q700 261 700 225Q700 172 680 128.5Q660 85 619.5 53Q579 21 516.5 3.5Q454 -14 369 -14Q297 -14 243 0Q189 14 150.5 38.5Q112 63 87.5 97.5Q63 132 50 174Z" glyph-name="three.LP" horiz-adv-x="750" unicode="&#58680;" /><glyph d="M426 -82Q426 -141 378 -177.5Q330 -214 230 -214Q53 -214 43 -73L160 -65Q163 -92 182.5 -102Q202 -112 235 -112Q312 -112 312 -69Q312 -45 292 -38Q272 -31 243 -31H170V43H244Q267 43 282.5 50.5Q298 58 298 78Q298 97 282 107Q266 117 239 117Q207 116 189 106.5Q171 97 168 70L51 78Q56 150 101.5 183Q147 216 236 216Q271 216 303.5 209Q336 202 360.5 187Q385 172 400 147.5Q415 123 415 88Q415 55 402 37Q389 19 374 8Q394 -1 410 -22.5Q426 -44 426 -82Z" glyph-name="three.inf" horiz-adv-x="475" unicode="&#58740;" /><glyph glyph-name="threeperemspace" horiz-adv-x="357" unicode="&#8196;" /><glyph d="M48 272V400H755V272Z" glyph-name="threequarteremdash" horiz-adv-x="804" unicode="&#58482;" /><glyph d="M48 326V454H755V326Z" glyph-name="threequarteremdash.cap" horiz-adv-x="804" unicode="&#58501;" /><glyph d="M890 260 825 172H890ZM1005 70V0H890V70H687V148L903 416H1005V172H1078V70ZM426 480Q426 421 378 384.5Q330 348 230 348Q53 348 43 489L160 497Q163 470 182.5 460Q202 450 235 450Q312 450 312 493Q312 517 292 524Q272 531 243 531H170V605H244Q267 605 282.5 612.5Q298 620 298 640Q298 659 282 669Q266 679 239 679Q207 678 189 668.5Q171 659 168 632L51 640Q56 712 101.5 745Q147 778 236 778Q271 778 303.5 771Q336 764 360.5 749Q385 734 400 709.5Q415 685 415 650Q415 617 402 599Q389 581 374 570Q394 561 410 539.5Q426 518 426 480ZM385 0H234L791 764H943Z" glyph-name="threequarters" horiz-adv-x="1117" unicode="&#190;" /><glyph d="M426 480Q426 421 378 384.5Q330 348 230 348Q53 348 43 489L160 497Q163 470 182.5 460Q202 450 235 450Q312 450 312 493Q312 517 292 524Q272 531 243 531H170V605H244Q267 605 282.5 612.5Q298 620 298 640Q298 659 282 669Q266 679 239 679Q207 678 189 668.5Q171 659 168 632L51 640Q56 712 101.5 745Q147 778 236 778Q271 778 303.5 771Q336 764 360.5 749Q385 734 400 709.5Q415 685 415 650Q415 617 402 599Q389 581 374 570Q394 561 410 539.5Q426 518 426 480Z" glyph-name="threesuperior" horiz-adv-x="475" unicode="&#179;" /><glyph d="M585 772Q577 684 534.5 638.5Q492 593 407 595Q368 596 343 607.5Q318 619 299.5 633Q281 647 265.5 659Q250 671 231 671Q213 672 202.5 666Q192 660 186 650.5Q180 641 177.5 629Q175 617 174 607L57 620Q64 708 107 753.5Q150 799 235 797Q274 796 299 784.5Q324 773 342.5 759Q361 745 376 733Q391 721 410 721Q428 720 438.5 726Q449 732 455.5 741.5Q462 751 464.5 762.5Q467 774 468 785Z" glyph-name="tilde" horiz-adv-x="643" unicode="&#732;" /><glyph d="M585 1002Q577 914 534.5 868.5Q492 823 407 825Q368 826 343 837.5Q318 849 299.5 863Q281 877 265.5 889Q250 901 231 901Q213 902 202.5 896Q192 890 186 880.5Q180 871 177.5 859Q175 847 174 837L57 850Q64 938 107 983.5Q150 1029 235 1027Q274 1026 299 1014.5Q324 1003 342.5 989Q361 975 376 963Q391 951 410 951Q428 950 438.5 956Q449 962 455.5 971.5Q462 981 464.5 992.5Q467 1004 468 1015Z" glyph-name="tilde.cap" horiz-adv-x="643" unicode="&#58404;" /><glyph d="M167 510H90V711H5V780H252V711H167ZM420 510 375 635 363 668 364 631V510H285V780H394L444 642L456 603L469 642L519 780H628V510H549V631L550 668L538 635L493 510Z" glyph-name="trademark" horiz-adv-x="633" unicode="&#8482;" /><glyph d="M846 780 429 104 11 780Z" glyph-name="triagdn" horiz-adv-x="857" unicode="&#9660;" /><glyph d="M761 0 36 390 761 780Z" glyph-name="triaglf" horiz-adv-x="857" unicode="&#9668;" /><glyph d="M36 780 761 390 36 0Z" glyph-name="triagrt" horiz-adv-x="857" unicode="&#9658;" /><glyph d="M11 0 429 676 846 0Z" glyph-name="triagup" horiz-adv-x="857" unicode="&#9650;" /><glyph d="M626 780 600 530H483L457 780ZM417 780 391 530H274L249 780ZM208 780 182 530H65L40 780Z" glyph-name="tripleprime" horiz-adv-x="665" unicode="&#8244;" /><glyph d="M381 778Q441 778 496.5 763.5Q552 749 594 719.5Q636 690 661 646Q686 602 686 543Q686 486 664.5 447.5Q643 409 607.5 381.5Q572 354 527 334Q482 314 435 295Q387 276 348 258.5Q309 241 280.5 221.5Q252 202 234.5 179.5Q217 157 213 128H703V0H54V10Q54 107 77 171Q100 235 141 278.5Q182 322 238 350Q294 378 361 403Q392 415 424 428Q456 441 481.5 456.5Q507 472 523 493Q539 514 539 543Q539 575 526 595.5Q513 616 491 627.5Q469 639 440 643.5Q411 648 380 648Q317 648 268.5 618Q220 588 202 528L67 593Q80 635 104.5 669Q129 703 167 727Q205 751 258 764.5Q311 778 381 778Z" glyph-name="two" horiz-adv-x="750" unicode="2" /><glyph d="M381 778Q441 778 496.5 763.5Q552 749 594 719.5Q636 690 661 646Q686 602 686 543Q686 486 664.5 447.5Q643 409 607.5 381.5Q572 354 527 334Q482 314 435 295Q387 276 348 258.5Q309 241 280.5 221.5Q252 202 234.5 179.5Q217 157 213 128H703V0H54V10Q54 107 77 171Q100 235 141 278.5Q182 322 238 350Q294 378 361 403Q392 415 424 428Q456 441 481.5 456.5Q507 472 523 493Q539 514 539 543Q539 575 526 595.5Q513 616 491 627.5Q469 639 440 643.5Q411 648 380 648Q317 648 268.5 618Q220 588 202 528L67 593Q80 635 104.5 669Q129 703 167 727Q205 751 258 764.5Q311 778 381 778Z" glyph-name="two.LP" horiz-adv-x="750" unicode="&#58679;" /><glyph d="M240 216Q277 216 309.5 207.5Q342 199 365 182Q388 165 401.5 140Q415 115 415 81Q415 47 403 25.5Q391 4 370.5 -10Q350 -24 323 -32.5Q296 -41 266 -49Q237 -57 211 -68.5Q185 -80 180 -100L256 -98H424V-200H50Q48 -138 60 -98.5Q72 -59 95.5 -34.5Q119 -10 151.5 5Q184 20 225 32Q262 44 281 51.5Q300 59 300 78Q300 99 281.5 107.5Q263 116 242 116Q210 116 190 105.5Q170 95 167 64L50 73Q56 148 104.5 182Q153 216 240 216Z" glyph-name="two.inf" horiz-adv-x="472" unicode="&#58739;" /><glyph d="M240 778Q277 778 309.5 769.5Q342 761 365 744Q388 727 401.5 702Q415 677 415 643Q415 609 403 587.5Q391 566 370.5 552Q350 538 323 529.5Q296 521 266 513Q237 505 211 493.5Q185 482 180 462L256 464H424V362H50Q48 424 60 463.5Q72 503 95.5 527.5Q119 552 151.5 567Q184 582 225 594Q262 606 281 613.5Q300 621 300 640Q300 661 281.5 669.5Q263 678 242 678Q210 678 190 667.5Q170 657 167 626L50 635Q56 710 104.5 744Q153 778 240 778Z" glyph-name="twosuperior" horiz-adv-x="472" unicode="&#178;" /><glyph d="M589 149Q589 113 623 113Q637 113 647 117V0Q637 -5 621.5 -9.5Q606 -14 584 -14Q537 -14 499.5 2.5Q462 19 449 66Q418 28 373.5 7Q329 -14 276 -14Q227 -14 186.5 -2.5Q146 9 117.5 32Q89 55 73 90Q57 125 57 173V530H202V193Q202 151 229.5 132.5Q257 114 302 114Q330 114 353.5 122Q377 130 396 142.5Q415 155 427.5 171Q440 187 445 202V530H589Z" glyph-name="u" horiz-adv-x="677" unicode="u" /><glyph d="M589 149Q589 113 623 113Q637 113 647 117V0Q637 -5 621.5 -9.5Q606 -14 584 -14Q537 -14 499.5 2.5Q462 19 449 66Q418 28 373.5 7Q329 -14 276 -14Q227 -14 186.5 -2.5Q146 9 117.5 32Q89 55 73 90Q57 125 57 173V530H202V193Q202 151 229.5 132.5Q257 114 302 114Q330 114 353.5 122Q377 130 396 142.5Q415 155 427.5 171Q440 187 445 202V530H589ZM512 800 393 592H250L350 800Z" glyph-name="uacute" horiz-adv-x="677" unicode="&#250;" /><glyph d="M589 149Q589 113 623 113Q637 113 647 117V0Q637 -5 621.5 -9.5Q606 -14 584 -14Q537 -14 499.5 2.5Q462 19 449 66Q418 28 373.5 7Q329 -14 276 -14Q227 -14 186.5 -2.5Q146 9 117.5 32Q89 55 73 90Q57 125 57 173V530H202V193Q202 151 229.5 132.5Q257 114 302 114Q330 114 353.5 122Q377 130 396 142.5Q415 155 427.5 171Q440 187 445 202V530H589ZM537 800Q538 749 527 709Q516 669 491 642Q466 615 425 600.5Q384 586 324 586Q264 586 223 600.5Q182 615 156.5 642Q131 669 120 709Q109 749 110 800H225Q224 749 247.5 728Q271 707 324 707Q376 707 399.5 728Q423 749 422 800Z" glyph-name="ubreve" horiz-adv-x="677" unicode="&#365;" /><glyph d="M258 800H389L555 592H407L324 686L240 592H92ZM589 149Q589 113 623 113Q637 113 647 117V0Q637 -5 621.5 -9.5Q606 -14 584 -14Q537 -14 499.5 2.5Q462 19 449 66Q418 28 373.5 7Q329 -14 276 -14Q227 -14 186.5 -2.5Q146 9 117.5 32Q89 55 73 90Q57 125 57 173V530H202V193Q202 151 229.5 132.5Q257 114 302 114Q330 114 353.5 122Q377 130 396 142.5Q415 155 427.5 171Q440 187 445 202V530H589Z" glyph-name="ucircumflex" horiz-adv-x="677" unicode="&#251;" /><glyph d="M589 149Q589 113 623 113Q637 113 647 117V0Q637 -5 621.5 -9.5Q606 -14 584 -14Q537 -14 499.5 2.5Q462 19 449 66Q418 28 373.5 7Q329 -14 276 -14Q227 -14 186.5 -2.5Q146 9 117.5 32Q89 55 73 90Q57 125 57 173V530H202V193Q202 151 229.5 132.5Q257 114 302 114Q330 114 353.5 122Q377 130 396 142.5Q415 155 427.5 171Q440 187 445 202V530H589ZM117 692Q117 730 143 756Q169 782 207 782Q245 782 271 756Q297 730 297 692Q297 654 271 628Q245 602 207 602Q169 602 143 628Q117 654 117 692ZM347 692Q347 730 373 756Q399 782 437 782Q475 782 501 756Q527 730 527 692Q527 654 501 628Q475 602 437 602Q399 602 373 628Q347 654 347 692Z" glyph-name="udieresis" horiz-adv-x="677" unicode="&#252;" /><glyph d="M300 800 401 592H257L138 800ZM589 149Q589 113 623 113Q637 113 647 117V0Q637 -5 621.5 -9.5Q606 -14 584 -14Q537 -14 499.5 2.5Q462 19 449 66Q418 28 373.5 7Q329 -14 276 -14Q227 -14 186.5 -2.5Q146 9 117.5 32Q89 55 73 90Q57 125 57 173V530H202V193Q202 151 229.5 132.5Q257 114 302 114Q330 114 353.5 122Q377 130 396 142.5Q415 155 427.5 171Q440 187 445 202V530H589Z" glyph-name="ugrave" horiz-adv-x="677" unicode="&#249;" /><glyph d="M589 149Q589 113 623 113Q637 113 647 117V0Q637 -5 621.5 -9.5Q606 -14 584 -14Q537 -14 499.5 2.5Q462 19 449 66Q418 28 373.5 7Q329 -14 276 -14Q227 -14 186.5 -2.5Q146 9 117.5 32Q89 55 73 90Q57 125 57 173V530H202V193Q202 151 229.5 132.5Q257 114 302 114Q330 114 353.5 122Q377 130 396 142.5Q415 155 427.5 171Q440 187 445 202V530H589ZM614 800 495 592H351L452 800ZM415 800 296 592H151L252 800Z" glyph-name="uhungarumlaut" horiz-adv-x="677" unicode="&#369;" /><glyph d="M159 760H489V635H159ZM589 149Q589 113 623 113Q637 113 647 117V0Q637 -5 621.5 -9.5Q606 -14 584 -14Q537 -14 499.5 2.5Q462 19 449 66Q418 28 373.5 7Q329 -14 276 -14Q227 -14 186.5 -2.5Q146 9 117.5 32Q89 55 73 90Q57 125 57 173V530H202V193Q202 151 229.5 132.5Q257 114 302 114Q330 114 353.5 122Q377 130 396 142.5Q415 155 427.5 171Q440 187 445 202V530H589Z" glyph-name="umacron" horiz-adv-x="677" unicode="&#363;" /><glyph d="M24 -200V-71H325V-200Z" glyph-name="underscore" horiz-adv-x="348" unicode="_" /><glyph d="M22 -200V-71H736V-200Z" glyph-name="underscoremonospace" horiz-adv-x="760" unicode="&#65343;" /><glyph d="M48 272V400H348V272Z" glyph-name="uni00AD" horiz-adv-x="396" unicode="&#173;" /><glyph d="M438 800 388 592H234L307 800Z" glyph-name="uni0312" horiz-adv-x="643" unicode="&#786;" /><glyph d="M231 -124Q231 -86 257 -60Q283 -34 321 -34Q359 -34 385 -60Q411 -86 411 -124Q411 -162 385 -188Q359 -214 321 -214Q283 -214 257 -188Q231 -162 231 -124Z" glyph-name="uni0323" horiz-adv-x="643" unicode="&#803;" /><glyph d="M275 -200V-40H367V-200Z" glyph-name="uni0329" horiz-adv-x="643" unicode="&#809;" /><glyph d="M215 545V448H370Q397 448 413.5 457.5Q430 467 430 498Q430 527 414 536Q398 545 370 545ZM376 219Q387 219 399.5 220Q412 221 423 226.5Q434 232 441.5 242.5Q449 253 449 272Q449 291 442.5 302Q436 313 426 319Q416 325 403.5 326.5Q391 328 379 328H215V219ZM290 100 264 0H135L161 100H73V664H304L330 764H460L433 660Q460 656 485.5 647Q511 638 531 620.5Q551 603 563 575.5Q575 548 575 508Q575 470 561 441Q547 412 523 397Q560 386 577.5 350Q595 314 595 269Q595 216 577.5 183Q560 150 530 131.5Q500 113 461.5 106.5Q423 100 381 100Z" glyph-name="uni0E3F" horiz-adv-x="648" unicode="&#3647;" /><glyph d="M48 272V400H1452V272Z" glyph-name="uni2015" horiz-adv-x="1500" unicode="&#8213;" /><glyph d="M48 326V454H1452V326Z" glyph-name="uni2015.cap" horiz-adv-x="1500" unicode="&#58504;" /><glyph d="M283 450Q305 450 325 455.5Q345 461 359 474Q373 487 381.5 509Q390 531 390 563Q390 595 381.5 617Q373 639 359 652Q345 665 325 670.5Q305 676 283 676Q260 676 240.5 670.5Q221 665 207 652Q193 639 184.5 617Q176 595 176 563Q176 531 184.5 509Q193 487 207 474Q221 461 240.5 455.5Q260 450 283 450ZM283 348Q180 348 119.5 400.5Q59 453 59 563Q59 673 119.5 725.5Q180 778 283 778Q386 778 446.5 725.5Q507 673 507 563Q507 453 446.5 400.5Q386 348 283 348Z" glyph-name="uni2070" horiz-adv-x="566" unicode="&#8304;" /><glyph d="M239 622 174 534H239ZM354 432V362H239V432H35V510L252 778H354V534H426V432Z" glyph-name="uni2074" horiz-adv-x="466" unicode="&#8308;" /><glyph d="M65 545 90 764H389V662H186L181 622Q192 627 210.5 630Q229 633 246 633Q284 633 314.5 626Q345 619 366.5 603Q388 587 399.5 561Q411 535 411 497Q411 457 397 428.5Q383 400 358 382Q333 364 300 355.5Q267 347 229 347Q140 347 97 381.5Q54 416 48 485L165 494Q169 466 185 455.5Q201 445 230 446Q256 446 275 458.5Q294 471 295 499Q295 554 234 554Q212 555 193.5 547.5Q175 540 165 525Z" glyph-name="uni2075" horiz-adv-x="460" unicode="&#8309;" /><glyph d="M246 547Q218 547 199 533.5Q180 520 179 492V490Q181 468 199.5 457Q218 446 241 446Q265 446 282.5 458Q300 470 300 496Q300 523 285.5 535Q271 547 246 547ZM252 680Q220 680 196.5 662.5Q173 645 170 598Q186 616 214.5 623Q243 630 266 630Q417 630 417 496Q417 458 404 430.5Q391 403 368 384.5Q345 366 313 357Q281 348 243 348Q146 348 101.5 400.5Q57 453 57 564Q57 673 108.5 725.5Q160 778 255 778Q330 778 370.5 746.5Q411 715 417 657L302 646Q296 680 252 680Z" glyph-name="uni2076" horiz-adv-x="469" unicode="&#8310;" /><glyph d="M85 362 220 609 250 662 198 661H41V764H390V694L210 362Z" glyph-name="uni2077" horiz-adv-x="432" unicode="&#8311;" /><glyph d="M234 348Q48 348 48 474Q48 513 63 535.5Q78 558 101 569Q82 581 71 602.5Q60 624 60 653Q60 689 74.5 713Q89 737 113 751.5Q137 766 168.5 772Q200 778 234 778Q268 778 299 772Q330 766 354 751.5Q378 737 392.5 713Q407 689 407 653Q407 624 396 602.5Q385 581 366 569Q389 558 404 535.5Q419 513 419 474Q419 348 234 348ZM234 447Q265 447 283.5 455.5Q302 464 302 485Q302 497 296 505Q290 513 280.5 517.5Q271 522 258.5 523.5Q246 525 234 525Q221 525 208.5 523.5Q196 522 186.5 517.5Q177 513 171 505Q165 497 165 485Q165 464 183.5 455.5Q202 447 234 447ZM234 608Q260 608 278 615Q296 622 296 644Q296 664 278 671.5Q260 679 234 679Q208 679 189.5 671.5Q171 664 171 644Q171 622 189.5 615Q208 608 234 608Z" glyph-name="uni2078" horiz-adv-x="467" unicode="&#8312;" /><glyph d="M222 579Q250 579 269 592.5Q288 606 289 634V636Q287 658 268.5 669Q250 680 227 680Q203 680 185.5 668Q168 656 168 630Q168 603 183 591Q198 579 222 579ZM216 446Q232 446 246.5 450Q261 454 272 463.5Q283 473 290 489Q297 505 298 528Q282 510 254 503Q226 496 202 496Q51 496 51 630Q51 667 64 695Q77 723 100 741.5Q123 760 155 769Q187 778 225 778Q323 778 367 725.5Q411 673 411 562Q411 453 360 400.5Q309 348 213 348Q138 348 97.5 379.5Q57 411 51 469L166 480Q172 446 216 446Z" glyph-name="uni2079" horiz-adv-x="469" unicode="&#8313;" /><glyph d="M139 513H39V647H139V740H283V647H382V513H283V419H139Z" glyph-name="uni207A" horiz-adv-x="422" unicode="&#8314;" /><glyph d="M32 513V647H382V513Z" glyph-name="uni207B" horiz-adv-x="422" unicode="&#8315;" /><glyph d="M40 602V723H382V602ZM40 437V558H382V437Z" glyph-name="uni207C" horiz-adv-x="422" unicode="&#8316;" /><glyph d="M199 567Q199 501 214 433Q229 365 252 314H120Q95 363 77 425.5Q59 488 59 567Q59 646 77 708.5Q95 771 120 820H252Q229 769 214 701Q199 633 199 567Z" glyph-name="uni207D" horiz-adv-x="300" unicode="&#8317;" /><glyph d="M101 567Q101 633 86 701Q71 769 48 820H180Q205 771 223 708.5Q241 646 241 567Q241 488 223 425.5Q205 363 180 314H48Q71 365 86 433Q101 501 101 567Z" glyph-name="uni207E" horiz-adv-x="300" unicode="&#8318;" /><glyph d="M283 88Q305 88 325 93.5Q345 99 359 112Q373 125 381.5 147Q390 169 390 201Q390 233 381.5 255Q373 277 359 290Q345 303 325 308.5Q305 314 283 314Q260 314 240.5 308.5Q221 303 207 290Q193 277 184.5 255Q176 233 176 201Q176 169 184.5 147Q193 125 207 112Q221 99 240.5 93.5Q260 88 283 88ZM283 -14Q180 -14 119.5 38.5Q59 91 59 201Q59 311 119.5 363.5Q180 416 283 416Q386 416 446.5 363.5Q507 311 507 201Q507 91 446.5 38.5Q386 -14 283 -14Z" glyph-name="uni2080" horiz-adv-x="566" unicode="&#8320;" /><glyph d="M39 0V102H172V266Q154 255 116 242.5Q78 230 30 225V330Q87 341 129.5 364Q172 387 197 416H287V102H418V0Z" glyph-name="uni2081" horiz-adv-x="461" unicode="&#8321;" /><glyph d="M240 416Q277 416 309.5 407.5Q342 399 365 382Q388 365 401.5 340Q415 315 415 281Q415 247 403 225.5Q391 204 370.5 190Q350 176 323 167.5Q296 159 266 151Q237 143 211 131.5Q185 120 180 100L256 102H424V0H50Q48 62 60 101.5Q72 141 95.5 165.5Q119 190 151.5 205Q184 220 225 232Q262 244 281 251.5Q300 259 300 278Q300 299 281.5 307.5Q263 316 242 316Q210 316 190 305.5Q170 295 167 264L50 273Q56 348 104.5 382Q153 416 240 416Z" glyph-name="uni2082" horiz-adv-x="472" unicode="&#8322;" /><glyph d="M426 118Q426 59 378 22.5Q330 -14 230 -14Q53 -14 43 127L160 135Q163 108 182.5 98Q202 88 235 88Q312 88 312 131Q312 155 292 162Q272 169 243 169H170V243H244Q267 243 282.5 250.5Q298 258 298 278Q298 297 282 307Q266 317 239 317Q207 316 189 306.5Q171 297 168 270L51 278Q56 350 101.5 383Q147 416 236 416Q271 416 303.5 409Q336 402 360.5 387Q385 372 400 347.5Q415 323 415 288Q415 255 402 237Q389 219 374 208Q394 199 410 177.5Q426 156 426 118Z" glyph-name="uni2083" horiz-adv-x="475" unicode="&#8323;" /><glyph d="M239 260 174 172H239ZM354 70V0H239V70H35V148L252 416H354V172H426V70Z" glyph-name="uni2084" horiz-adv-x="466" unicode="&#8324;" /><glyph d="M65 183 90 402H389V300H186L181 260Q192 265 210.5 268Q229 271 246 271Q284 271 314.5 264Q345 257 366.5 241Q388 225 399.5 199Q411 173 411 135Q411 95 397 66.5Q383 38 358 20Q333 2 300 -6.5Q267 -15 229 -15Q140 -15 97 19.5Q54 54 48 123L165 132Q169 104 185 93.5Q201 83 230 84Q256 84 275 96.5Q294 109 295 137Q295 192 234 192Q212 193 193.5 185.5Q175 178 165 163Z" glyph-name="uni2085" horiz-adv-x="460" unicode="&#8325;" /><glyph d="M246 185Q218 185 199 171.5Q180 158 179 130V128Q181 106 199.5 95Q218 84 241 84Q265 84 282.5 96Q300 108 300 134Q300 161 285.5 173Q271 185 246 185ZM252 318Q220 318 196.5 300.5Q173 283 170 236Q186 254 214.5 261Q243 268 266 268Q417 268 417 134Q417 96 404 68.5Q391 41 368 22.5Q345 4 313 -5Q281 -14 243 -14Q146 -14 101.5 38.5Q57 91 57 202Q57 311 108.5 363.5Q160 416 255 416Q330 416 370.5 384.5Q411 353 417 295L302 284Q296 318 252 318Z" glyph-name="uni2086" horiz-adv-x="469" unicode="&#8326;" /><glyph d="M85 0 220 247 250 300 198 299H41V402H390V332L210 0Z" glyph-name="uni2087" horiz-adv-x="432" unicode="&#8327;" /><glyph d="M234 -14Q48 -14 48 112Q48 151 63 173.5Q78 196 101 207Q82 219 71 240.5Q60 262 60 291Q60 327 74.5 351Q89 375 113 389.5Q137 404 168.5 410Q200 416 234 416Q268 416 299 410Q330 404 354 389.5Q378 375 392.5 351Q407 327 407 291Q407 262 396 240.5Q385 219 366 207Q389 196 404 173.5Q419 151 419 112Q419 -14 234 -14ZM234 85Q265 85 283.5 93.5Q302 102 302 123Q302 135 296 143Q290 151 280.5 155.5Q271 160 258.5 161.5Q246 163 234 163Q221 163 208.5 161.5Q196 160 186.5 155.5Q177 151 171 143Q165 135 165 123Q165 102 183.5 93.5Q202 85 234 85ZM234 246Q260 246 278 253Q296 260 296 282Q296 302 278 309.5Q260 317 234 317Q208 317 189.5 309.5Q171 302 171 282Q171 260 189.5 253Q208 246 234 246Z" glyph-name="uni2088" horiz-adv-x="467" unicode="&#8328;" /><glyph d="M222 217Q250 217 269 230.5Q288 244 289 272V274Q287 296 268.5 307Q250 318 227 318Q203 318 185.5 306Q168 294 168 268Q168 241 183 229Q198 217 222 217ZM216 84Q232 84 246.5 88Q261 92 272 101.5Q283 111 290 127Q297 143 298 166Q282 148 254 141Q226 134 202 134Q51 134 51 268Q51 305 64 333Q77 361 100 379.5Q123 398 155 407Q187 416 225 416Q323 416 367 363.5Q411 311 411 200Q411 91 360 38.5Q309 -14 213 -14Q138 -14 97.5 17.5Q57 49 51 107L166 118Q172 84 216 84Z" glyph-name="uni2089" horiz-adv-x="469" unicode="&#8329;" /><glyph d="M139 151H39V285H139V378H283V285H382V151H283V57H139Z" glyph-name="uni208A" horiz-adv-x="422" unicode="&#8330;" /><glyph d="M32 151V285H382V151Z" glyph-name="uni208B" horiz-adv-x="422" unicode="&#8331;" /><glyph d="M40 240V361H382V240ZM40 75V196H382V75Z" glyph-name="uni208C" horiz-adv-x="422" unicode="&#8332;" /><glyph d="M199 205Q199 139 214 71Q229 3 252 -48H120Q95 1 77 63.5Q59 126 59 205Q59 284 77 346.5Q95 409 120 458H252Q229 407 214 339Q199 271 199 205Z" glyph-name="uni208D" horiz-adv-x="300" unicode="&#8333;" /><glyph d="M101 205Q101 271 86 339Q71 407 48 458H180Q205 409 223 346.5Q241 284 241 205Q241 126 223 63.5Q205 1 180 -48H48Q71 3 86 71Q101 139 101 205Z" glyph-name="uni208E" horiz-adv-x="300" unicode="&#8334;" /><glyph d="M260 185Q273 168 285 158L486 632Q478 635 470 636.5Q462 638 453 640ZM213 382Q213 360 214 340Q215 320 219 301L362 640Q321 632 292.5 610.5Q264 589 246.5 556Q229 523 221 478.5Q213 434 213 382ZM199 -46 228 22Q220 26 213 30Q206 34 198 39L163 -46H72L133 98Q90 150 70 222Q50 294 50 382Q50 471 71 544Q92 617 135.5 669Q179 721 246 749.5Q313 778 406 778H420L434 810H525L508 769Q516 767 524.5 765.5Q533 764 541 762L561 810H652L619 731Q673 700 702 651.5Q731 603 735 540L571 522Q568 556 554 578L362 124Q372 122 383 121Q394 120 406 120Q488 120 526 152.5Q564 185 571 242L735 224Q727 115 646 50.5Q565 -14 406 -14Q380 -14 355 -11.5Q330 -9 307 -4L290 -46Z" glyph-name="uni20A1" horiz-adv-x="778" unicode="&#8353;" /><glyph d="M624 478Q686 478 721 464L708 321Q699 326 678.5 331.5Q658 337 632 337Q607 337 583 331Q559 325 538 314Q517 303 501 288.5Q485 274 476 256V133Q521 144 542.5 171.5Q564 199 571 242L735 224Q727 115 646 50.5Q565 -14 406 -14Q313 -14 246 14.5Q179 43 135.5 95Q92 147 71 220Q50 293 50 382Q50 471 71 544Q92 617 135.5 669Q179 721 246 749.5Q313 778 406 778Q565 778 646 713.5Q727 649 735 540L571 522Q564 579 526 611.5Q488 644 406 644Q353 644 316 625.5Q279 607 256 572.5Q233 538 223 489.5Q213 441 213 382Q213 291 237.5 229.5Q262 168 319 142V319L310 463H453L466 404Q492 437 533 457.5Q574 478 624 478Z" glyph-name="uni20A2" horiz-adv-x="778" unicode="&#8354;" /><glyph d="M266 500H285L266 542ZM581 222V264H560ZM332 402H266V362H351ZM513 362H581V402H494ZM112 264H27V362H112V402H27V500H112V764H319L447 500H581V764H734V500H820V402H734V362H820V264H734V0H527L399 264H266V0H112Z" glyph-name="uni20A6" horiz-adv-x="845" unicode="&#8358;" /><glyph d="M547 521Q547 558 535.5 580.5Q524 603 506.5 615Q489 627 467.5 630.5Q446 634 427 634H220V408H427Q446 408 467.5 411.5Q489 415 506.5 427Q524 439 535.5 461.5Q547 484 547 521ZM220 0H70V764H416Q468 764 519.5 753.5Q571 743 611.5 715.5Q652 688 677 641Q702 594 702 521Q702 469 689.5 430.5Q677 392 654.5 364.5Q632 337 602 319.5Q572 302 538 292Q603 192 700 145Q797 98 935 98Q1022 98 1055.5 114Q1089 130 1089 164Q1088 180 1079.5 189Q1071 198 1055 202.5Q1039 207 1016 208.5Q993 210 964 213Q923 216 881.5 221.5Q840 227 807 243Q774 259 753 288.5Q732 318 732 369Q732 419 755 452.5Q778 486 813.5 506.5Q849 527 892.5 535.5Q936 544 977 544Q1099 544 1159 503Q1219 462 1230 377L1082 359Q1077 391 1054 409.5Q1031 428 977 427Q960 427 944 424Q928 421 915 415Q902 409 894.5 398.5Q887 388 887 372Q887 358 895.5 350.5Q904 343 919 339Q934 335 955 333Q976 331 1002 328Q1044 324 1087 319Q1130 314 1164 298.5Q1198 283 1219.5 252Q1241 221 1241 165Q1241 116 1219 82Q1197 48 1156.5 26.5Q1116 5 1059.5 -4.5Q1003 -14 934 -14Q818 -14 731 5.5Q644 25 578 62.5Q512 100 463.5 154Q415 208 375 277H220Z" glyph-name="uni20A8" horiz-adv-x="1274" unicode="&#8360;" /><glyph d="M482 500H495L489 526ZM280 235 287 264H274ZM699 235 703 264H691ZM257 362H312L322 402H251ZM665 362H720L727 402H655ZM448 362H529L520 402H457ZM894 500H952V402H873L865 362H952V264H844L787 -14H624L554 264H423L354 -14H190L132 264H25V362H111L104 402H25V500H84L29 764H187L234 500H347L416 764H561L630 500H744L790 764H948Z" glyph-name="uni20A9" horiz-adv-x="978" unicode="&#8361;" /><glyph d="M266 0V586H369V127H498Q581 127 581 204V764H730V189Q730 94 674.5 47Q619 0 517 0ZM314 764Q416 764 471 717Q526 670 526 575V178H423V560Q423 637 341 637H211V0H62V764Z" glyph-name="uni20AA" horiz-adv-x="791" unicode="&#8362;" /><glyph d="M370 270V0H220V200L110 150V236L220 286V330L110 280V366L220 416V635H21V764H568V635H370V486L491 542V456L370 400V356L491 412V326Z" glyph-name="uni20AE" horiz-adv-x="589" unicode="&#8366;" /><glyph d="M262 455H535Q535 456 536 459Q536 461 536.5 465.5Q537 470 537 476Q537 482 536.5 486Q536 490 536 492Q535 495 535 497H262ZM262 317H410Q442 317 466.5 326.5Q491 336 505 359H262ZM262 593H505Q491 616 466.5 625.5Q442 635 410 635H262ZM262 189V0H112V359H35V455H112V497H35V593H112V764H377Q423 764 467.5 755.5Q512 747 549.5 726.5Q587 706 615.5 673.5Q644 641 660 593H732V497H676Q677 492 677 486.5Q677 481 677 476Q677 471 677 465.5Q677 460 676 455H732V359H660Q644 311 615.5 278.5Q587 246 549.5 225.5Q512 205 467.5 196.5Q423 188 377 188Z" glyph-name="uni20B1" horiz-adv-x="766" unicode="&#8369;" /><glyph d="M39 362V464H172V628Q154 617 116 604.5Q78 592 30 587V692Q87 703 129.5 726Q172 749 197 778H287V464H418V362ZM1147 118Q1147 59 1099 22.5Q1051 -14 951 -14Q774 -14 764 127L881 135Q884 108 903.5 98Q923 88 956 88Q1033 88 1033 131Q1033 155 1013 162Q993 169 964 169H891V243H965Q988 243 1003.5 250.5Q1019 258 1019 278Q1019 297 1003 307Q987 317 960 317Q928 316 910.5 306.5Q893 297 889 270L772 278Q777 350 822.5 383Q868 416 957 416Q992 416 1024.5 409Q1057 402 1081.5 387Q1106 372 1121 347.5Q1136 323 1136 288Q1136 255 1123 237Q1110 219 1095 208Q1115 199 1131 177.5Q1147 156 1147 118ZM388 0H237L794 764H946Z" glyph-name="uni2153" horiz-adv-x="1196" unicode="&#8531;" /><glyph d="M1159 118Q1159 59 1111 22.5Q1063 -14 963 -14Q786 -14 776 127L892 135Q896 108 915.5 98Q935 88 967 88Q1045 88 1045 131Q1045 155 1025 162Q1005 169 976 169H903V243H977Q1000 243 1015.5 250.5Q1031 258 1031 278Q1031 297 1015 307Q999 317 972 317Q940 316 922 306.5Q904 297 901 270L784 278Q789 350 834.5 383Q880 416 969 416Q1004 416 1036 409Q1068 402 1093 387Q1118 372 1132.5 347.5Q1147 323 1147 288Q1147 255 1134.5 237Q1122 219 1107 208Q1127 199 1143 177.5Q1159 156 1159 118ZM400 0H249L806 764H958ZM240 778Q277 778 309.5 769.5Q342 761 365 744Q388 727 401.5 702Q415 677 415 643Q415 609 403 587.5Q391 566 370.5 552Q350 538 323 529.5Q296 521 266 513Q237 505 211 493.5Q185 482 180 462L256 464H424V362H50Q48 424 60 463.5Q72 503 95.5 527.5Q119 552 151.5 567Q184 582 225 594Q262 606 281 613.5Q300 621 300 640Q300 661 281.5 669.5Q263 678 242 678Q210 678 190 667.5Q170 657 167 626L50 635Q56 710 104.5 744Q153 778 240 778Z" glyph-name="uni2154" horiz-adv-x="1207" unicode="&#8532;" /><glyph d="M39 362V464H172V628Q154 617 116 604.5Q78 592 30 587V692Q87 703 129.5 726Q172 749 197 778H287V464H418V362ZM786 183 811 402H1110V300H907L902 260Q913 265 931.5 268Q950 271 967 271Q1005 271 1035.5 264Q1066 257 1087.5 241Q1109 225 1120.5 199Q1132 173 1132 135Q1132 95 1118 66.5Q1104 38 1079 20Q1054 2 1021 -6.5Q988 -15 950 -15Q861 -15 818 19.5Q775 54 769 123L886 132Q890 104 906 93.5Q922 83 951 84Q977 84 996 96.5Q1015 109 1016 137Q1016 192 955 192Q933 193 914.5 185.5Q896 178 886 163ZM388 0H237L794 764H946Z" glyph-name="uni2155" horiz-adv-x="1181" unicode="&#8533;" /></font>
</defs>
</svg>
